<svg fill="#76af08" id="svg6" clip-rule="evenodd" fill-rule="evenodd" height="512" stroke-linejoin="round" stroke-miterlimit="2" viewBox="0 0 24 24" width="512" xmlns="http://www.w3.org/2000/svg"
     xmlns:svg="http://www.w3.org/2000/svg">
    <path id="path2"
          d="m20.732 18.681c.172-.185.268-.428.268-.681v-14c0-.404-.244-.769-.617-.924-.374-.155-.804-.069-1.09.217 0 0-.633.63-1.517 1.135-.527.301-1.148.572-1.776.572-2.299 0-3.051-2.316-3.051-2.316-.14-.419-.538-.697-.979-.684-.442.014-.822.315-.936.742-.345 1.291-1.634 2.258-3.034 2.258-.628 0-1.249-.271-1.776-.572-.884-.505-1.517-1.135-1.517-1.135-.286-.286-.716-.372-1.09-.217-.373.155-.617.52-.617.924v14c0 .253.096.496.268.681 1.636 1.759 4.926 3.319 8.732 3.319s7.096-1.56 8.732-3.319zm-9.732-5.095 4.293-4.293c.39-.39 1.024-.39 1.414 0s.39 1.024 0 1.414l-5 5c-.39.391-1.024.391-1.414 0l-3-3c-.39-.39-.39-1.024 0-1.414s1.024-.39 1.414 0z"/>
</svg>