<?xml version="1.0" encoding="iso-8859-1"?>
<!-- Generator: Adobe Illustrator 19.0.0, SVG Export Plug-In . SVG Version: 6.00 Build 0)  -->
<svg version="1.1" id="Capa_1" xmlns="http://www.w3.org/2000/svg" xmlns:xlink="http://www.w3.org/1999/xlink" x="0px" y="0px"
	 viewBox="0 0 511.999 511.999" style="enable-background:new 0 0 511.999 511.999;" xml:space="preserve">
<path style="fill:#CDD2DF;" d="M246.592,337.69l-72.284-72.284L388.671,51.044c16.926-16.926,37.876-29.274,60.882-35.885
	l51.564-14.817c6.434-1.849,12.389,4.106,10.54,10.54L496.84,62.446c-6.611,23.006-18.959,43.956-35.885,60.882L246.592,337.69z"/>
<path style="fill:#BBC6D4;" d="M460.954,123.327c16.926-16.926,29.274-37.876,35.885-60.882l14.818-51.564
	c0.866-3.015,0.007-5.913-1.8-7.963L376.392,136.384L210.838,301.937l35.753,35.753L460.954,123.327z"/>
<path style="fill:#FFFFFF;" d="M210.839,310.181c-2.11,0-4.22-0.805-5.829-2.415c-3.22-3.219-3.22-8.439,0-11.659l165.553-165.553
	c3.219-3.219,8.439-3.219,11.658,0c3.22,3.219,3.22,8.439,0,11.659L216.668,307.766
	C215.058,309.376,212.949,310.181,210.839,310.181z"/>
<rect x="68.368" y="355.16" transform="matrix(-0.7071 -0.7071 0.7071 -0.7071 -121.3568 774.3405)" style="fill:#FF9400;" width="62.649" height="114.289"/>
<polygon style="fill:#FF7A00;" points="117.947,349.748 117.947,349.748 146.95,378.75 66.137,459.563 37.134,430.561 
	37.134,430.561 81.437,474.863 162.25,394.051 "/>
<path style="fill:#FFE92F;" d="M174.303,409.969l-72.274-72.274c-3.008-3.008-3.008-7.884,0-10.891l22.843-22.843l83.165,83.165
	l-22.843,22.843C182.187,412.976,177.311,412.976,174.303,409.969z"/>
<path style="fill:#FFD82F;" d="M124.872,303.961l-12.178,12.178l50.731,50.731c8.897,8.897,8.897,23.323,0,32.221l0,0l10.878,10.878
	c3.008,3.007,7.884,3.008,10.891,0l22.843-22.843L124.872,303.961z"/>
<path style="fill:#FFC600;" d="M221.976,404.789L107.209,290.022c-20.463-20.463-20.463-53.64,0-74.103l0,0
	c4.863-4.863,12.748-4.863,17.611,0l171.259,171.259c4.863,4.863,4.863,12.748,0,17.611l0,0
	C275.616,425.252,242.439,425.252,221.976,404.789z"/>
<path style="fill:#F4AF00;" d="M296.079,387.178l-33.567-33.567c4.863,4.863,4.862,12.748-0.001,17.611l0,0
	c-20.463,20.463-53.64,20.463-74.103,0l-40.6-40.6l74.167,74.167c20.463,20.463,53.64,20.463,74.103,0l0,0
	C300.943,399.926,300.943,392.041,296.079,387.178z"/>
<path style="fill:#FFE92F;" d="M26.912,497.306l-12.219-12.219c-19.591-19.591-19.591-51.355,0-70.946l0,0
	c2.73-2.73,7.157-2.73,9.888,0l73.278,73.278c2.73,2.73,2.73,7.157,0,9.888l0,0C78.266,516.897,46.503,516.897,26.912,497.306z"/>
<path style="fill:#FFD82F;" d="M97.858,487.418l-9.888-9.888c-19.654,18.672-50.718,18.382-69.999-0.9l-12.22-12.22
	c-1.807-1.806-3.444-3.718-4.917-5.712c1.771,9.666,6.384,18.914,13.859,26.388l12.22,12.219c19.591,19.591,51.355,19.591,70.946,0
	l0,0C100.588,494.575,100.588,490.148,97.858,487.418z"/>
<g>
</g>
<g>
</g>
<g>
</g>
<g>
</g>
<g>
</g>
<g>
</g>
<g>
</g>
<g>
</g>
<g>
</g>
<g>
</g>
<g>
</g>
<g>
</g>
<g>
</g>
<g>
</g>
<g>
</g>
</svg>
