<?xml version="1.0"?>
<svg xmlns="http://www.w3.org/2000/svg" xmlns:xlink="http://www.w3.org/1999/xlink" xmlns:svgjs="http://svgjs.com/svgjs" version="1.1" width="512" height="512" x="0" y="0" viewBox="0 0 448 448" style="enable-background:new 0 0 512 512" xml:space="preserve" class=""><g><path xmlns="http://www.w3.org/2000/svg" d="m128 168h192v-16h-192zm0 0" fill="#fd0000" data-original="#000000" style="" class=""/><path xmlns="http://www.w3.org/2000/svg" d="m224 0c-123.710938 0-224 100.289062-224 224s100.289062 224 224 224 224-100.289062 224-224c-.140625-123.652344-100.347656-223.859375-224-224zm112 176c0 4.417969-3.582031 8-8 8h-8.761719l-15.238281 152.800781c-.414062 4.101563-3.875 7.21875-8 7.199219h-144c-4.125.019531-7.585938-3.097656-8-7.199219l-15.199219-152.800781h-8.800781c-4.417969 0-8-3.582031-8-8v-32c0-4.417969 3.582031-8 8-8h81.472656c-.949218-2.5625-1.445312-5.269531-1.472656-8 0-13.253906 10.746094-24 24-24s24 10.746094 24 24c-.027344 2.730469-.523438 5.4375-1.472656 8h81.472656c4.417969 0 8 3.582031 8 8zm0 0" fill="#fd0000" data-original="#000000" style="" class=""/><path xmlns="http://www.w3.org/2000/svg" d="m159.238281 328h129.5625l14.398438-144h-158.359375zm96.800781-104.992188c.292969-2.886718 2.125-5.390624 4.792969-6.542968 2.664063-1.148438 5.746094-.761719 8.046875 1.007812 2.300782 1.769532 3.460938 4.648438 3.03125 7.519532l-8 64c-.496094 3.992187-3.886718 6.996093-7.910156 7.007812-.335938 0-.667969-.023438-1-.0625-4.382812-.550781-7.492188-4.546875-6.945312-8.929688zm-40.039062.992188c0-4.417969 3.582031-8 8-8s8 3.582031 8 8v64c0 4.417969-3.582031 8-8 8s-8-3.582031-8-8zm-32.992188-7.9375c4.382813-.546875 8.378907 2.5625 8.929688 6.945312l8 64c.546875 4.382813-2.5625 8.378907-6.945312 8.929688-.328126.039062-.660157.058594-.992188.0625-4.03125-.003906-7.429688-3.007812-7.929688-7.007812l-8-64c-.546874-4.378907 2.558594-8.375 6.9375-8.929688zm0 0" fill="#fd0000" data-original="#000000" style="" class=""/><path xmlns="http://www.w3.org/2000/svg" d="m232 128c0 4.417969-3.582031 8-8 8s-8-3.582031-8-8 3.582031-8 8-8 8 3.582031 8 8zm0 0" fill="#fd0000" data-original="#000000" style="" class=""/></g></svg>
