<svg id="svg6" fill="#1976d2" clip-rule="evenodd" fill-rule="evenodd" height="512" stroke-linejoin="round" stroke-miterlimit="2" viewBox="0 0 24 24" width="512" xmlns="http://www.w3.org/2000/svg"
     xmlns:svg="http://www.w3.org/2000/svg">
    <path id="path2"
          d="m22 8c0-1.39-.758-2.707-2.134-3.749-1.776-1.346-4.635-2.251-7.866-2.251-3.232 0-6.09.905-7.867 2.251-1.375 1.042-2.133 2.359-2.133 3.749v8c0 1.39.758 2.707 2.133 3.749 1.777 1.346 4.635 2.251 7.867 2.251 3.231 0 6.09-.905 7.866-2.251 1.376-1.042 2.134-2.359 2.134-3.749zm-12.536 2.879v1.828c0 .552-.448 1-1 1s-1-.448-1-1v-4.243c0-.552.448-1 1-1h4.243c.552 0 1 .449 1 1 0 .552-.448 1-1 1h-1.829l5.364 5.364c.391.391.391 1.024 0 1.415-.39.39-1.024.39-1.414 0z"/>
</svg>