<?xml version="1.0" encoding="utf-8"?>
<!-- Generator: Adobe Illustrator 23.1.0, SVG Export Plug-In . SVG Version: 6.00 Build 0)  -->
<svg version="1.1" id="Слой_1" xmlns="http://www.w3.org/2000/svg" xmlns:xlink="http://www.w3.org/1999/xlink" x="0px" y="0px"
	 viewBox="0 0 496 496" style="enable-background:new 0 0 496 496;" xml:space="preserve">
<style type="text/css">
	.st0{fill:#4A81F6;}
	.st1{fill:#4070F6;}
	.st2{fill:#CCD1D9;}
	.st3{fill:#AAB2BD;}
	.st4{fill:#ECC19C;}
	.st5{fill:#F5E0CD;}
	.st6{fill:#DFB28B;}
	.st7{fill:#F0D0B4;}
	.st8{fill:#E6E9ED;}
	.st9{fill:#B1E4F9;}
</style>
<path class="st0" d="M372.4,69.5l-33.9-33.9L314.8,51c-11.3-6.9-23.7-12.2-37-15.3L272,8h-48l-5.8,27.6c-13.3,3.2-25.7,8.4-37,15.3
	l-23.7-15.4l-33.9,33.9l12.3,29.3L137,160h15c0-53,43-96,96-96s96,43,96,96h16l-0.1-61.2L372.4,69.5z"/>
<path class="st1" d="M128.2,80.5l7.7,18.3L136,160h16c0-20.6,6.6-39.7,17.6-55.3C159.5,91.8,144.8,82.8,128.2,80.5z"/>
<path class="st1" d="M367.7,80.6c-16.8,2.2-31.6,11-41.7,23.6c11.3,15.7,18,35,18,55.8h16l-0.1-61.2L367.7,80.6z"/>
<path class="st2" d="M464,296v-39c0-14.7-10-27.5-24.2-31L400,216l0-14.5c14.3-8.3,24-23.8,24-41.5v-14c0-26.3-20.3-49.2-46.5-50
	c-27.2-0.8-49.5,21-49.5,48v16c0,17.8,9.7,33.2,24,41.5V216l-39.8,9.9c-14.2,3.6-24.2,16.4-24.2,31v39H464z"/>
<path class="st3" d="M352,257c0-14.6-6.6-27.8-17.2-36.7l-22.5,5.6c-14.2,3.6-24.2,16.4-24.2,31v39h64V257z"/>
<path class="st2" d="M208,296v-39c0-14.7-10-27.5-24.2-31L144,216l0-14.5c14.3-8.3,24-23.8,24-41.5v-14c0-26.3-20.3-49.2-46.5-50
	C94.3,95.2,72,117,72,144v16c0,17.8,9.7,33.2,24,41.5V216l-39.8,9.9C42,229.5,32,242.3,32,257v39H208z"/>
<path class="st3" d="M208,257c0-14.7-10-27.5-24.2-31l-22.5-5.6c-10.6,8.9-17.2,22.1-17.2,36.7v39h64V257z"/>
<path class="st2" d="M336,296v-39c0-14.7-10-27.5-24.2-31L272,216l0-14.5c14.3-8.3,24-23.8,24-41.5v-14c0-26.3-20.3-49.2-46.5-50
	c-27.2-0.8-49.5,21-49.5,48v16c0,17.8,9.7,33.2,24,41.5V216l-39.8,9.9c-14.2,3.6-24.2,16.4-24.2,31v39H336z"/>
<g>
	<path class="st3" d="M464,257c0-14.7-10-27.5-24.2-31l-8.8-2.2L324,280h-1.8l-34.2-9.8V296h176V257z"/>
	<path class="st3" d="M336,273.7l-12,6.3h-1.8l-48.1-13.7c-4.2-1.2-8.5-1.8-12.9-2L226.3,253c-10.5-3.4-21.4-5-32.4-5
		c-7.8,0-15.5,0.8-23.2,2.6l-10.4,2.4c-0.2,1.3-0.3,2.7-0.3,4v39h176V273.7z"/>
	<path class="st3" d="M170.7,250.6l-34.7,8v-11.8l-49-28.6l-30.8,7.7C42,229.5,32,242.3,32,257v39h176v-39c0-2.8-0.5-5.5-1.2-8.1
		c-4.3-0.5-8.6-0.9-12.9-0.9C186.2,248,178.4,248.8,170.7,250.6z"/>
</g>
<path class="st4" d="M338.5,387.1l-67.6-60.8L258,280l-36.6-11.7c-8.9-2.8-18.2-4.3-27.5-4.3c-6.6,0-13.2,0.7-19.6,2.2L80,288l-8,64
	l56.4,35.4L231,473l12.4,10.9c3,2.6,6.8,4.1,10.8,4.1h1.5c9,0,16.3-7.3,16.3-16.3c0-4.8-2.2-9.4-5.9-12.6c3.8,3.2,8.6,4.9,13.5,4.9
	c9,0,16.3-7.3,16.3-16.3c0-4.8-2.2-9.4-5.9-12.6l-30.7-25.5l32,26.7c2.9,2.4,6.6,3.8,10.5,3.8h1.7c9,0,16.3-7.3,16.3-16.3
	c0-4.8-2.2-9.4-5.9-12.6l1.3,1.1c3,2.5,6.7,3.8,10.6,3.8h1.4c9.2,0,16.6-7.4,16.6-16.6C344,394.7,342,390.2,338.5,387.1z"/>
<path class="st5" d="M338.5,387.1l-67.6-60.8c-4.4-4-10.2-6.2-16.2-6.2c-4.4,0-8.7,1.2-12.5,3.4l-29.8,17.9
	c-2.9,1.8-6.3,2.7-9.7,2.7c-10.4,0-18.8-8.4-18.8-18.8v-1.6c0-7.1,4-13.6,10.4-16.8l44.6-22.3c5.9-3,12.4-4.5,19-4.5
	c4,0,7.9,0.6,11.7,1.6L320,296h8l152-80h8v104l-144,72L338.5,387.1z"/>
<path class="st6" d="M248,400l-11.1,11.6l44.3,36.9c3.8,3.2,8.3,5.3,13,6.4c1.1-2.2,1.8-4.7,1.8-7.3c0-4.8-2.2-9.4-5.9-12.6L248,400
	z"/>
<path class="st5" d="M200,463c0,9.4,7.6,17,17,17c4.5,0,8.8-1.8,12-5L243,461c3.2-3.2,5-7.5,5-12c0-9.4-7.6-17-17-17
	c-4.5,0-8.8,1.8-12,5L205,451C201.8,454.2,200,458.5,200,463z"/>
<path class="st5" d="M176,439c0,9.4,7.6,17,17,17c4.5,0,8.8-1.8,12-5L219,437c3.2-3.2,5-7.5,5-12c0-9.4-7.6-17-17-17
	c-4.5,0-8.8,1.8-12,5L181,427C177.8,430.2,176,434.5,176,439z"/>
<path class="st5" d="M152,415c0,9.4,7.6,17,17,17c4.5,0,8.8-1.8,12-5L195,413c3.2-3.2,5-7.5,5-12c0-9.4-7.6-17-17-17
	c-4.5,0-8.8,1.8-12,5L157,403C153.8,406.2,152,410.5,152,415z"/>
<path class="st7" d="M182.3,400.3c4-4,6.7-9,8.3-14.4c-2.3-1.2-4.8-1.9-7.6-1.9c-4.5,0-8.8,1.8-12,5L157,403c-3.2,3.2-5,7.5-5,12
	c0,2.7,0.7,5.3,1.9,7.6c5.4-1.5,10.4-4.3,14.4-8.3L182.3,400.3z"/>
<path class="st7" d="M206.3,424.3c4-4,6.7-9,8.3-14.4c-2.3-1.2-4.8-1.9-7.6-1.9c-4.5,0-8.8,1.8-12,5L181,427c-3.2,3.2-5,7.5-5,12
	c0,2.7,0.7,5.3,1.9,7.6c5.4-1.5,10.4-4.3,14.4-8.3L206.3,424.3z"/>
<path class="st7" d="M230.3,448.3c4-4,6.7-9,8.3-14.4c-2.3-1.2-4.8-1.9-7.6-1.9c-4.5,0-8.8,1.8-12,5L205,451c-3.2,3.2-5,7.5-5,12
	c0,2.7,0.7,5.3,1.9,7.6c5.4-1.5,10.4-4.3,14.4-8.3L230.3,448.3z"/>
<path class="st5" d="M128,391c0,9.4,7.6,17,17,17c4.5,0,8.8-1.8,12-5L171,389c3.2-3.2,5-7.5,5-12c0-9.4-7.6-17-17-17
	c-4.5,0-8.8,1.8-12,5L133,379C129.8,382.2,128,386.5,128,391z"/>
<path class="st6" d="M133.3,275.6L80,288l-8,64l33.5,21L133.3,275.6z"/>
<path class="st8" d="M120,264L88,376h-8L8,352V200h16l96,56V264z"/>
<path class="st9" d="M88.5,237.6L24,200H8v152l48,16l32-128L88.5,237.6z"/>
<path class="st6" d="M272,376l-11.1,11.6l44.3,36.9c3.8,3.2,8.3,5.3,13,6.4c1.1-2.2,1.8-4.7,1.8-7.3c0-4.8-2.2-9.4-5.9-12.6L272,376
	z"/>
<path d="M496,208h-18l-26.8,14.1c-3-1.7-6.2-3.1-9.5-3.9l-33.7-8.4v-3.8c14.9-10.4,24-27.6,24-45.9v-14c0-31.1-24.4-57.1-54.3-58
	c-1.5,0-3,0-4.5,0.1l8.7-20.5l-42.4-42.4l-25,16.3c-9.5-5.3-19.5-9.5-29.9-12.4L278.5,0h-61l-6.2,29.1c-10.4,2.9-20.5,7.1-29.9,12.4
	l-25-16.3l-42.3,42.3l8.6,20.5c-0.3,0-0.6-0.1-1-0.1C106.4,87.6,92,93.2,81,103.8c-11,10.6-17,24.9-17,40.2v16
	c0,18.3,9.1,35.5,24,45.9v3.8l-22,5.5L26.2,192H0v165.8L78.7,384H94l1.9-6.7l24.1,14.5c0.4,13.1,10.9,23.7,24,24.1
	c0.5,13.1,10.9,23.5,24,24c0.5,13.1,10.9,23.5,24,24c0.5,13.4,11.4,24.1,24.9,24.1c5,0,9.9-1.6,14-4.3l7.1,6.3
	c4.4,3.9,10.2,6.1,16.1,6.1h1.5c13.3,0,24.1-10.8,24.3-24c13.2-0.2,23.8-10.8,24-24c13.2-0.2,23.8-10.8,24-24
	c13.3-0.3,24-11.2,24-24.5c0-0.8,0-1.6-0.1-2.4L496,324.9V208z M416,146v14c0,14.2-7.7,27.5-20,34.6l-4,2.3l0,25.3l40,10l-88,46.3
	V257c0-10.8-4.3-20.6-11.5-27.9l27.5-6.9v-25.3l-4-2.3c-12.3-7.1-20-20.4-20-34.6v-16c0-10.9,4.3-21.1,12.2-28.7
	c7.8-7.6,18.2-11.7,29.1-11.3C398.6,104.7,416,123.5,416,146z M260.1,272.2l-36.2-11.6c-16.5-5.3-34.4-6.1-51.3-2.3l-4.6,1V257
	c0-11,7.5-20.6,18.2-23.3l45.8-11.4v-25.3l-4-2.3c-12.3-7.1-20-20.4-20-34.6v-16c0-10.9,4.3-21.1,12.2-28.7
	c7.8-7.6,18.3-11.7,29.1-11.3c21.4,0.6,38.8,19.5,38.8,42v14c0,14.2-7.7,27.5-20,34.6l-4,2.3l0,25.3l45.8,11.4
	C320.5,236.4,328,246,328,257v30l-2,1h-4.9l-49.2-14.1C268.1,272.8,264.1,272.4,260.1,272.2z M169.8,119.7
	C184.8,90.6,215.1,72,248,72c32.6,0,62.7,18.4,77.9,47.1c-3.8,7.6-5.9,16.1-5.9,24.9v16c0,18.3,9.1,35.5,24,45.9v3.8l-32,8l-32-8
	v-3.8c14.9-10.4,24-27.6,24-45.9v-14c0-31.1-24.4-57.1-54.3-58c-15.3-0.4-29.8,5.1-40.7,15.8c-11,10.6-17,24.9-17,40.2v16
	c0,18.3,9.1,35.5,24,45.9v3.8l-32,8l-32-8v-3.8c14.9-10.4,24-27.6,24-45.9v-14C176,136.6,173.7,127.7,169.8,119.7z M133,71.4
	l25.6-25.6l22.5,14.6l4.3-2.6c10.8-6.6,22.4-11.4,34.6-14.4l4.9-1.2l5.6-26.2h35l5.6,26.2l4.9,1.2c12.2,2.9,23.9,7.8,34.6,14.4
	l4.3,2.6l22.5-14.6L363,71.3l-9.1,21.2c-6.2,2.7-11.9,6.4-16.9,11.2c-0.3,0.3-0.6,0.7-0.9,1C317.2,74.8,283.9,56,248,56
	c-36.2,0-69.6,19-88.4,49.3c-5-5.3-11-9.5-17.6-12.5L133,71.4z M104,222.2v-25.3l-4-2.3c-12.3-7.1-20-20.4-20-34.6v-16
	c0-10.9,4.3-21.1,12.2-28.7c7.8-7.6,18.2-11.7,29.1-11.3c21.4,0.6,38.8,19.5,38.8,42v14c0,14.2-7.7,27.5-20,34.6l-4,2.3l0,25.3
	l27.4,6.9c-7.1,7.3-11.5,17.1-11.5,27.9v5.9l-25,5.5l0.6-2.3l0.3-14.8l-42.2-24.6L104,222.2z M16,208h5.8l57.5,33.6l-29,116.1
	L16,346.2V208z M81.3,368l-15.7-5.2L93.8,250l18.2,10.6v2.3L82,368H81.3z M136,391c0-2.4,1-4.7,2.6-6.3l14.1-14.1
	c1.7-1.7,4-2.6,6.3-2.6c4.9,0,9,4,9,9c0,2.4-1,4.7-2.6,6.3l-14.1,14.1c-1.7,1.7-4,2.6-6.3,2.6C140,400,136,396,136,391z M160,415
	c0-2.4,1-4.7,2.6-6.3l14.1-14.1c1.7-1.7,4-2.6,6.3-2.6c4.9,0,9,4,9,9c0,2.4-1,4.7-2.6,6.3l-14.1,14.1c-1.7,1.7-4,2.6-6.3,2.6
	C164,424,160,420,160,415z M184,439c0-2.4,1-4.7,2.6-6.3l14.1-14.1c1.7-1.7,4-2.6,6.3-2.6c4.9,0,9,4,9,9c0,2.4-1,4.7-2.6,6.3
	l-14.1,14.1c-1.7,1.7-4,2.6-6.3,2.6C188,448,184,444,184,439z M217,472c-4.9,0-9-4-9-9c0-2.4,1-4.7,2.6-6.3l14.1-14.1
	c1.7-1.7,4-2.6,6.3-2.6c4.9,0,9,4,9,9c0,2.4-1,4.7-2.6,6.3l-14.1,14.1C221.6,471,219.3,472,217,472z M255.7,480h-1.5
	c-2,0-4-0.7-5.5-2.1l-6-5.3l6-6c2.1-2.1,3.8-4.7,5-7.4l7.3,6.1c1.9,1.6,3,3.9,3,6.4C264,476.3,260.3,480,255.7,480z M327.4,408H326
	c-2,0-4-0.7-5.5-2l-43.4-36.2l-10.3,12.3l42.1,35.1c1.9,1.6,3,3.9,3,6.4c0,4.6-3.7,8.3-8.3,8.3h-1.7c-1.9,0-3.8-0.7-5.3-1.9
	l-43.5-36.2l-10.3,12.3l42.1,35.1c1.9,1.6,3,3.9,3,6.4c0,4.6-3.7,8.3-8.3,8.3c-3.1,0-6.1-1.1-8.4-3l-17.9-14.9
	c-3.9-8-12-13.6-21.5-14c-0.5-13.1-10.9-23.5-24-24c-0.5-13.1-10.9-23.5-24-24c-0.5-13.4-11.4-24.1-24.9-24.1
	c-6.6,0-13,2.7-17.7,7.3l-14.1,14.1c-0.8,0.8-1.5,1.8-2.2,2.7l-24.6-14.7L122,286l54-12c14.2-3.2,29.1-2.5,42.9,1.9l11.8,3.8l-40,20
	c-9.1,4.6-14.8,13.8-14.8,24v1.6c0,14.8,12,26.8,26.8,26.8c4.9,0,9.6-1.3,13.8-3.8l29.8-17.9c6-3.6,14-2.8,19.2,1.8l67.6,60.8
	c1.8,1.6,2.8,4,2.8,6.4C336,404.1,332.1,408,327.4,408z M480,315.1l-134.8,67.4c-0.4-0.5-0.9-0.9-1.4-1.3l-67.6-60.8
	c-5.9-5.3-13.6-8.3-21.6-8.3c-5.8,0-11.6,1.6-16.6,4.6l-29.8,17.9c-1.7,1-3.6,1.5-5.5,1.5c-6,0-10.8-4.8-10.8-10.8v-1.6
	c0-4.1,2.3-7.8,6-9.7l44.6-22.3c7.6-3.8,16.7-4.7,24.9-2.3l50.3,14.4L330,304l150-79V315.1z"/>
</svg>
