<?xml version="1.0" encoding="utf-8"?>
<!-- Generator: Adobe Illustrator 23.1.0, SVG Export Plug-In . SVG Version: 6.00 Build 0)  -->
<svg version="1.1" id="Capa_1" xmlns="http://www.w3.org/2000/svg" xmlns:xlink="http://www.w3.org/1999/xlink" x="0px" y="0px"
	 viewBox="0 0 512 512" style="enable-background:new 0 0 512 512;" xml:space="preserve">
<style type="text/css">
	.st0{fill:#D9D9D9;}
	.st1{fill:#DBDBDB;}
	.st2{fill:#BDBDBD;}
	.st3{fill:#4A81F6;}
	.st4{fill:#3E8CC7;}
	.st5{fill:#87CED9;}
	.st6{fill:#4398D1;}
	.st7{fill:#B1E4F9;}
	.st8{fill:#DE4C3C;}
	.st9{fill:#126099;}
	.st10{fill:#D1D1D1;}
</style>
<polygon class="st0" points="93.9,435.2 93.9,8.5 315.7,8.5 401.1,93.9 401.1,435.2 "/>
<polygon class="st1" points="401.1,93.9 315.7,93.9 315.7,8.5 "/>
<g>
	<rect x="128" y="34.1" class="st2" width="162.1" height="17.1"/>
	
		<rect x="140.8" y="55" transform="matrix(1.659874e-02 -0.9999 0.9999 1.659874e-02 70.5229 224.4984)" class="st2" width="17.1" height="42.7"/>
	<rect x="187.7" y="68.3" class="st2" width="102.4" height="17.1"/>
	<path class="st2" d="M358.4,128H247.5v17.1h102.4v34.1H247.5v17.1h102.4v34.1H247.5v17.1h102.4v34.1H247.5v17.1h102.4v34.1H247.5
		v17.1h102.4V384H247.5v17.1h110.9c4.7,0,8.5-3.8,8.5-8.5v-256C366.9,131.8,363.1,128,358.4,128z"/>
</g>
<rect x="8.5" y="110.9" class="st3" width="273.1" height="392.5"/>
<polygon class="st4" points="46.4,503.5 281.6,503.5 281.6,110.9 239.6,110.9 "/>
<rect x="42.7" y="153.6" class="st5" width="204.8" height="68.3"/>
<polygon class="st6" points="469.3,68.3 469.3,366.9 452.3,384 435.2,366.9 435.2,68.3 "/>
<polygon class="st7" points="92.9,221.9 247.5,221.9 247.5,153.6 200.8,153.6 "/>
<g>
	<rect x="102.4" y="179.2" class="st4" width="17.1" height="17.1"/>
	<rect x="136.5" y="179.2" class="st4" width="17.1" height="17.1"/>
	<rect x="170.7" y="179.2" class="st4" width="17.1" height="17.1"/>
	<rect x="204.8" y="179.2" class="st4" width="17.1" height="17.1"/>
</g>
<g>
	<rect x="51.2" y="273.1" class="st7" width="34.1" height="34.1"/>
	<rect x="102.4" y="273.1" class="st7" width="34.1" height="34.1"/>
	<rect x="153.6" y="273.1" class="st7" width="34.1" height="34.1"/>
	<rect x="204.8" y="273.1" class="st7" width="34.1" height="34.1"/>
	<rect x="51.2" y="324.3" class="st7" width="34.1" height="34.1"/>
	<rect x="102.4" y="324.3" class="st7" width="34.1" height="34.1"/>
	<rect x="153.6" y="324.3" class="st7" width="34.1" height="34.1"/>
	<rect x="204.8" y="324.3" class="st7" width="34.1" height="34.1"/>
	<rect x="51.2" y="375.5" class="st7" width="34.1" height="34.1"/>
	<rect x="102.4" y="375.5" class="st7" width="34.1" height="34.1"/>
	<rect x="153.6" y="375.5" class="st7" width="34.1" height="34.1"/>
</g>
<rect x="204.8" y="375.5" class="st8" width="34.1" height="85.3"/>
<g>
	<rect x="51.2" y="426.7" class="st7" width="34.1" height="34.1"/>
	<rect x="102.4" y="426.7" class="st7" width="34.1" height="34.1"/>
	<rect x="153.6" y="426.7" class="st7" width="34.1" height="34.1"/>
</g>
<polygon class="st4" points="452.3,68.3 452.3,384 469.3,366.9 469.3,68.3 "/>
<g>
	<path class="st9" d="M512,221.9h-17.1v-111h-59.7v-17h68.3c4.7,0,8.5,3.8,8.5,8.5V221.9z"/>
	<rect x="435.2" y="196.3" class="st9" width="34.1" height="17.1"/>
</g>
<rect x="315.7" y="93.9" class="st10" width="85.3" height="17.1"/>
<rect x="128" y="34.1" width="162.1" height="17.1"/>
<rect x="140.8" y="55" transform="matrix(1.659874e-02 -0.9999 0.9999 1.659874e-02 70.5229 224.4984)" width="17.1" height="42.7"/>
<rect x="187.7" y="68.3" width="102.4" height="17.1"/>
<path d="M8.5,512h273.1c4.7,0,8.5-3.8,8.5-8.5v-59.7H401c4.7,0,8.5-3.8,8.5-8.5V93.9c0,0,0,0,0-0.5c-0.1-0.8-0.2-1.5-0.4-2.2
	c0-0.3,0-0.5,0-0.8c-0.4-0.9-1-1.8-1.6-2.6L322.2,2.5c-0.8-0.7-1.6-1.2-2.6-1.6h-0.8c-0.8-0.4-1.7-0.7-2.6-0.9H93.9
	c-4.7,0-8.5,3.8-8.5,8.5v93.9H8.5c-4.7,0-8.5,3.8-8.5,8.5v392.5C0,508.2,3.8,512,8.5,512z M324.3,29.1l56.2,56.2h-56.2V29.1
	L324.3,29.1z M102.4,17.1h204.8v76.8c0,4.7,3.8,8.5,8.5,8.5h76.8v324.3H290.1v-25.6h68.3c4.7,0,8.5-3.8,8.5-8.5v-256
	c0-4.7-3.8-8.5-8.5-8.5h-68.3V111c0-4.7-3.8-8.5-8.5-8.5H102.4V17.1z M349.9,196.3v34.1h-59.7v-34.1L349.9,196.3L349.9,196.3z
	 M290.1,179.2v-34.1h59.7v34.1L290.1,179.2L290.1,179.2z M349.9,247.5v34.1h-59.7v-34.1H349.9L349.9,247.5z M349.9,298.7v34.1h-59.7
	v-34.1H349.9z M349.9,349.9V384h-59.7v-34.1H349.9z M17.1,119.5h256V495h-256L17.1,119.5L17.1,119.5z"/>
<path d="M247.5,145.1H42.7c-4.7,0-8.5,3.8-8.5,8.5v68.3c0,4.7,3.8,8.5,8.5,8.5h204.8c4.7,0,8.5-3.8,8.5-8.5v-68.3
	C256,148.9,252.2,145.1,247.5,145.1z M238.9,213.3H51.2v-51.2h187.7V213.3z"/>
<path d="M247.5,256H42.7c-4.7,0-8.5,3.8-8.5,8.5v204.8c0,4.7,3.8,8.5,8.5,8.5h204.8c4.7,0,8.5-3.8,8.5-8.5V264.5
	C256,259.8,252.2,256,247.5,256z M85.3,460.8H51.2v-34.1h34.1V460.8z M85.3,409.6H51.2v-34.1h34.1V409.6z M85.3,358.4H51.2v-34.1
	h34.1V358.4z M85.3,307.2H51.2v-34.1h34.1V307.2z M136.5,460.8h-34.1v-34.1h34.1V460.8z M136.5,409.6h-34.1v-34.1h34.1V409.6z
	 M136.5,358.4h-34.1v-34.1h34.1V358.4z M136.5,307.2h-34.1v-34.1h34.1V307.2z M187.7,460.8h-34.1v-34.1h34.1L187.7,460.8
	L187.7,460.8z M187.7,409.6h-34.1v-34.1h34.1L187.7,409.6L187.7,409.6z M187.7,358.4h-34.1v-34.1h34.1L187.7,358.4L187.7,358.4z
	 M187.7,307.2h-34.1v-34.1h34.1L187.7,307.2L187.7,307.2z M238.9,460.8h-34.1v-85.3h34.1V460.8z M238.9,358.4h-34.1v-34.1h34.1
	V358.4z M238.9,307.2h-34.1v-34.1h34.1V307.2z"/>
<rect x="102.4" y="179.2" width="17.1" height="17.1"/>
<rect x="136.5" y="179.2" width="17.1" height="17.1"/>
<rect x="170.7" y="179.2" width="17.1" height="17.1"/>
<rect x="204.8" y="179.2" width="17.1" height="17.1"/>
<path d="M503.5,93.9h-25.6V68.3c0-4.7-3.8-8.5-8.5-8.5h-34.1c-4.7,0-8.5,3.8-8.5,8.5V367c0,2.3,0.9,4.4,2.5,6.1l17.1,17.1
	c3.3,3.3,8.7,3.4,12.1,0.1c0,0,0,0,0.1-0.1l17.1-17.1c1.6-1.6,2.5-3.8,2.5-6.1V111h17.1v110.9H512V102.4
	C512,97.7,508.2,93.9,503.5,93.9z M460.8,363.4l-8.5,8.5l-8.5-8.5V213.3h17.1v150.1H460.8z M460.8,196.3h-17.1V111h17.1V196.3z
	 M460.8,93.9h-17.1V76.8h17.1V93.9z"/>
</svg>
