<?xml version="1.0" encoding="utf-8"?>
<!-- Generator: Adobe Illustrator 23.1.0, SVG Export Plug-In . SVG Version: 6.00 Build 0)  -->
<svg version="1.1" id="Слой_1" xmlns="http://www.w3.org/2000/svg" xmlns:xlink="http://www.w3.org/1999/xlink" x="0px" y="0px"
	 viewBox="0 0 512 512" style="enable-background:new 0 0 512 512;" xml:space="preserve">
<style type="text/css">
	.st0{fill:#4370FF;}
	.st1{fill:#B1E4F9;}
	.st2{fill:none;}
</style>
<path class="st0" d="M24,336h288v32H24V336z"/>
<path class="st0" d="M265,448h23v-32h-33L265,448z"/>
<path class="st0" d="M71,448H48v-32h33L71,448z"/>
<path class="st1" d="M144,16h48v48h-48V16z"/>
<path class="st1" d="M129,416h78l10,32h-98L129,416z"/>
<circle class="st0" cx="160" cy="136" r="24"/>
<circle class="st0" cx="360" cy="72" r="16"/>
<circle class="st0" cx="408" cy="56" r="16"/>
<circle class="st0" cx="448" cy="88" r="16"/>
<path class="st1" d="M384,200l-16,32l-16-32h-8c-8.8,0-16,7.2-16,16v56h160v-56c0-8.8-7.2-16-16-16H384z"/>
<g>
	<path class="st2" d="M124.9,456l-10,32h106.2l-10-32H124.9z"/>
	<path class="st2" d="M101.9,376l-35,112h31.2l35-112H101.9z"/>
	<path class="st2" d="M56,424v16h9.1l5-16H56z"/>
	<path class="st2" d="M202.9,376l35,112h31.2l-35-112H202.9z"/>
	<path class="st2" d="M280,440v-16h-14.1l5,16H280z"/>
	<path class="st2" d="M152,24h32v32h-32V24z"/>
	<path class="st2" d="M80,304h176V203.3l-39.5-39.5l-74.4,89.3l-12.3-10.2l23.8-28.5l-33.1-27.6L80,227.3L80,304z M192,272h16v16
		h-16V272z M160,272h16v16h-16V272z M128,272h16v16h-16V272z"/>
	<path class="st2" d="M336,320c0,13.3,10.7,24,24,24h12.7c13.3,0,24,10.7,24,24c0,0.8,0,1.6-0.1,2.4l-9.3,93.3
		c-1.4,11.9,7,22.8,19,24.3c11.5,1,21.7-7.6,22.6-19.1c0.1-1.3,0.1-2.6,0-3.9l-9.4-94.6c-1.3-13.2,8.3-25,21.5-26.3
		c0.8-0.1,1.6-0.1,2.4-0.1H456c13.3,0,24-10.7,24-24v-8H352v-16h128v-16H336V320z"/>
	<path class="st2" d="M206.1,440l-5-16h-66.2l-5,16H206.1z"/>
	<path class="st2" d="M186.1,376h-36.2l-10,32h56.2L186.1,376z"/>
	<circle class="st2" cx="160" cy="136" r="16"/>
	<circle class="st2" cx="408" cy="56" r="8"/>
	<path class="st2" d="M411.7,24H380c-28.7,0-52,23.3-52,52s23.3,52,52,52h24c15.5,0,28,12.5,28,28c0,6.6,5.4,12,12,12
		c19.9,0,36-16.1,36-36V92.3C480,54.6,449.4,24,411.7,24z M360,96c-13.3,0-24-10.7-24-24s10.7-24,24-24s24,10.7,24,24
		S373.3,96,360,96z M408,80c-13.3,0-24-10.7-24-24s10.7-24,24-24s24,10.7,24,24S421.3,80,408,80z M472,88c0,13.3-10.7,24-24,24
		s-24-10.7-24-24s10.7-24,24-24S472,74.7,472,88z"/>
	<circle class="st2" cx="448" cy="88" r="8"/>
	<path class="st2" d="M472,208h-83.1l-13.7,27.6c-2.4,4-7.5,5.2-11.4,2.9c-1.2-0.7-2.2-1.7-2.9-2.9L347.1,208H344c-4.4,0-8,3.6-8,8
		v48h144v-48C480,211.6,476.4,208,472,208z"/>
	<circle class="st2" cx="360" cy="72" r="8"/>
</g>
<path d="M240,80H72c-4.4,0-8,3.6-8,8v224c0,4.4,3.6,8,8,8h192c4.4,0,8-3.6,8-8V88c0-4.4-3.6-8-8-8h-8v100.7l-34.3-34.3
	c-3.1-3.1-8.2-3.1-11.3,0c-0.2,0.2-0.3,0.4-0.5,0.5l-46,55.2l-38.7-32.2c-3.2-2.7-7.9-2.4-10.8,0.5L80,204.7V96h160V80z
	 M120.5,186.8l33.1,27.6l-23.7,28.5l12.3,10.2l74.4-89.3l39.4,39.5V304H80v-76.7L120.5,186.8z"/>
<path d="M24,376h8v-32h232v-16H56V88H40v240H24c-4.4,0-8,3.6-8,8v32C16,372.4,19.6,376,24,376z"/>
<path d="M312,328h-16V64c0-4.4-3.6-8-8-8h-88V16c0-4.4-3.6-8-8-8h-48c-4.4,0-8,3.6-8,8v40H48c-4.4,0-8,3.6-8,8v8h240v272h24v16H48
	v16h37.1l-10,32H48c-4.4,0-8,3.6-8,8v32c0,4.4,3.6,8,8,8h12.1l-10,32H16v16h304v-16h-34.1l-10-32H288c4.4,0,8-3.6,8-8v-32
	c0-4.4-3.6-8-8-8h-27.1l-10-32H312c4.4,0,8-3.6,8-8v-32C320,331.6,316.4,328,312,328z M184,56h-32V24h32V56z M149.9,376h36.2l10,32
	h-56.2L149.9,376z M201.1,424l5,16h-76.2l5-16H201.1z M56,440v-16h14.1l-5,16H56z M98.1,488H66.9l35-112h31.2L98.1,488z M114.9,488
	l10-32h86.2l10,32H114.9z M280,424v16h-9.1l-5-16H280z M269.1,488h-31.2l-35-112h31.2L269.1,488z"/>
<path d="M128,136c0,17.7,14.3,32,32,32s32-14.3,32-32s-14.3-32-32-32S128,118.3,128,136z M176,136c0,8.8-7.2,16-16,16s-16-7.2-16-16
	s7.2-16,16-16S176,127.2,176,136z"/>
<path d="M411.7,8H380c-37.6,0-68,30.4-68,68s30.4,68,68,68h24c6.6,0,12,5.4,12,12c0,15.5,12.5,28,28,28c28.7,0,52-23.3,52-52V92.3
	C495.9,45.8,458.2,8.1,411.7,8z M480,132c0,19.9-16.1,36-36,36c-6.6,0-12-5.4-12-12c0-15.5-12.5-28-28-28h-24c-28.7,0-52-23.3-52-52
	s23.3-52,52-52h31.7c37.7,0,68.2,30.6,68.3,68.3V132z"/>
<path d="M360,48c-13.3,0-24,10.7-24,24s10.7,24,24,24s24-10.7,24-24S373.3,48,360,48z M360,80c-4.4,0-8-3.6-8-8s3.6-8,8-8s8,3.6,8,8
	S364.4,80,360,80z"/>
<path d="M432,56c0-13.3-10.7-24-24-24s-24,10.7-24,24s10.7,24,24,24S432,69.3,432,56z M408,64c-4.4,0-8-3.6-8-8s3.6-8,8-8s8,3.6,8,8
	S412.4,64,408,64z"/>
<path d="M424,88c0,13.3,10.7,24,24,24s24-10.7,24-24s-10.7-24-24-24S424,74.7,424,88z M456,88c0,4.4-3.6,8-8,8s-8-3.6-8-8s3.6-8,8-8
	S456,83.6,456,88z"/>
<path d="M472,192h-88c-3,0-5.8,1.7-7.2,4.4l-8.8,17.7l-8.8-17.7c-1.4-2.7-4.2-4.4-7.2-4.4h-8c-13.3,0-24,10.7-24,24v104
	c0,22.1,17.9,40,40,40h12.7c4.4,0,8,3.6,8,8c0,0.3,0,0.5,0,0.8l-9.3,93.3c-2.3,20.7,12.6,39.4,33.3,41.8c0.1,0,0.2,0,0.3,0
	c20.3,1.7,38.2-13.4,39.9-33.8c0.2-2.3,0.2-4.5-0.1-6.8l-9.5-94.6c-0.4-4.4,2.8-8.3,7.2-8.8c0.3,0,0.5,0,0.8,0H456
	c22.1,0,40-17.9,40-40V216C496,202.7,485.3,192,472,192L472,192z M480,296H352v16h128v8c0,13.3-10.7,24-24,24h-12.7
	c-13.3,0-24,10.7-24,24c0,0.8,0,1.6,0.1,2.4l9.4,94.6c1.2,11.5-7.2,21.8-18.8,22.9c-1.3,0.1-2.6,0.1-3.9,0
	c-11.9-1.5-20.4-12.3-19-24.3l9.3-93.3c1.3-13.2-8.3-25-21.5-26.3c-0.8-0.1-1.6-0.1-2.4-0.1H360c-13.3,0-24-10.7-24-24v-40h144V296z
	 M480,264H336v-48c0-4.4,3.6-8,8-8h3.1l13.8,27.6c2.4,4,7.5,5.2,11.4,2.9c1.2-0.7,2.2-1.7,2.9-2.9l13.8-27.6H472c4.4,0,8,3.6,8,8
	V264z"/>
<path d="M336,488h16v16h-16V488z"/>
<path d="M128,272h16v16h-16V272z"/>
<path d="M160,272h16v16h-16V272z"/>
<path d="M192,272h16v16h-16V272z"/>
</svg>
