<svg height="512" viewBox="0 0 64 64" width="512" xmlns="http://www.w3.org/2000/svg"><g id="Bank"><path d="m32 7-23.562 13h47.125z" fill="#f1f2f2"/><path d="m19 28v3h-2v15h2v3h2v4h22v-4h2v-3h2v-15h-2v-3h-1v-4h-24v4zm11 .35v-1.35a2 2 0 0 1 4 0v1.35a5.98 5.98 0 0 1 3.643 3.607 1.512 1.512 0 0 1 -1.405 2.043 1.525 1.525 0 0 1 -1.42-1.031 3.015 3.015 0 0 0 -3.83-1.8 2.921 2.921 0 0 0 -1.819 1.82 3.013 3.013 0 0 0 2.882 4.011 5.459 5.459 0 0 1 4.874 2.392 6.117 6.117 0 0 1 -2.925 9.258v1.35a2 2 0 0 1 -4 0v-1.35a5.98 5.98 0 0 1 -3.643-3.607 1.512 1.512 0 0 1 1.405-2.043 1.525 1.525 0 0 1 1.42 1.031 3.014 3.014 0 0 0 3.791 1.813 2.924 2.924 0 0 0 1.858-1.834 3.012 3.012 0 0 0 -2.882-4.01 5.459 5.459 0 0 1 -4.874-2.392 6.117 6.117 0 0 1 2.925-9.258z" fill="#f1f2f2"/><path d="m60.1 18.5-28.1-15.5-28.095 15.5a1.751 1.751 0 0 0 -.905 1.533 1.75 1.75 0 0 0 2.6 1.532l26.4-14.565 26.405 14.568a1.75 1.75 0 0 0 2.595-1.532 1.751 1.751 0 0 0 -.9-1.536z" fill="#2488ff"/><path d="m20 28v-4h-12v4h1 10z" fill="#9bc9ff"/><path d="m19 31v-3h-10v3h2 6z" fill="#2488ff"/><path d="m21 49h-2-10-2v4h14z" fill="#9bc9ff"/><path d="m19 46h-2-6-2v3h10z" fill="#2488ff"/><path d="m17 31h-6v15h6z" fill="#d1e7f8"/><path d="m59 53h-2-14-22-14-2v4h54z" fill="#57a4ff"/><path d="m5 57h-2v4h58v-4h-2z" fill="#2488ff"/><path d="m31.949 40a3.012 3.012 0 0 1 2.883 4.01 2.924 2.924 0 0 1 -1.858 1.834 3.014 3.014 0 0 1 -3.791-1.813 1.525 1.525 0 0 0 -1.42-1.031 1.512 1.512 0 0 0 -1.405 2.043 5.98 5.98 0 0 0 3.642 3.607v1.35a2 2 0 0 0 4 0v-1.35a6.117 6.117 0 0 0 2.925-9.258 5.459 5.459 0 0 0 -4.874-2.392 3.013 3.013 0 0 1 -2.883-4.011 2.921 2.921 0 0 1 1.819-1.82 3.015 3.015 0 0 1 3.83 1.8 1.525 1.525 0 0 0 1.42 1.031 1.512 1.512 0 0 0 1.405-2.043 5.98 5.98 0 0 0 -3.642-3.607v-1.35a2 2 0 0 0 -4 0v1.35a6.117 6.117 0 0 0 -2.925 9.258 5.459 5.459 0 0 0 4.874 2.392z" fill="#ff9811"/><path d="m45 28h10 1v-4h-12v4z" fill="#9bc9ff"/><path d="m45 31h2 6 2v-3h-10z" fill="#2488ff"/><path d="m43 49v4h14v-4h-2-10z" fill="#9bc9ff"/><path d="m45 46v3h10v-3h-2-6z" fill="#2488ff"/><path d="m47 46h6v-15h-6z" fill="#d1e7f8"/><circle cx="32" cy="14" fill="#57a4ff" r="3"/><path d="m8.438 20-2.438 1.345v2.655h52v-2.655l-2.437-1.345z" fill="#a7a9ac"/><path d="m58 22v-.655l-2.437-1.345h-47.125l-2.438 1.345v.655z" fill="#d1d3d4"/><path d="m5 53h54v2h-54z" fill="#9bc9ff"/><path d="m3 57h58v2h-58z" fill="#57a4ff"/><path d="m61 56h-1v-3a1 1 0 0 0 -1-1h-1v-3a1 1 0 0 0 -1-1h-1v-2a1 1 0 0 0 -1-1h-1v-13h1a1 1 0 0 0 1-1v-2a1 1 0 0 0 1-1v-3h1a1 1 0 0 0 1-1v-1.245a2.713 2.713 0 0 0 3-2.722 2.75 2.75 0 0 0 -1.422-2.408l-28.1-15.5a.994.994 0 0 0 -.966 0l-28.09 15.5a2.755 2.755 0 0 0 1.327 5.165c.084 0 .167-.025.251-.032v1.242a1 1 0 0 0 1 1h1v3a1 1 0 0 0 1 1v2a1 1 0 0 0 1 1h1v13h-1a1 1 0 0 0 -1 1v2h-1a1 1 0 0 0 -1 1v3h-1a1 1 0 0 0 -1 1v3h-1a1 1 0 0 0 -1 1v4a1 1 0 0 0 1 1h58a1 1 0 0 0 1-1v-4a1 1 0 0 0 -1-1zm-26.78-4a2.981 2.981 0 0 0 .78-2v-.681a7.037 7.037 0 0 0 3.593-3.964 7.445 7.445 0 0 0 -.815-6.485 6.483 6.483 0 0 0 -5.744-2.87 1.961 1.961 0 0 1 -1.648-.824 2 2 0 0 1 -.27-1.869 1.922 1.922 0 0 1 1.189-1.19 2 2 0 0 1 2.573 1.2 2.5 2.5 0 1 0 4.7-1.7 6.934 6.934 0 0 0 -3.578-3.938v-.679a2.981 2.981 0 0 0 -.78-2h8.78v3a1 1 0 0 0 1 1v2a1 1 0 0 0 1 1h1v13h-1a1 1 0 0 0 -1 1v2h-1a1 1 0 0 0 -1 1v3zm-13.22-4h-1v-2a1 1 0 0 0 -1-1h-1v-13h1a1 1 0 0 0 1-1v-2a1 1 0 0 0 1-1v-3h8.78a2.981 2.981 0 0 0 -.78 2v.681a7.04 7.04 0 0 0 -3.593 3.964 7.445 7.445 0 0 0 .815 6.485 6.463 6.463 0 0 0 5.744 2.87 1.925 1.925 0 0 1 1.648.824 2 2 0 0 1 .27 1.869 1.927 1.927 0 0 1 -1.217 1.2 2.01 2.01 0 0 1 -2.545-1.207 2.5 2.5 0 1 0 -4.7 1.7 6.934 6.934 0 0 0 3.578 3.935v.679a2.981 2.981 0 0 0 .78 2h-7.78v-3a1 1 0 0 0 -1-1zm7.772-11.642a4.046 4.046 0 0 0 3.296 1.642 4.462 4.462 0 0 1 4.005 1.915 5.493 5.493 0 0 1 .637 4.768 5.008 5.008 0 0 1 -3.039 3.023 1 1 0 0 0 -.671.944v1.35a1 1 0 0 1 -2 0v-1.35a1 1 0 0 0 -.672-.944 5.014 5.014 0 0 1 -3.031-3 .538.538 0 0 1 .062-.494.484.484 0 0 1 .4-.209.534.534 0 0 1 .483.377 4.025 4.025 0 0 0 5.039 2.42 3.9 3.9 0 0 0 2.5-2.468 4.006 4.006 0 0 0 -.553-3.685 4.139 4.139 0 0 0 -3.296-1.647 4.475 4.475 0 0 1 -4-1.915 5.491 5.491 0 0 1 -.637-4.767 5.007 5.007 0 0 1 3.039-3.024 1 1 0 0 0 .666-.944v-1.35a1 1 0 0 1 2 0v1.35a1 1 0 0 0 .672.944 5.014 5.014 0 0 1 3.031 3 .538.538 0 0 1 -.062.494.484.484 0 0 1 -.4.209.532.532 0 0 1 -.482-.376 4.021 4.021 0 0 0 -5.087-2.4 3.9 3.9 0 0 0 -2.448 2.451 4.008 4.008 0 0 0 .548 3.686zm15.228 13.642h12v2h-12zm2-2v-1h8v1zm6-3h-4v-13h4zm2-15h-8v-1h8zm1-3h-10v-2h10zm-48-4v-1.065l1.694-.935h46.611l1.7.935v1.065zm5.319-4 19.681-10.858 19.68 10.858zm-7.95 1.682a.741.741 0 0 1 -.369-.649.749.749 0 0 1 .388-.657l27.612-15.234 27.612 15.235a.748.748 0 0 1 .388.659.749.749 0 0 1 -1.112.656l-26.405-14.567a1 1 0 0 0 -.966 0l-26.405 14.567a.74.74 0 0 1 -.743-.01zm14.631 4.318v2h-10v-2zm-1 4v1h-8v-1zm-6 3h4v13h-4zm-2 15h8v1h-8zm-2 3h12v2h-12zm-2 4h52v2h-52zm54 6h-56v-2h56z"/><path d="m14 33a1 1 0 0 0 -1 1v9a1 1 0 0 0 2 0v-9a1 1 0 0 0 -1-1z"/><path d="m50 44a1 1 0 0 0 1-1v-9a1 1 0 0 0 -2 0v9a1 1 0 0 0 1 1z"/><path d="m28 14a4 4 0 1 0 4-4 4 4 0 0 0 -4 4zm6 0a2 2 0 1 1 -2-2 2 2 0 0 1 2 2z"/></g></svg>