<?xml version="1.0" encoding="utf-8"?>
<!-- Generator: Adobe Illustrator 23.1.0, SVG Export Plug-In . SVG Version: 6.00 Build 0)  -->
<svg version="1.1" id="Слой_1" xmlns="http://www.w3.org/2000/svg" xmlns:xlink="http://www.w3.org/1999/xlink" x="0px" y="0px"
	 viewBox="0 0 512 512" style="enable-background:new 0 0 512 512;" xml:space="preserve">
<style type="text/css">
	.st0{fill:#419CBA;}
	.st1{fill:#3588A3;}
	.st2{fill:#5A707E;}
	.st3{fill:#E3E3E3;}
	.st4{fill:#2E748A;}
	.st5{fill:#49B0D1;}
	.st6{fill:#C7C0C1;}
	.st7{fill:#55CBF2;}
	.st8{fill:#EFE7E4;}
	.st9{fill:#86A6BD;}
	.st10{fill:#F9F6F6;}
	.st11{fill:#6F92AB;}
	.st12{fill:#D9BABC;}
	.st13{fill:#D3989B;}
	.st14{fill:#B3797B;}
	.st15{fill:#D3A9AB;}
	.st16{fill:#E4CED0;}
	.st17{fill:#F5DDDF;}
	.st18{fill:#3D4B54;}
</style>
<path class="st0" d="M504,200v224c0,5.5-0.9,10.9-2.8,16H464c-8.8,0-16,7.2-16,16v16H320v-16c0-8.8-7.2-16-16-16h-37.2
	c-1.9-5.1-2.8-10.5-2.8-16V200c0-26.5,21.5-48,48-48h144C482.5,152,504,173.5,504,200z"/>
<path class="st1" d="M504,392v32c0,5.5-0.9,10.9-2.8,16H464c-8.8,0-16,7.2-16,16v16H320v-16c0-8.8-7.2-16-16-16h-37.2
	c-1.9-5.1-2.8-10.5-2.8-16V200c0-26.5,21.5-48,48-48h24c-17.7,0-32,14.3-32,32v144c0,53,43,96,96,96h72C489.7,424,504,409.7,504,392
	z"/>
<path class="st2" d="M464,440h37.2c-6.7,19.2-24.9,32-45.2,32h-8v-16C448,447.2,455.2,440,464,440z"/>
<circle class="st2" cx="464" cy="488" r="16"/>
<path class="st0" d="M448,32v24h-40V32h-48v24h-40V16c0-4.4,3.6-8,8-8h112c4.4,0,8,3.6,8,8V32z"/>
<path class="st3" d="M416,56h24v96h-24V56z"/>
<path class="st3" d="M328,56h24v96h-24V56z"/>
<path class="st2" d="M320,456v16h-8c-20.3,0-38.5-12.8-45.2-32H304C312.8,440,320,447.2,320,456z"/>
<circle class="st2" cx="304" cy="488" r="16"/>
<path class="st4" d="M424,40c0-8.8-7.2-16-16-16h-48c-8.8,0-16,7.2-16,16c0,4.4-3.6,8-8,8h-16v8h40V32h48v24h40v-8h-16
	C427.6,48,424,44.4,424,40z"/>
<path class="st5" d="M340,8h88c2.2,0,4,1.8,4,4l0,0c0,2.2-1.8,4-4,4h-88c-2.2,0-4-1.8-4-4l0,0C336,9.8,337.8,8,340,8z"/>
<path class="st6" d="M440,56h-24v96h8V80c0-8.8,7.2-16,16-16V56z"/>
<path class="st6" d="M352,56h-24v96h8V80c0-8.8,7.2-16,16-16V56z"/>
<path class="st7" d="M480,216c-4.4,0-8-3.6-8-8v-8c0-8.8-7.2-16-16-16h-8c-4.4,0-8-3.6-8-8s3.6-8,8-8h8c17.7,0,32,14.3,32,32v8
	C488,212.4,484.4,216,480,216z"/>
<path class="st7" d="M480,248c-4.4,0-8-3.6-8-8v-8c0-4.4,3.6-8,8-8s8,3.6,8,8v8C488,244.4,484.4,248,480,248z"/>
<path class="st8" d="M296,440v8c0,17.7-14.3,32-32,32h-16v-42.2c1.2-0.7,2.3-1.6,3.3-2.6c3-3,4.7-7,4.7-11.3c0-5.7-3.1-11-8-13.8
	v-84.3c1.2-0.7,2.3-1.6,3.3-2.6c3-3,4.7-7,4.7-11.3c0-5.7-3.1-11-8-13.8V256h16c17.7,0,32,14.3,32,32V440z"/>
<path class="st2" d="M256,480l-8,24h-32l-8-24h8h32H256z"/>
<path class="st9" d="M248,437.8V480h-32v-42.2c2.4,1.4,5.2,2.2,8,2.2h16C242.8,440,245.6,439.3,248,437.8z"/>
<path class="st9" d="M248,325.8v84.3c-2.4-1.4-5.2-2.2-8-2.2h-16c-2.8,0-5.6,0.7-8,2.2v-84.3c2.4,1.4,5.2,2.2,8,2.2h16
	C242.8,328,245.6,327.3,248,325.8z"/>
<path class="st9" d="M248,256v42.2c-2.4-1.4-5.2-2.2-8-2.2h-16c-2.8,0-5.6,0.7-8,2.2V256H248z"/>
<path class="st10" d="M216,437.8V480H88v-42.2c1.2-0.7,2.3-1.6,3.3-2.6c3-3,4.7-7,4.7-11.3c0-5.7-3.1-11-8-13.8v-84.3
	c1.2-0.7,2.3-1.6,3.3-2.6c3-3,4.7-7,4.7-11.3c0-5.7-3.1-11-8-13.8V256h128v42.2c-1.2,0.7-2.3,1.6-3.3,2.6c-3,3-4.7,7-4.7,11.3
	c0,5.7,3.1,11,8,13.8v84.3c-1.2,0.7-2.3,1.6-3.3,2.6c-3,3-4.7,7-4.7,11.3C208,429.7,211.1,435,216,437.8z"/>
<path class="st2" d="M96,480l-8,24H56l-8-24h8h32H96z"/>
<path class="st11" d="M88,437.8V480H56v-42.2c2.4,1.4,5.2,2.2,8,2.2h16C82.8,440,85.6,439.3,88,437.8z"/>
<path class="st9" d="M88,325.8v84.3c-2.4-1.4-5.2-2.2-8-2.2H64c-2.8,0-5.6,0.7-8,2.2v-84.3c2.4,1.4,5.2,2.2,8,2.2h16
	C82.8,328,85.6,327.3,88,325.8z"/>
<path class="st9" d="M88,256v42.2c-2.4-1.4-5.2-2.2-8-2.2H64c-2.8,0-5.6,0.7-8,2.2V256H88z"/>
<path class="st12" d="M56,437.8V480H40c-17.7,0-32-14.3-32-32V288c0-17.7,14.3-32,32-32h16v42.2c-1.2,0.7-2.3,1.6-3.3,2.6
	c-3,3-4.7,7-4.7,11.3c0,5.7,3.1,11,8,13.8v84.3c-1.2,0.7-2.3,1.6-3.3,2.6c-3,3-4.7,7-4.7,11.3C48,429.7,51.1,435,56,437.8z"/>
<path class="st13" d="M224,256h-16v-16c0-4.4-3.6-8-8-8h-96c-4.4,0-8,3.6-8,8v16H80v-16c0-13.3,10.7-24,24-24h96
	c13.3,0,24,10.7,24,24V256z"/>
<path class="st14" d="M208,240h16v16h-16V240z"/>
<path class="st14" d="M80,240h16v16H80V240z"/>
<path class="st15" d="M272,448h-24v32h16c17.7,0,32-14.3,32-32v-24C296,437.3,285.3,448,272,448z"/>
<path class="st15" d="M90,436.3c-0.6,0.6-1.3,1.1-2,1.6V480h128v-32h-80C119.9,448,104.1,444,90,436.3z"/>
<path class="st8" d="M40,288c0-11.4,6.1-21.9,16-27.6V256H40c-17.7,0-32,14.3-32,32v160c0,17.7,14.3,32,32,32h16v-42.2
	c-4.9-2.9-8-8.1-8-13.8c0-4.2,1.7-8.3,4.7-11.3c1-1,2.1-1.9,3.3-2.6V405c-10.5-15.7-16-34.2-16-53V288z"/>
<path class="st16" d="M88,256h128v16H88V256z"/>
<path class="st16" d="M264,256h-16v16h16c17.7,0,32,14.3,32,32v-16C296,270.3,281.7,256,264,256z"/>
<path class="st17" d="M256,280h-8v16h8c8.8,0,16,7.2,16,16v8c0,4.4,3.6,8,8,8s8-3.6,8-8v-8C288,294.3,273.7,280,256,280z"/>
<g>
	<path class="st3" d="M64,296h16c8.8,0,16,7.2,16,16l0,0c0,8.8-7.2,16-16,16H64c-8.8,0-16-7.2-16-16l0,0C48,303.2,55.2,296,64,296z"
		/>
	<path class="st3" d="M224,296h16c8.8,0,16,7.2,16,16l0,0c0,8.8-7.2,16-16,16h-16c-8.8,0-16-7.2-16-16l0,0
		C208,303.2,215.2,296,224,296z"/>
	<path class="st3" d="M64,408h16c8.8,0,16,7.2,16,16l0,0c0,8.8-7.2,16-16,16H64c-8.8,0-16-7.2-16-16l0,0C48,415.2,55.2,408,64,408z"
		/>
	<path class="st3" d="M224,408h16c8.8,0,16,7.2,16,16l0,0c0,8.8-7.2,16-16,16h-16c-8.8,0-16-7.2-16-16l0,0
		C208,415.2,215.2,408,224,408z"/>
</g>
<path class="st18" d="M248,480h-40l8,24h8v-8c0-4.4,3.6-8,8-8h21.3l2.7-8H248z"/>
<path class="st18" d="M88,480H48l8,24h8v-8c0-4.4,3.6-8,8-8h21.3l2.7-8H88z"/>
<path class="st17" d="M280,360c-4.4,0-8-3.6-8-8v-8c0-4.4,3.6-8,8-8s8,3.6,8,8v8C288,356.4,284.4,360,280,360z"/>
<path d="M456,144h-8V64c4.4,0,8-3.6,8-8V16c0-8.8-7.2-16-16-16H328c-8.8,0-16,7.2-16,16v40c0,4.4,3.6,8,8,8v80h-8
	c-30.9,0-56,25.1-56,56v32h16v-32c0-22.1,17.9-40,40-40h144c22.1,0,40,17.9,40,40v224c0,2.7-0.3,5.4-0.8,8H464
	c-13.3,0-24,10.7-24,24v8H336v16h105.5c-0.9,2.6-1.4,5.3-1.5,8c0,13.3,10.7,24,24,24s24-10.7,24-24c0-5.4-1.9-10.6-5.3-14.8
	c18-9.8,29.2-28.7,29.3-49.2V200C512,169.1,486.9,144,456,144z M440,16v32h-24V32c0-4.4-3.6-8-8-8h-48c-4.4,0-8,3.6-8,8v16h-24V16
	H440z M408,144h-48V64c4.4,0,8-3.6,8-8V40h32v16c0,4.4,3.6,8,8,8V144z M336,144V64h8v80H336z M424,144V64h8v80H424z M464,496
	c-4.4,0-8-3.6-8-8s3.6-8,8-8s8,3.6,8,8S468.4,496,464,496z M456,464v-8c0-4.4,3.6-8,8-8h23.8C480.3,458,468.5,464,456,464z"/>
<path d="M304,464c-1.2,0-2.4,0.2-3.6,0.4c2.3-5.1,3.6-10.7,3.6-16.4V288c0-22.1-17.9-40-40-40h-40v-8c0-13.3-10.7-24-24-24h-96
	c-13.3,0-24,10.7-24,24v8H40c-22.1,0-40,17.9-40,40v160c0,22.1,17.9,40,40,40h2.2l6.2,18.5c1.1,3.3,4.1,5.5,7.6,5.5h32
	c3.4,0,6.5-2.2,7.6-5.5l6.2-18.5h100.5l6.2,18.5c1.1,3.3,4.1,5.5,7.6,5.5h32c3.4,0,6.5-2.2,7.6-5.5l6.2-18.5h2.2
	c5.6,0,11.2-1.2,16.4-3.6c-2,13.1,7.1,25.3,20.2,27.2s25.3-7.1,27.2-20.2s-7.1-25.3-20.2-27.2C306.4,464.1,305.2,464,304,464z
	 M240,472h-16v-24h16V472z M64,264h16v24H64V264z M80,304c4.4,0,8,3.6,8,8s-3.6,8-8,8H64c-4.4,0-8-3.6-8-8s3.6-8,8-8H80z M64,336h16
	v64H64V336z M56,424c0-4.4,3.6-8,8-8h16c4.4,0,8,3.6,8,8s-3.6,8-8,8H64C59.6,432,56,428.4,56,424z M80,448v24H64v-24H80z M96,441.8
	c9.8-8.7,10.7-23.7,2-33.5c-0.6-0.7-1.3-1.4-2-2v-76.5c9.8-8.7,10.7-23.7,2-33.5c-0.6-0.7-1.3-1.4-2-2V264h112v30.2
	c-9.8,8.7-10.7,23.7-2,33.5c0.6,0.7,1.3,1.4,2,2v76.5c-9.8,8.7-10.7,23.7-2,33.5c0.6,0.7,1.3,1.4,2,2V472H96V441.8z M224,432
	c-4.4,0-8-3.6-8-8s3.6-8,8-8h16c4.4,0,8,3.6,8,8s-3.6,8-8,8H224z M240,400h-16v-64h16V400z M248,312c0,4.4-3.6,8-8,8h-16
	c-4.4,0-8-3.6-8-8s3.6-8,8-8h16C244.4,304,248,307.6,248,312z M224,288v-24h16v24H224z M96,240c0-4.4,3.6-8,8-8h96c4.4,0,8,3.6,8,8
	v8H96V240z M16,448V288c0-13.3,10.7-24,24-24h8v30.2c-9.8,8.7-10.7,23.7-2,33.5c0.6,0.7,1.3,1.4,2,2v76.5c-9.8,8.7-10.7,23.7-2,33.5
	c0.6,0.7,1.3,1.4,2,2V472h-8C26.7,472,16,461.3,16,448L16,448L16,448z M82.2,496H61.8l-2.7-8h25.8L82.2,496z M242.2,496h-20.5
	l-2.7-8h25.8L242.2,496z M256,472v-30.2c9.8-8.7,10.7-23.7,2-33.5c-0.6-0.7-1.3-1.4-2-2v-76.5c9.8-8.7,10.7-23.7,2-33.5
	c-0.6-0.7-1.3-1.4-2-2V264h8c13.3,0,24,10.7,24,24v160c0,13.3-10.7,24-24,24L256,472z M304,496c-4.4,0-8-3.6-8-8s3.6-8,8-8
	s8,3.6,8,8S308.4,496,304,496z"/>
<path d="M312,208h16v208h-16V208z"/>
<path d="M344,208h16v208h-16V208z"/>
<path d="M440,208h16v208h-16V208z"/>
<path d="M408,208h16v208h-16V208z"/>
<path d="M376,208h16v208h-16V208z"/>
</svg>
