<svg id="Capa_1" enable-background="new 0 0 512 512" height="512" viewBox="0 0 512 512" width="512" xmlns="http://www.w3.org/2000/svg"><g><path d="m472.077 451.206h-432.154v-268.194c0-15.633 12.673-28.306 28.306-28.306h375.543c15.633 0 28.306 12.673 28.306 28.306v268.194z" fill="#756e78"/><path d="m166.201 317.956h179.599c20.329 0 36.868-16.539 36.868-36.869v-126.381h-253.336v126.381c0 20.33 16.539 36.869 36.869 36.869z" fill="#665e66"/><path d="m443.772 154.706h-16.734c15.633 0 28.306 12.673 28.306 28.306v230.51c0 12.349-10.011 22.361-22.361 22.361h-393.06v15.323h415.421 16.734v-15.323-252.87c-.001-15.634-12.674-28.307-28.306-28.307z" fill="#665e66"/><path d="m71.366 413.227v-220.542c0-2.75 2.229-4.979 4.979-4.979h359.31c2.75 0 4.978 2.229 4.978 4.979v220.543c0 2.75-2.229 4.978-4.978 4.978h-359.31c-2.75 0-4.979-2.229-4.979-4.979z" fill="#b1e4f9"/><path d="m435.655 187.706h-15.51c2.75 0 4.979 2.229 4.979 4.978v220.543c0 2.75-2.229 4.979-4.979 4.979h15.51c2.75 0 4.979-2.229 4.979-4.979v-220.542c0-2.75-2.229-4.979-4.979-4.979z" fill="#90d8f9"/><path d="m129.332 187.706v93.381c0 20.33 16.539 36.869 36.869 36.869h179.599c20.329 0 36.868-16.539 36.868-36.869v-93.381z" fill="#90d8f9"/><path d="m493.316 504.5h-474.632c-6.177 0-11.184-5.007-11.184-11.184v-30.926c0-6.177 5.007-11.184 11.184-11.184h473.989c6.532 0 11.827 5.295 11.827 11.827v30.283c0 6.177-5.007 11.184-11.184 11.184z" fill="#756e78"/><path d="m492.673 451.206h-16.176c6.532 0 11.827 5.295 11.827 11.827v30.283c0 6.177-5.007 11.184-11.184 11.184h16.176c6.177 0 11.184-5.007 11.184-11.184v-30.283c0-6.532-5.295-11.827-11.827-11.827z" fill="#665e66"/><path d="m292.705 477.853h-73.411c-3.98 0-7.548-2.453-8.974-6.169l-7.853-20.477h107.063l-7.853 20.477c-1.423 3.716-4.992 6.169-8.972 6.169z" fill="#f9f6f6"/><path d="m345.799 302.956h-179.598c-12.078 0-21.869-9.791-21.869-21.869v-251.718c0-12.078 9.791-21.869 21.869-21.869h179.598c12.078 0 21.869 9.791 21.869 21.869v251.718c0 12.078-9.791 21.869-21.869 21.869z" fill="#f9f6f6"/><path d="m345.799 7.5h-20.11c12.078 0 21.869 9.791 21.869 21.869v251.718c0 12.078-9.791 21.869-21.869 21.869h20.11c12.078 0 21.869-9.791 21.869-21.869v-251.718c0-12.078-9.791-21.869-21.869-21.869z" fill="#efe7e4"/><path d="m367.668 63.187h-223.336v-33.818c0-12.078 9.791-21.869 21.869-21.869h179.598c12.078 0 21.869 9.791 21.869 21.869z" fill="#4a81f6"/><path d="m345.799 7.5h-20.11c12.078 0 21.869 9.791 21.869 21.869v33.818h20.11v-33.818c0-12.078-9.791-21.869-21.869-21.869z" fill="#4070f6"/><g><path d="m492.674 443.706h-13.096v-260.694c0-19.743-16.063-35.806-35.806-35.806h-68.604v-117.838c0-16.193-13.175-29.368-29.368-29.368h-179.599c-16.194 0-29.369 13.175-29.369 29.368v33.809.01s0 .006 0 .01v84.01h-68.604c-19.743 0-35.806 16.063-35.806 35.806v260.694h-13.738c-10.302-.001-18.684 8.381-18.684 18.683v30.926c0 10.302 8.382 18.684 18.684 18.684h222.323c4.142 0 7.5-3.357 7.5-7.5s-3.358-7.5-7.5-7.5h-222.323c-2.031 0-3.684-1.653-3.684-3.685v-30.925c0-2.031 1.652-3.684 3.684-3.684h178.628l6.007 15.663c2.52 6.569 8.94 10.983 15.976 10.983h73.411c7.035 0 13.455-4.413 15.977-10.983l6.006-15.663h177.985c2.386 0 4.326 1.94 4.326 4.326v30.283c0 2.031-1.652 3.685-3.684 3.685h-222.322c-4.143 0-7.5 3.357-7.5 7.5s3.357 7.5 7.5 7.5h222.322c10.302 0 18.684-8.382 18.684-18.685v-30.283c0-10.656-8.67-19.326-19.326-19.326zm-326.473-428.706h179.599c7.923 0 14.368 6.445 14.368 14.368v26.318h-142.706c-4.142 0-7.5 3.357-7.5 7.5s3.358 7.5 7.5 7.5h142.706v210.4c0 7.923-6.445 14.369-14.368 14.369h-179.599c-7.923 0-14.369-6.446-14.369-14.369v-210.4h35.643c4.142 0 7.5-3.357 7.5-7.5s-3.358-7.5-7.5-7.5h-35.643v-26.318c0-7.923 6.446-14.368 14.369-14.368zm128.476 453.997c-.312.811-1.104 1.355-1.972 1.355h-73.411c-.868 0-1.66-.545-1.971-1.354l-3.947-10.292h85.247zm-247.254-25.291v-260.694c0-11.473 9.333-20.806 20.806-20.806h68.604v18h-60.488c-6.881 0-12.479 5.598-12.479 12.479v220.542c0 6.881 5.598 12.479 12.479 12.479h359.31c6.881 0 12.479-5.598 12.479-12.479v-119.34c0-4.143-3.357-7.5-7.5-7.5s-7.5 3.357-7.5 7.5v116.818h-354.268v-215.499h57.966v85.881c0 16.194 13.175 29.369 29.369 29.369h179.599c16.193 0 29.368-13.175 29.368-29.369v-85.881h57.966v68.693c0 4.143 3.357 7.5 7.5 7.5s7.5-3.357 7.5-7.5v-71.215c0-6.881-5.598-12.479-12.479-12.479h-60.487v-18h68.604c11.473 0 20.806 9.333 20.806 20.806v260.694c-26.826.001-390.566.001-417.155.001z"/><path d="m184.071 114.277c0 4.143 3.358 7.5 7.5 7.5h128.858c4.143 0 7.5-3.357 7.5-7.5s-3.357-7.5-7.5-7.5h-128.858c-4.142 0-7.5 3.358-7.5 7.5z"/><path d="m320.429 152.57h-128.858c-4.142 0-7.5 3.357-7.5 7.5s3.358 7.5 7.5 7.5h128.858c4.143 0 7.5-3.357 7.5-7.5s-3.357-7.5-7.5-7.5z"/><path d="m320.429 198.363h-128.858c-4.142 0-7.5 3.357-7.5 7.5s3.358 7.5 7.5 7.5h128.858c4.143 0 7.5-3.357 7.5-7.5s-3.357-7.5-7.5-7.5z"/><path d="m320.429 244.155h-128.858c-4.142 0-7.5 3.357-7.5 7.5s3.358 7.5 7.5 7.5h128.858c4.143 0 7.5-3.357 7.5-7.5s-3.357-7.5-7.5-7.5z"/></g></g></svg>