<?xml version="1.0" encoding="utf-8"?>
<!-- Generator: Adobe Illustrator 23.1.0, SVG Export Plug-In . SVG Version: 6.00 Build 0)  -->
<svg version="1.1" id="Capa_1" xmlns="http://www.w3.org/2000/svg" xmlns:xlink="http://www.w3.org/1999/xlink" x="0px" y="0px"
	 viewBox="0 0 512 512" style="enable-background:new 0 0 512 512;" xml:space="preserve">
<style type="text/css">
	.st0{fill-rule:evenodd;clip-rule:evenodd;fill:#4A81F6;}
	.st1{fill-rule:evenodd;clip-rule:evenodd;fill:#F8F2F0;}
	.st2{fill-rule:evenodd;clip-rule:evenodd;fill:#FB2A39;}
	.st3{fill-rule:evenodd;clip-rule:evenodd;fill:#B1E4F9;}
	.st4{fill-rule:evenodd;clip-rule:evenodd;fill:#EEE1DC;}
	.st5{fill-rule:evenodd;clip-rule:evenodd;fill:#E41E2B;}
	.st6{fill-rule:evenodd;clip-rule:evenodd;fill:#90D8F9;}
	.st7{fill-rule:evenodd;clip-rule:evenodd;fill:#4070F6;}
</style>
<g>
	<path class="st0" d="M198.8,7.5c-44.1,0-80.1,36.1-80.1,80.1v37.9h63.7V87.6c0-5.8,3.2-11,7.9-13.9c2.8-1.9,6-3,9.3-3
		c38.2,0,76.4,0.5,114.4,0c8.9,0,15.6,8,15.6,16.9v37.9h26h37.7V87.6c0-44.1-36.1-80.1-80.1-80.1L198.8,7.5z"/>
</g>
<g>
	<path class="st1" d="M458.2,345c0-55.8-22.6-106.4-59.2-142.9c-7.2-7.2-5.7-5.4-5.7-15.8v-82.4h-63.8v44.7c0,5.2,0.8,8.1-8,5.1
		c-20.6-7-42.6-10.9-65.5-10.9c-22.9,0-45,3.8-65.5,10.9c-8.8,3-8,0-8-5.1v-44.7h-63.7v82.4c0,10.4,1.5,8.6-5.7,15.8
		C76.4,238.6,53.8,289.1,53.8,345c70,0,207.2,58.5,207.2,58.5S388.2,345,458.2,345L458.2,345z"/>
</g>
<g>
	<path class="st0" d="M67.3,417.9c8,20.6,19.2,39.6,33.1,56.3c24.1,28.9,27.2,30.3,63.3,30.3h184.5c36.1,0,39.2-1.4,63.3-30.3
		c13.9-16.7,25.2-35.7,33.1-56.3l-192.1-62.2L67.3,417.9z"/>
</g>
<g>
	<path class="st2" d="M53.8,345c0,25.7,4.8,50.3,13.5,72.9h96.9c-14.7-20.6-23.4-45.7-23.4-72.9H53.8z"/>
</g>
<g>
	<path class="st2" d="M371.5,345c0,27.2-8.6,52.3-23.4,72.9h96.5c8.8-22.6,13.5-47.2,13.5-72.9H371.5z"/>
</g>
<g>
	<path class="st3" d="M256.2,470.3c69,0,125.3-56.3,125.3-125.3s-56.3-125.3-125.3-125.3S130.8,275.9,130.8,345
		S187.2,470.3,256.2,470.3z"/>
</g>
<g>
	<path class="st4" d="M361.3,201.6c36.6,36.6,59.2,87.1,59.2,142.9v0.5h37.7c0-55.8-22.6-106.4-59.2-142.9
		c-7.2-7.2-5.7-5.4-5.7-15.8v-82.4h-37.7v81.9C355.6,196.2,354.1,194.4,361.3,201.6z"/>
</g>
<g>
	<path class="st5" d="M420.4,345c-0.1,25.7-4.9,50.3-13.7,72.9h37.9c8.8-22.6,13.5-47.2,13.5-72.9H420.4z"/>
</g>
<g>
	<path class="st6" d="M242.4,220.4c62.7,6.9,111.5,60,111.5,124.6c0,27.2-8.7,52.3-23.4,72.9c-20.2,28.2-51.9,47.7-88.2,51.7
		c4.5,0.5,9.1,0.8,13.8,0.8c42.1,0,79.3-20.7,102-52.5c14.7-20.6,23.4-45.7,23.4-72.9c0-69.2-56.1-125.3-125.3-125.3
		C251.5,219.6,246.9,219.9,242.4,220.4L242.4,220.4z"/>
</g>
<g>
	<path class="st7" d="M284.3,7.5c39.9,4.4,71.3,38.6,71.3,79.7v16.7h37.7V87.6c0-44.1-36.1-80.1-80.1-80.1H284.3z"/>
</g>
<g>
	<path class="st7" d="M406.7,417.9c-8,20.4-19.2,39.2-33,55.8c-11.7,14-18.4,24.1-26.4,30.8h0.9c36.1,0,39.2-1.4,63.3-30.3
		c13.9-16.7,25.2-35.7,33.1-56.3L406.7,417.9z"/>
</g>
<g>
	<path d="M279.4,385.4h17c14.3,0,23.9-9.4,23.9-23.5v-5.6c0-12.2-8.7-20.7-21.2-20.7h-4.5c-4.1,0-7.5,3.4-7.5,7.5s3.4,7.5,7.5,7.5
		h4.5c2.9,0,6.2,0.6,6.2,5.7v5.6c0,2.1,0,8.5-8.9,8.5h-17c-5.6,0-6-6-6-6.1v-36.2c0-5.3,2.8-8.6,7.3-8.6H307c4.1,0,7.5-3.4,7.5-7.5
		s-3.4-7.5-7.5-7.5h-26.3c-12.9,0-22.3,9.9-22.3,23.6v36.2C258.4,372.8,265.1,385.4,279.4,385.4z"/>
	<path d="M199.5,385.4c4.1,0,7.5-3.4,7.5-7.5v-23.7l25.4,27.8c1.5,1.6,3.5,2.4,5.5,2.4c1.8,0,3.6-0.6,5.1-2
		c3.1-2.8,3.3-7.5,0.5-10.6l-24.7-27.1l24.7-27.9c2.8-3.1,2.5-7.8-0.6-10.6c-3.1-2.7-7.8-2.5-10.6,0.6L207,335.6V312
		c0-4.1-3.4-7.5-7.5-7.5s-7.5,3.4-7.5,7.5v65.9C192,382,195.4,385.4,199.5,385.4L199.5,385.4z"/>
	<path d="M404.3,196.7l-0.6-0.6c-1.2-1.2-2.5-2.5-3-3.1c0-0.5,0-1.4,0-2.2c0-1.2,0.1-2.7,0.1-4.6V87.6c0-48.3-39.3-87.6-87.6-87.6
		H198.8c-48.3,0-87.6,39.3-87.6,87.6v98.6c0,1.2,0,2.4,0.1,3.6c0,0.9,0.3,2.2,0.1,3.1c-0.2,0.8-1.4,1.6-2,2.2
		c-0.5,0.5-1.1,1.1-1.6,1.6c-11,11-20.9,23.3-29.2,36.5c-2.2,3.5-1.2,8.1,2.3,10.3c3.5,2.2,8.1,1.2,10.3-2.3
		c7.8-12.3,16.9-23.7,27.1-34c2.3-2.3,4.9-4.6,6.4-7.5c1.6-2.9,1.6-6.2,1.5-9.4c0-1.1-0.1-2.5-0.1-4.1v-74.9h48.7v37.2
		c0,3.9,0,8,2.9,11c4.1,4.1,10.1,3,15,1.3c20.3-7,41.5-10.5,63.1-10.5c21.6,0,42.8,3.5,63.1,10.5c4.8,1.6,10.5,2.8,14.7-1
		c3.3-3,3.2-7.2,3.2-11.3v-37.2h48.8v74.9c0,1.7,0,3-0.1,4.2c-0.2,8,1,10,7.4,16.4l0.6,0.6c35,35,55,81,56.8,130.1h-61.7
		c-3.9-69.8-61.9-125.3-132.6-125.3c-70.7,0-128.7,55.6-132.6,125.3H61.5c0.9-23,5.7-45.3,14.4-66.5c1.6-3.8-0.3-8.2-4.1-9.8
		c-3.8-1.6-8.2,0.3-9.8,4.1c-10.4,25.3-15.7,52.1-15.7,79.7c0,48.9,17.2,96.5,48.4,134c25.4,30.6,30.6,33,69.1,33h184.5
		c38.5,0,43.6-2.5,69-33c31.2-37.5,48.4-85.1,48.4-134C465.7,289,443.9,236.4,404.3,196.7L404.3,196.7z M337.1,96.3v-8.7
		c0-13.5-10.4-24.4-23.2-24.4l-42.3,0.5c-4.1,0-7.5,3.4-7.4,7.6c0,4.1,3.4,7.4,7.5,7.4c0,0,0.1,0,0.1,0l42.2-0.5
		c4.9,0,8.1,4.9,8.1,9.4v58.3c-21.3-7.1-43.5-10.7-66.1-10.7c-22.6,0-44.8,3.6-66.1,10.7V87.6c0-4.7,4.9-9.4,9.7-9.4l38,0
		c4.1,0,7.5-3.4,7.5-7.5c0-4.1-3.4-7.5-7.5-7.5c0,0,0,0,0,0l-38,0c-13.2,0-24.7,11.4-24.7,24.4v8.7h-48.7v-8.7
		c0-40.1,32.6-72.6,72.6-72.6h114.4c40.1,0,72.6,32.6,72.6,72.6v8.7L337.1,96.3z M256.2,227.1c65,0,117.8,52.9,117.8,117.8
		s-52.9,117.8-117.8,117.8S138.3,410,138.3,345S191.2,227.1,256.2,227.1z M61.5,352.5h62.1c1.2,20.9,7.2,40.6,17,57.9h-68
		C66,391.8,62.2,372.3,61.5,352.5z M405.7,469.4c-22.5,27.1-23.6,27.6-57.5,27.6H163.8c-33.9,0-35-0.5-57.5-27.6
		c-11.2-13.4-20.4-28.3-27.5-44h71.8c24.3,31.9,62.6,52.5,105.7,52.5c43.1,0,81.4-20.6,105.7-52.5h71.4
		C426.2,441.1,416.9,455.9,405.7,469.4z M371.8,410.4c9.8-17.3,15.9-36.9,17-57.9h61.7c-0.8,19.8-4.6,39.4-11.2,57.9H371.8z"/>
</g>
</svg>
