<?xml version="1.0" encoding="utf-8"?>
<!-- Generator: Adobe Illustrator 23.1.0, SVG Export Plug-In . SVG Version: 6.00 Build 0)  -->
<svg version="1.1" id="Слой_1" xmlns="http://www.w3.org/2000/svg" xmlns:xlink="http://www.w3.org/1999/xlink" x="0px" y="0px"
	 viewBox="0 0 512 512" style="enable-background:new 0 0 512 512;" xml:space="preserve">
<style type="text/css">
	.st0{fill:#B1E4F9;}
	.st1{fill:#90D8F9;}
	.st2{fill:#756E78;}
	.st3{fill:#FF5722;}
	.st4{fill:#F9F6F6;}
	.st5{fill:#EFE7E4;}
	.st6{fill:#4A81F6;}
	.st7{fill:#4070F6;}
	.st8{fill:#37474F;}
	.st9{fill:#02A9F4;}
	.st10{fill:#0377BC;}
</style>
<path id="Shape" class="st0" d="M113.3,235v151.1c0,9.3-7.5,16.8-16.8,16.8h-42c-4.6,0-8.4-3.8-8.4-8.4V226.6c0-4.6,3.8-8.4,8.4-8.4
	h42C105.8,218.2,113.3,225.7,113.3,235z"/>
<path class="st1" d="M96.5,218.2H71.3c9.3,0,16.8,7.5,16.8,16.8v151.1c0,9.3-7.5,16.8-16.8,16.8h25.2c9.3,0,16.8-7.5,16.8-16.8V235
	C113.3,225.7,105.8,218.2,96.5,218.2z"/>
<path class="st2" d="M46.2,243.4v134.3H29.4c-9.3,0-16.8-7.5-16.8-16.8V260.2c0-9.3,7.5-16.8,16.8-16.8H46.2z"/>
<path class="st0" d="M465.8,226.6v167.9c0,4.6-3.8,8.4-8.4,8.4h-42c-9.3,0-16.8-7.5-16.8-16.8V235c0-9.3,7.5-16.8,16.8-16.8h42
	C462.1,218.2,465.8,222,465.8,226.6z"/>
<path class="st1" d="M457.4,218.2h-25.2c4.6,0,8.4,3.8,8.4,8.4v167.9c0,4.6-3.8,8.4-8.4,8.4h25.2c4.6,0,8.4-3.8,8.4-8.4V226.6
	C465.8,222,462.1,218.2,457.4,218.2z"/>
<path class="st2" d="M499.4,260.2v100.7c0,9.3-7.5,16.8-16.8,16.8h-16.8V243.4h16.8C491.9,243.4,499.4,250.9,499.4,260.2z"/>
<path class="st3" d="M457.4,218.2h-33.6c0-92.7-75.2-167.9-167.9-167.9S88.1,125.5,88.1,218.2H54.6C54.6,107,144.7,16.8,256,16.8
	S457.4,107,457.4,218.2z"/>
<path class="st4" d="M331.5,344.1v8.4c0,35.3-24.4,65.9-58.8,73.7c-11.1,2.5-22.5,2.5-33.6,0c-34.4-7.8-58.8-38.4-58.8-73.7l0-8.4
	H331.5z"/>
<path class="st5" d="M306.4,344.1v8.4c0,35.3-24.4,65.9-58.8,73.7c-1.4,0.3-2.8,0.5-4.2,0.7c9.7,1.8,19.7,1.5,29.4-0.7
	c34.4-7.8,58.8-38.4,58.8-73.7v-8.4H306.4z"/>
<path class="st6" d="M331.5,235v109.1H180.5V235c0-41.7,33.8-75.5,75.5-75.5S331.5,193.3,331.5,235z"/>
<path class="st7" d="M309.4,181.6c-14.2-14.2-33.4-22.1-53.4-22.2c-4.2,0-8.4,0.4-12.6,1.2c36.3,6.1,62.9,37.5,63,74.4v109.1h25.2
	V235C331.5,215,323.6,195.8,309.4,181.6z"/>
<path class="st8" d="M272.8,426.2V470h-33.6v-43.8C250.3,428.7,261.7,428.7,272.8,426.2z"/>
<path class="st9" d="M331.5,486.8v16.8H180.5v-16.8c0-9.3,7.5-16.8,16.8-16.8h117.5C324,470,331.5,477.5,331.5,486.8z"/>
<path class="st10" d="M314.8,470h-25.2c9.3,0,16.8,7.5,16.8,16.8v16.8h25.2v-16.8C331.5,477.5,324,470,314.8,470z"/>
<g>
	<path d="M482.6,235h-8.4v-8.4c0-6-3.2-11.5-8.4-14.5C465.8,96.2,371.9,2.3,256,2.3S46.2,96.2,46.2,212.1c-5.2,3-8.4,8.5-8.4,14.5
		v8.4h-8.4c-13.9,0-25.2,11.3-25.2,25.2v100.7c0,13.9,11.3,25.2,25.2,25.2h8.4v8.4c0,9.3,7.5,16.8,16.8,16.8h42
		c13.9,0,25.2-11.3,25.2-25.2V235c0-13.7-11-25-24.8-25.2c4.4-84.8,74.4-151.3,159.3-151.3s154.9,66.5,159.3,151.3
		c-13.9,0-25.2,11.3-25.2,25.2v151.1c0,13.9,11.3,25.2,25.2,25.2h42c9.3,0,16.8-7.5,16.8-16.8v-8.4h8.4c13.9,0,25.2-11.3,25.2-25.2
		V260.2C507.8,246.3,496.5,235,482.6,235z M29.4,369.3c-4.6,0-8.4-3.8-8.4-8.4V260.2c0-4.6,3.8-8.4,8.4-8.4h8.4v117.5H29.4z
		 M104.9,235v151.1c0,4.6-3.8,8.4-8.4,8.4h-42V226.6h42C101.2,226.6,104.9,230.4,104.9,235z M256,42c-94,0.1-171.4,74-175.8,167.9
		H63c0-106.6,86.4-193,193-193s193,86.4,193,193h-16.8C427.8,115.8,350.2,41.9,256,42z M457.4,394.5h-42c-4.6,0-8.4-3.8-8.4-8.4V235
		c0-4.6,3.8-8.4,8.4-8.4h42V394.5z M491,360.9c0,4.6-3.8,8.4-8.4,8.4h-8.4V251.8h8.4c4.6,0,8.4,3.8,8.4,8.4V360.9z"/>
	<path d="M365.5,152.2c2,0,3.9-0.7,5.4-1.9c1.7-1.4,2.8-3.5,3-5.7c0.2-2.2-0.5-4.4-1.9-6.1c-28.7-34.4-71.2-54.3-116-54.3
		s-87.3,19.9-116,54.3c-3,3.6-2.5,8.9,1.1,11.8s8.9,2.5,11.8-1.1c25.5-30.5,63.3-48.2,103.1-48.2s77.6,17.7,103.1,48.2
		C360.7,151.1,363,152.2,365.5,152.2L365.5,152.2z"/>
	<path d="M347.5,175.1c3.7-2.8,4.3-8.1,1.5-11.8c-22.3-28.8-56.6-45.7-93-45.7s-70.7,16.9-93,45.7c-2.5,3.7-1.7,8.6,1.8,11.4
		c3.5,2.7,8.5,2.2,11.4-1.1c19.1-24.7,48.5-39.2,79.7-39.2s60.7,14.5,79.7,39.2c1.6,2.1,4,3.3,6.6,3.3
		C344.2,176.8,346,176.2,347.5,175.1z"/>
	<path d="M339.9,352.5V235c0-46.4-37.6-83.9-83.9-83.9s-83.9,37.6-83.9,83.9v117.5c0,36.7,23.8,69.1,58.8,80.1v29h-33.6
		c-13.9,0-25.2,11.3-25.2,25.2v16.8c0,4.6,3.8,8.4,8.4,8.4h151.1c4.6,0,8.4-3.8,8.4-8.4v-16.8c0-13.9-11.3-25.2-25.2-25.2h-33.6v-29
		C316.1,421.6,339.9,389.2,339.9,352.5z M256,167.9c37.1,0,67.1,30.1,67.1,67.1h-42c-4.6,0-8.4,3.8-8.4,8.4c0,4.6,3.8,8.4,8.4,8.4
		h42v16.8h-42c-4.6,0-8.4,3.8-8.4,8.4c0,4.6,3.8,8.4,8.4,8.4h42v16.8h-42c-4.6,0-8.4,3.8-8.4,8.4s3.8,8.4,8.4,8.4h42v16.8H188.9V319
		h42c4.6,0,8.4-3.8,8.4-8.4s-3.8-8.4-8.4-8.4h-42v-16.8h42c4.6,0,8.4-3.8,8.4-8.4c0-4.6-3.8-8.4-8.4-8.4h-42v-16.8h42
		c4.6,0,8.4-3.8,8.4-8.4c0-4.6-3.8-8.4-8.4-8.4h-42C188.9,197.9,218.9,167.9,256,167.9z M188.9,352.5h134.3
		c0,37.1-30.1,67.1-67.1,67.1S188.9,389.6,188.9,352.5z M323.1,486.8v8.4H188.9v-8.4c0-4.6,3.8-8.4,8.4-8.4h117.5
		C319.4,478.4,323.1,482.2,323.1,486.8z M264.4,461.6h-16.8v-25.2h8.4h8.4V461.6z"/>
</g>
</svg>
