<?xml version="1.0" encoding="utf-8"?>
<!-- Generator: Adobe Illustrator 23.1.0, SVG Export Plug-In . SVG Version: 6.00 Build 0)  -->
<svg version="1.1" id="Слой_1" xmlns="http://www.w3.org/2000/svg" xmlns:xlink="http://www.w3.org/1999/xlink" x="0px" y="0px"
	 viewBox="0 0 512 512" style="enable-background:new 0 0 512 512;" xml:space="preserve">
<style type="text/css">
	.st0{fill:#EFE7E4;}
	.st1{fill:#B39A7C;}
	.st2{fill:#FFEB99;}
	.st3{fill:#E0E0E2;}
	.st4{fill:#C6C5CA;}
	.st5{fill:#FFCD00;}
	.st6{fill:#EBE5DD;}
	.st7{fill:#57A4FF;}
	.st8{fill:#B1E4F9;}
	.st9{fill:#90D8F9;}
</style>
<path class="st0" d="M488,168v320H24V168L256,24L488,168z"/>
<path class="st1" d="M488,168v320h-16V168L248,29l8-5L488,168z"/>
<path class="st2" d="M456,184v32h-16H72H56v-32H456z"/>
<path class="st3" d="M72,216h368v272H72V216z"/>
<path class="st4" d="M424,216h16v272h-16V216z"/>
<path class="st5" d="M440,184h16v32h-16V184z"/>
<path class="st6" d="M440,376v112H312V376h32v24v24l32,16l32-16v-24v-24H440z"/>
<path class="st7" d="M392,229.5v21c0,7.8-5.7,14.5-13.4,15.8l-13.8,2.3c-5.5,0.8-10.1,4.5-12.1,9.7c-0.4,1-0.9,2.1-1.3,3.1
	c-2.2,5.1-1.6,10.9,1.7,15.4l8.2,11.4c4.6,6.4,3.8,15.1-1.8,20.6l-14.7,14.7c-5.5,5.6-14.3,6.3-20.6,1.8l-11.4-8.2
	c-4.5-3.2-10.4-3.9-15.4-1.7c-1,0.4-2.1,0.9-3.1,1.3c-5.2,2-8.8,6.6-9.7,12.1l-2.3,13.8c-1.3,7.7-8,13.3-15.8,13.4h-21
	c-7.8,0-14.5-5.7-15.8-13.4l-2.3-13.8c-0.8-5.5-4.5-10.1-9.7-12.1c-1-0.4-2.1-0.9-3.1-1.3c-5.1-2.2-10.9-1.6-15.4,1.7l-11.4,8.2
	c-6.4,4.6-15.1,3.8-20.6-1.8l-14.7-14.7c-5.6-5.5-6.3-14.3-1.8-20.6l8.2-11.4c3.2-4.5,3.9-10.4,1.7-15.4c-0.4-1-0.9-2.1-1.3-3.1
	c-2-5.2-6.6-8.8-12.1-9.7l-13.8-2.3c-7.7-1.3-13.3-8-13.4-15.8v-21c0-5.5,2.8-10.6,7.5-13.5c1.8-1.2,3.8-1.9,5.8-2.2l13.8-2.3
	c5.5-0.8,10.1-4.5,12.1-9.7c0.4-1,0.9-2.1,1.3-3.1c2.1-4.8,1.6-10.3-1.2-14.6c-0.1-0.3-0.3-0.5-0.5-0.8l-8.2-11.4
	c-4.6-6.4-3.8-15.1,1.8-20.6l14.7-14.7c5.5-5.6,14.3-6.3,20.6-1.8l11.4,8.2c4.5,3.2,10.4,3.9,15.4,1.7c1-0.4,2.1-0.9,3.1-1.3
	c5.2-2,8.8-6.6,9.7-12.1l2.3-13.8c1.3-7.7,8-13.3,15.8-13.4h21c7.8,0,14.5,5.7,15.8,13.4l2.3,13.8c0.8,5.5,4.5,10.1,9.7,12.1
	c1,0.4,2.1,0.9,3.1,1.3c5.1,2.2,10.9,1.6,15.4-1.7l11.4-8.2c6.4-4.6,15.1-3.8,20.6,1.8l14.7,14.7c5.6,5.5,6.3,14.3,1.8,20.6
	l-8.2,11.4c-0.2,0.3-0.3,0.5-0.5,0.8c-2.8,4.4-3.3,9.9-1.2,14.6c0.4,1,0.9,2.1,1.3,3.1c2,5.2,6.6,8.8,12.1,9.7l13.8,2.3
	c2.1,0.3,4.1,1.1,5.8,2.2C389.2,218.9,392,224,392,229.5L392,229.5z"/>
<circle class="st8" cx="256" cy="240" r="64"/>
<path class="st9" d="M320,240c0,35.3-28.7,64-64,64c-2.7,0-5.3-0.2-8-0.5c35.1-4.3,60-36.3,55.7-71.3c-3.6-29.1-26.6-52.1-55.7-55.7
	c2.7-0.3,5.3-0.5,8-0.5C291.3,176,320,204.7,320,240L320,240z"/>
<path class="st6" d="M200,376v112H72V376h32v24v24l32,16l32-16v-24v-24H200z"/>
<path class="st8" d="M344,376v24v24l32,16l32-16v-24v-24H344z"/>
<path class="st8" d="M104,400v24l32,16l32-16v-24v-24h-64V400z"/>
<path d="M492.2,161.2l-232-144c-2.6-1.6-5.8-1.6-8.4,0l-232,144c-2.4,1.5-3.8,4-3.8,6.8v320c0,4.4,3.6,8,8,8h464c4.4,0,8-3.6,8-8
	V168C496,165.2,494.6,162.7,492.2,161.2z M352,384h48v35.1l-24,12l-24-12V384z M340.4,431.2l32,16c2.3,1.1,4.9,1.1,7.2,0l32-16
	c2.7-1.4,4.4-4.2,4.4-7.2v-40h16v96H320v-96h16v40C336,427,337.7,429.8,340.4,431.2L340.4,431.2z M386.4,208c-2-1-4.2-1.7-6.4-2.1
	l-13.8-2.3c-2.7-0.4-5-2.2-6-4.7c-0.5-1.1-0.9-2.3-1.4-3.4c-0.5-1.1-0.7-2.3-0.6-3.4H448v16H386.4z M354.8,167.2l-8.1,11.4
	c-4.8,6.8-5.8,15.5-2.6,23.2c0.4,1,0.8,1.9,1.2,2.9c3.1,7.7,10,13.3,18.2,14.6l13.8,2.3c3.9,0.6,6.7,4,6.7,7.9v20.9
	c0,3.9-2.8,7.2-6.7,7.9l-13.8,2.3c-8.2,1.4-15.1,6.9-18.2,14.6c-0.4,1-0.8,2-1.2,2.9c-3.2,7.7-2.3,16.4,2.6,23.2l8.1,11.4
	c2.3,3.2,1.9,7.5-0.8,10.3l-14.8,14.8c-2.8,2.8-7.1,3.1-10.3,0.9l-11.4-8.1c-6.8-4.8-15.5-5.8-23.2-2.6c-1,0.4-2,0.8-2.9,1.2
	c-7.7,3.1-13.3,10-14.6,18.2l-2.3,13.8c-0.6,3.9-4,6.7-7.9,6.7h-20.9c-3.9,0-7.2-2.8-7.9-6.7l-2.3-13.8c-1.4-8.2-6.9-15.1-14.6-18.2
	c-1-0.4-2-0.8-2.9-1.2c-2.9-1.3-6.1-1.9-9.3-1.9c-5,0-9.9,1.6-13.9,4.5l-11.4,8.1c-3.2,2.3-7.5,1.9-10.3-0.9l-14.8-14.8
	c-2.8-2.8-3.1-7.1-0.8-10.3l8.1-11.4c4.8-6.8,5.8-15.5,2.6-23.2c-0.4-1-0.8-1.9-1.2-2.9c-3.1-7.7-10-13.3-18.2-14.6l-13.8-2.3
	c-3.9-0.6-6.7-4-6.7-7.9v-20.9c0-3.9,2.8-7.2,6.7-7.9l13.8-2.3c8.2-1.4,15.1-6.9,18.2-14.6c0.4-1,0.8-2,1.2-2.9
	c3.2-7.7,2.3-16.4-2.6-23.2l-8.1-11.4c-2.3-3.2-1.9-7.5,0.8-10.3l14.8-14.8c2.8-2.8,7.1-3.1,10.3-0.9l11.4,8.1
	c6.8,4.8,15.5,5.8,23.2,2.6c1-0.4,2-0.8,2.9-1.2c7.7-3.1,13.3-10,14.6-18.2l2.3-13.8c0.6-3.9,4-6.7,7.9-6.7h20.9
	c3.9,0,7.2,2.8,7.9,6.7l2.3,13.8c1.4,8.2,6.9,15.1,14.6,18.2c1,0.4,2,0.8,2.9,1.2c7.7,3.2,16.4,2.3,23.2-2.6l11.4-8.1
	c3.2-2.3,7.5-1.9,10.3,0.9l14.8,14.8C356.7,159.6,357,164,354.8,167.2L354.8,167.2z M153.8,192c0.1,1.2-0.1,2.3-0.5,3.4
	c-0.5,1.1-1,2.3-1.4,3.4c-1,2.5-3.3,4.3-6,4.7l-13.8,2.3c-2.2,0.4-4.4,1.1-6.4,2.1H64v-16H153.8z M112.7,224
	c-0.5,1.8-0.7,3.7-0.7,5.6v20.9c0,11.7,8.5,21.8,20,23.7l13.8,2.3c2.7,0.4,5,2.2,6,4.7c0.5,1.1,0.9,2.3,1.4,3.4
	c1,2.5,0.7,5.4-0.9,7.6l-8.1,11.4c-6.9,9.5-5.8,22.6,2.6,30.9l14.8,14.8c8.3,8.3,21.4,9.4,30.9,2.6l11.4-8.1
	c2.2-1.6,5.1-1.9,7.6-0.9c1.1,0.5,2.3,1,3.4,1.4c2.5,1,4.3,3.3,4.7,6l2.3,13.8c1.9,11.6,11.9,20.1,23.6,20.1h20.9
	c11.7,0,21.8-8.5,23.7-20.1l2.3-13.8c0.4-2.7,2.2-5,4.7-6c1.2-0.5,2.3-0.9,3.4-1.4c2.5-1,5.4-0.7,7.6,0.9l11.4,8.1
	c9.5,6.9,22.6,5.8,30.9-2.6l14.8-14.8c8.3-8.3,9.4-21.4,2.6-30.9l-8.1-11.4c-1.6-2.2-1.9-5.1-0.9-7.6c0.5-1.1,1-2.3,1.4-3.4
	c1-2.5,3.3-4.3,6-4.7l13.8-2.3c11.6-1.9,20.1-11.9,20.1-23.7v-20.9c0-1.9-0.3-3.7-0.7-5.6H432v144H312c-4.4,0-8,3.6-8,8v104h-96V376
	c0-4.4-3.6-8-8-8H80V224L112.7,224z M112,384h48v35.1l-24,12l-24-12V384z M80,384h16v40c0,3,1.7,5.8,4.4,7.2l32,16
	c2.3,1.1,4.9,1.1,7.2,0l32-16c2.7-1.4,4.4-4.2,4.4-7.2v-40h16v96H80L80,384z M480,480h-32V224h8c4.4,0,8-3.6,8-8v-32
	c0-4.4-3.6-8-8-8h-87.9c6.5-9.5,5.3-22.3-2.8-30.4l-14.8-14.8c-8.3-8.3-21.4-9.4-30.9-2.6l-11.4,8.1c-2.2,1.6-5.1,1.9-7.6,0.9
	c-1.1-0.5-2.3-1-3.4-1.4c-2.5-1-4.3-3.3-4.7-6l-2.3-13.8c-1.9-11.6-11.9-20.1-23.7-20.1h-20.9c-11.7,0-21.8,8.5-23.7,20.1l-2.3,13.8
	c-0.4,2.7-2.2,5-4.7,6c-1.2,0.5-2.3,0.9-3.4,1.4c-2.5,1-5.4,0.7-7.6-0.9l-11.4-8.1c-9.5-6.9-22.6-5.8-30.9,2.6l-14.8,14.8
	c-8.1,8.1-9.3,20.9-2.8,30.4H56c-4.4,0-8,3.6-8,8v32c0,4.4,3.6,8,8,8h8v256H32V172.5l224-139l224,139L480,480z"/>
<path d="M120,392h32v16h-32V392z"/>
<path d="M360,392h32v16h-32V392z"/>
<path d="M232,64h48v16h-48V64z"/>
<path d="M248,136h16v16h-16V136z"/>
<path d="M176.8,172.1l11.3-11.3l11.3,11.3l-11.3,11.3L176.8,172.1z"/>
<path d="M152,232h16v16h-16V232z"/>
<path d="M176.8,307.9l11.3-11.3l11.3,11.3l-11.3,11.3L176.8,307.9z"/>
<path d="M248,328h16v16h-16V328z"/>
<path d="M312.5,307.9l11.3-11.3l11.3,11.3l-11.3,11.3L312.5,307.9z"/>
<path d="M344,232h16v16h-16V232z"/>
<path d="M312.5,172.1l11.3-11.3l11.3,11.3l-11.3,11.3L312.5,172.1z"/>
<path d="M256,168c-39.8,0-72,32.2-72,72s32.2,72,72,72s72-32.2,72-72C328,200.3,295.7,168,256,168z M256,296c-30.9,0-56-25.1-56-56
	s25.1-56,56-56s56,25.1,56,56C312,270.9,286.9,296,256,296z"/>
</svg>
