<?xml version="1.0" encoding="utf-8"?>
<!-- Generator: Adobe Illustrator 23.1.0, SVG Export Plug-In . SVG Version: 6.00 Build 0)  -->
<svg version="1.1" id="Layer_1" xmlns="http://www.w3.org/2000/svg" xmlns:xlink="http://www.w3.org/1999/xlink" x="0px" y="0px"
	 viewBox="0 0 512 512" style="enable-background:new 0 0 512 512;" xml:space="preserve">
<style type="text/css">
	.st0{fill:#F7F3F1;}
	.st1{fill:#EBE1DC;}
	.st2{fill:#62A6FD;}
	.st3{fill:#8EE6F3;}
	.st4{fill:#4ED5EA;}
	.st5{fill:#FA9084;}
	.st6{fill:#EFE7E4;}
</style>
<path class="st0" d="M237.3,269c8,5.8,17.9,9.2,28.6,9.2h91.3v44.3l57.9-44.3h25c26.9,0,48.7-21.8,48.7-48.6V56.1
	c0-26.8-21.8-48.6-48.7-48.6H265.9c-26.9,0-48.7,21.8-48.7,48.6v213H237.3z"/>
<path class="st1" d="M440,7.5h-41.7c26.9,0,48.7,21.8,48.7,48.6v173.6c0,26.8-21.8,48.6-48.7,48.6h-25l-16.1,12.3v31.9l57.9-44.3h25
	c26.9,0,48.7-21.8,48.7-48.6V56.1C488.8,29.3,466.9,7.5,440,7.5z"/>
<path class="st2" d="M315.4,207.1l5,4.1c8,6.4,17.9,10,28.1,10h71.3c6.8,0,12.2-5.6,11.9-12.5c-0.3-6.4,0-64.7,0-71.2
	c0-6.6-5.3-11.9-11.9-11.9l-48.3-0.1l5.9-14c6.2-14.6,5.2-31.2-2.7-44.9c-2.2-3.9-7.2-5.2-11-2.8c-2.3,1.4-3.8,4-3.8,6.7
	c0,12.6-4.6,24.7-12.9,34.1l-30.8,34.9H305v67.7L315.4,207.1L315.4,207.1z"/>
<path class="st3" d="M310.6,217.8h-32.6c-2.2,0-3.9-1.7-3.9-3.9v-83c0-2.2,1.7-3.9,3.9-3.9h32.6c2.2,0,3.9,1.7,3.9,3.9v83
	C314.5,216,312.8,217.8,310.6,217.8z"/>
<path class="st4" d="M237.4,356V180.8c0-21.2-17.2-38.3-38.4-38.3H61.7c-21.2,0-38.4,17.2-38.4,38.3v136.9
	c0,21.2,17.2,38.3,38.4,38.3h75.4v35.2l45.6-35.2H237.4z"/>
<path class="st2" d="M199,142.5h-54.4c21.2,0,38.4,17.2,38.4,38.3V356h54.4V180.8C237.4,159.7,220.2,142.5,199,142.5z"/>
<path class="st5" d="M311.7,328h-97.4c-15.1,0-27.3,12.2-27.3,27.2v97.1c0,15,12.2,27.2,27.3,27.2h53.5v25l32.4-25h11.5
	c15.1,0,27.3-12.2,27.3-27.2v-97.1C339,340.2,326.8,328,311.7,328L311.7,328z"/>
<path class="st6" d="M311.7,328h-42c15.1,0,27.3,12.2,27.3,27.2v97.1c0,15-12.2,27.2-27.3,27.2h-1.9v25l32.4-25h11.5
	c15.1,0,27.3-12.2,27.3-27.2v-97.1C339,340.2,326.8,328,311.7,328z"/>
<path class="st0" d="M263,436.8c23.4-12.4,35.6-23,35.6-39.4c0-22.6-27.7-28.3-35.6-11.3c-9-17.5-35.6-11.3-35.6,11.3
	C227.4,413.8,239.6,424.4,263,436.8z"/>
<path d="M440,0h-22c-9.7,0-9.7,15,0,15h22c22.7,0,41.2,18.4,41.2,41.1v173.6c0,22.7-18.5,41.1-41.2,41.1h-25c-1.6,0-3.2,0.5-4.6,1.5
	l-45.8,35v-29.1c0-4.1-3.4-7.5-7.5-7.5h-91.3c-7.5,0-14.7-2-21-5.7v-84.2c0-15.8-8-29.7-20.2-38V56.1c0-22.7,18.5-41.1,41.2-41.1
	H371c9.7,0,9.7-15,0-15H265.9c-31,0-56.2,25.2-56.2,56.1v80.2c-3.4-0.8-7-1.3-10.7-1.3H61.7c-25.3,0-45.9,20.6-45.9,45.8V197
	c0,9.7,15,9.7,15,0v-16.2c0-17,13.9-30.8,30.9-30.8H199c17.1,0,30.9,13.8,30.9,30.8V268c-0.1,0.7-0.1,1.3,0,2v47.7
	c0,0.9-0.1,1.9-0.1,2.8h-15.5c-17,0-31.3,12.3-34.2,28.5c-0.7,0.3-1.3,0.6-1.9,1.1L144.6,376v-20c0-4.1-3.4-7.5-7.5-7.5H61.7
	c-17.1,0-30.9-13.8-30.9-30.8V242c0-9.7-15-9.7-15,0v75.7c0,25.3,20.6,45.8,45.9,45.8h67.9v27.7c0,6,7.3,9.6,12.1,5.9l37.8-29.2
	v84.4c0,19.1,15.6,34.7,34.8,34.7h46v17.5c0,6,7.3,9.6,12.1,5.9l30.4-23.4h9c19.2,0,34.8-15.6,34.8-34.7v-13.3c0-9.7-15-9.7-15,0
	v13.3c0,10.9-8.9,19.7-19.8,19.7h-11.5c-1.7,0-3.3,0.6-4.6,1.6l-20.3,15.7v-9.7c0-4.1-3.4-7.5-7.5-7.5h-53.5
	c-10.9,0-19.8-8.8-19.8-19.7v-97.1c0-10.9,8.9-19.7,19.8-19.7h97.4c10.9,0,19.8,8.8,19.8,19.7v36.8c0,9.7,15,9.7,15,0v-36.8
	c0-19.1-15.6-34.7-34.8-34.7h-66.9c0.1-0.9,0.1-38.8,0.1-38.8c6.6,2.7,13.7,4,21,4h83.8v36.8c0,6,7.3,9.6,12.1,6l55.9-42.7H440
	c31,0,56.2-25.2,56.2-56.1V56.1C496.3,25.2,471,0,440,0L440,0z"/>
<path d="M371.7,55.4c-9.5-2.4-19.2,5.1-19.2,14.9c0,10.8-3.9,21.1-11,29.2l-20.7,23.4c-1.3-2.1-3.7-3.4-6.3-3.4h-40.3
	c-4.1,0-7.5,3.4-7.5,7.5v90.8c0,4.1,3.4,7.5,7.5,7.5h40.3c3,0,5.6-1.8,6.8-4.4c8.2,5,17.6,7.7,27.3,7.7h71.3
	c10.9,0,19.9-9.5,19.4-20.3c-0.2-4.8,0-69.4,0-70.9c0-10.7-8.7-19.4-19.4-19.4l-37.1-0.1l1.5-3.6c7-16.6,5.9-35.9-3.1-51.5
	C379.2,59.1,375.8,56.5,371.7,55.4C367.6,54.4,375.8,56.5,371.7,55.4C362.2,53,375.8,56.5,371.7,55.4L371.7,55.4z M307,210.3h-25.3
	v-75.8H307V210.3z M419.9,133c2.4,0,4.4,2,4.4,4.4c0,1.4,0,5.3,0,10.6c-0.1,29-0.2,56.5,0,61c0.1,1.6-0.7,2.7-1.2,3.3
	c-0.8,0.9-2,1.4-3.2,1.4h-71.3c-8.5,0-16.8-2.9-23.4-8.3l-3.2-2.6v-58.5l30.7-34.7c9.5-10.8,14.8-24.7,14.8-39.1
	c0-0.4,0.6-0.5,0.8-0.2c6.6,11.6,7.5,25.9,2.3,38.3l-5.9,14c-1,2.3-0.7,5,0.7,7.1c1.4,2.1,3.7,3.4,6.2,3.4L419.9,133z"/>
<path d="M80,260.5c-4.1,0-7.5,3.4-7.5,7.5c0,4.1,3.4,7.5,7.5,7.5h22.1l-4.1,25c-0.7,4.1,2.1,7.9,6.2,8.6c0.4,0.1,0.8,0.1,1.2,0.1
	c3.6,0,6.8-2.6,7.4-6.3l4.5-27.4h18.1l-4.1,25c-0.7,4.1,2.1,7.9,6.2,8.6c0.4,0.1,0.8,0.1,1.2,0.1c3.6,0,6.8-2.6,7.4-6.3l4.5-27.4
	h30.1c4.1,0,7.5-3.4,7.5-7.5c0-4.1-3.4-7.5-7.5-7.5h-27.6l3-18.3h24.6c4.1,0,7.5-3.4,7.5-7.5c0-4.1-3.4-7.5-7.5-7.5h-22.1l4.1-25
	c0.7-4.1-2.1-7.9-6.2-8.6c-4.1-0.7-7.9,2.1-8.6,6.2l-4.5,27.4h-18.1l4.1-25c0.7-4.1-2.1-7.9-6.2-8.6c-4.1-0.7-7.9,2.1-8.6,6.2
	l-4.5,27.4H80c-4.1,0-7.5,3.4-7.5,7.5c0,4.1,3.4,7.5,7.5,7.5h27.6l-3,18.3L80,260.5z M122.8,242.2h18.1l-3,18.3h-18.1L122.8,242.2z"
	/>
<path d="M262.9,374.3c-6.1-5-14.1-7-22.2-5c-10.4,2.5-20.8,12.2-20.8,28.2c0,9.9,3.6,18.6,11.1,26.4c6.1,6.4,14.9,12.4,28.5,19.7
	c1.1,0.6,2.3,0.9,3.5,0.9s2.4-0.3,3.5-0.9c23.8-12.6,39.6-25.2,39.6-46c0-16-10.8-25.6-21.6-28C276.5,367.6,268.7,369.5,262.9,374.3
	L262.9,374.3z M291.1,397.4c0,11.2-7.4,19.5-28.1,30.9c-20.7-11.4-28.1-19.7-28.1-30.9c0-8.3,4.8-12.5,9.3-13.6
	c0.8-0.2,1.7-0.3,2.6-0.3c3.4,0,7.1,1.6,9.4,6c1.3,2.5,4,4.1,6.8,4.1c2.9-0.1,5.4-1.7,6.6-4.3c2.4-5.2,7.5-6.1,11.5-5.2
	C286.1,385.1,291.1,389.2,291.1,397.4z"/>
</svg>
