<?xml version="1.0" encoding="utf-8"?>
<!-- Generator: Adobe Illustrator 23.1.0, SVG Export Plug-In . SVG Version: 6.00 Build 0)  -->
<svg version="1.1" id="Capa_1" xmlns="http://www.w3.org/2000/svg" xmlns:xlink="http://www.w3.org/1999/xlink" x="0px" y="0px"
	 viewBox="0 0 512 512" style="enable-background:new 0 0 512 512;" xml:space="preserve">
<style type="text/css">
	.st0{fill:#4A81F6;}
	.st1{fill:#E1E6E9;}
	.st2{fill:#B1E4F9;}
</style>
<g>
	<path class="st0" d="M177,205.3v26.9c0,6.7,5.5,12.2,12.2,12.2h41v41c0,6.7,5.5,12.2,12.2,12.2h26.9c6.7,0,12.2-5.5,12.2-12.2v-41
		h41c6.7,0,12.2-5.5,12.2-12.2v-26.9c0-6.7-5.5-12.2-12.2-12.2h-41v-41c0-6.7-5.5-12.2-12.2-12.2h-26.9c-6.7,0-12.2,5.5-12.2,12.2
		v41h-41C182.6,193.1,177,198.6,177,205.3z"/>
	<path class="st1" d="M281.7,152v41h41c6.7,0,12.2,5.5,12.2,12.2v26.9c0,6.7-5.5,12.2-12.2,12.2h-41v41c0,6.7-5.5,12.2-12.2,12.2
		h-26.9c-6.7,0-12.2-5.5-12.2-12.2v-41h-41c-6.7,0-12.2-5.5-12.2-12.2v-26.9c0-6.7,5.5-12.2,12.2-12.2h41v-41
		c0-6.7,5.5-12.2,12.2-12.2h26.9C276.2,139.8,281.7,145.3,281.7,152L281.7,152z M375.5,338.3c66-66,66-173,0-239
		c-66-66-173-66-239,0c-66,66-66,173,0,239C202.5,404.3,309.5,404.3,375.5,338.3z"/>
	<path class="st2" d="M375.5,99.3c66,66,66,173,0,239c-66,66-173,66-239,0c-66-66-66-173,0-239C202.5,33.3,309.5,33.3,375.5,99.3
		L375.5,99.3z M235.6,493.6c11.2,11.2,29.6,11.2,40.9,0l127.2-127.2c81.5-81.5,81.5-213.7,0-295.2s-213.7-81.5-295.2,0
		c-81.5,81.5-81.5,213.7,0,295.2L235.6,493.6z"/>
</g>
<path d="M410.7,64.1C369.4,22.8,314.4,0,256,0S142.6,22.8,101.3,64.1s-64.1,96.3-64.1,154.7S60,332.1,101.3,373.5l127.2,127.2
	c7.3,7.3,17.1,11.4,27.5,11.4c10.4,0,20.2-4,27.5-11.4l127.2-127.2c41.3-41.3,64.1-96.3,64.1-154.7S452,105.4,410.7,64.1z
	 M396.5,359.3L269.4,486.5c-3.5,3.5-8.3,5.5-13.4,5.5c-5.1,0-9.8-2-13.4-5.5L115.5,359.3c-37.5-37.5-58.2-87.5-58.2-140.5
	s20.7-103,58.2-140.5C153,40.7,202.9,20,256,20s103,20.7,140.5,58.2C474,155.7,474,281.8,396.5,359.3z"/>
<path d="M382.6,92.2C348.8,58.4,303.8,39.8,256,39.8s-92.8,18.6-126.6,52.4C95.6,126,77,171,77,218.8s18.6,92.8,52.4,126.6
	c33.8,33.8,78.8,52.4,126.6,52.4s92.8-18.6,126.6-52.4c33.8-33.8,52.4-78.8,52.4-126.6S416.4,126,382.6,92.2z M368.4,331.2
	c-30,30-70,46.6-112.4,46.6s-82.4-16.5-112.4-46.6c-30-30-46.6-70-46.6-112.4s16.5-82.4,46.6-112.4c30-30,70-46.6,112.4-46.6
	s82.4,16.5,112.4,46.6c30,30,46.6,70,46.6,112.4S398.5,301.2,368.4,331.2z"/>
<path d="M172.7,126.9c4.1-3.7,4.4-10,0.7-14.1c-3.7-4.1-10-4.4-14.1-0.7c-12.7,11.6-23.2,25.2-31.1,40.4c-2.5,4.9-0.6,10.9,4.3,13.5
	c1.5,0.8,3,1.1,4.6,1.1c3.6,0,7.1-2,8.9-5.4C152.7,148.6,161.7,136.9,172.7,126.9z"/>
<path d="M188.8,112.9c1.7,0,3.4-0.4,5-1.3l0.3-0.2c4.8-2.8,6.4-8.9,3.6-13.7c-2.8-4.8-8.9-6.4-13.7-3.6l-0.2,0.1
	c-4.8,2.7-6.5,8.9-3.7,13.6C181.9,111,185.3,112.9,188.8,112.9z"/>
<path d="M322.7,183.1h-31v-31c0-12.3-10-22.2-22.2-22.2h-26.9c-12.3,0-22.2,10-22.2,22.2v31h-31c-12.3,0-22.2,10-22.2,22.2v26.9
	c0,12.3,10,22.2,22.2,22.2h31v31c0,12.3,10,22.2,22.2,22.2h26.9c12.3,0,22.2-10,22.2-22.2v-31h31c12.3,0,22.2-10,22.2-22.2v-26.9
	C345,193,335,183.1,322.7,183.1z M325,232.2c0,1.2-1,2.2-2.2,2.2h-41c-5.5,0-10,4.5-10,10v41c0,1.2-1,2.2-2.2,2.2h-26.9
	c-1.2,0-2.2-1-2.2-2.2v-41c0-5.5-4.5-10-10-10h-41c-1.2,0-2.2-1-2.2-2.2v-26.9c0-1.2,1-2.2,2.2-2.2h41c5.5,0,10-4.5,10-10v-41
	c0-1.2,1-2.2,2.2-2.2h26.9c1.2,0,2.2,1,2.2,2.2v41c0,5.5,4.5,10,10,10h41c1.2,0,2.2,1,2.2,2.2V232.2z"/>
</svg>
