<?xml version="1.0" encoding="utf-8"?>
<!-- Generator: Adobe Illustrator 23.1.0, SVG Export Plug-In . SVG Version: 6.00 Build 0)  -->
<svg version="1.1" id="Слой_1" xmlns="http://www.w3.org/2000/svg" xmlns:xlink="http://www.w3.org/1999/xlink" x="0px" y="0px"
	 viewBox="0 0 512 512" style="enable-background:new 0 0 512 512;" xml:space="preserve">
<style type="text/css">
	.st0{fill:#EFE7E4;}
	.st1{fill:#F9F6F6;}
	.st2{fill:#90D8F9;}
	.st3{fill:#B1E4F9;}
	.st4{fill:#3F51B5;}
	.st5{fill:#4070F6;}
	.st6{fill:#4A81F6;}
</style>
<title>041 - Home Insurance Documents</title>
<desc>Created with Sketch.</desc>
<path id="Shape" class="st0" d="M384,119.5v366.9c0,9.4-7.7,17-17.1,17.1H25.6c-9.4,0-17-7.7-17.1-17.1V25.6c0-9.4,7.7-17,17.1-17.1
	h247.5L384,119.5z"/>
<path class="st1" d="M358.4,119.5v366.9c0,9.4-7.7,17-17.1,17.1H25.6c-9.4,0-17-7.7-17.1-17.1V25.6c0-9.4,7.7-17,17.1-17.1h221.9
	L358.4,119.5z"/>
<path class="st0" d="M384,119.5L273.1,8.5v102.4c0,4.7,3.8,8.5,8.5,8.5H384z"/>
<path class="st2" d="M298.7,230.4v145.1c0,4.7-3.8,8.5-8.5,8.5H102.4c-4.7,0-8.5-3.8-8.5-8.5V230.4l102.4-85.3L298.7,230.4z"/>
<path class="st3" d="M326,250.9l-127.1-95.4c-1.5-1.1-3.6-1.1-5.1,0L66.6,250.9c-1.3,1-3,1.1-4.5,0.4s-2.4-2.2-2.4-3.8v-32
	c0-1.3,0.6-2.6,1.7-3.4l132.3-99.2c1.5-1.1,3.6-1.1,5.1,0l132.3,99.2c1.1,0.8,1.7,2.1,1.7,3.4v32c0,1.6-0.9,3.1-2.4,3.8
	C329,252,327.3,251.8,326,250.9z"/>
<path class="st4" d="M238.9,273.1V384h-85.3V273.1c0-4.7,3.8-8.5,8.5-8.5h68.3C235.1,264.5,238.9,268.4,238.9,273.1z"/>
<path class="st5" d="M503.5,319.2v100.9c-0.1,14.3-7.1,27.6-18.7,35.8l-66.6,47.4l-12.8-9.1L351.5,456
	c-11.6-8.2-18.6-21.6-18.7-35.8V319.2l72.5-31.3l12.8-5.5L503.5,319.2z"/>
<path class="st6" d="M477.9,319.2v100.9c-0.1,14.3-7.1,27.6-18.7,35.8l-53.8,38.3L351.5,456c-11.6-8.2-18.6-21.6-18.7-35.8V319.2
	l72.5-31.3L477.9,319.2z"/>
<path d="M418.1,512c-1.8,0-3.5-0.6-4.9-1.6L346.5,463c-13.9-9.8-22.2-25.8-22.3-42.8v-101c0-3.4,2-6.5,5.1-7.8l85.3-36.9
	c2.2-0.9,4.6-0.9,6.8,0l85.3,36.9c3.1,1.4,5.1,4.4,5.1,7.8v101c-0.1,17-8.4,32.9-22.3,42.8L423,510.4
	C421.6,511.4,419.9,512,418.1,512z M356.4,449.1l61.7,43.9l61.7-43.9c9.4-6.6,15-17.4,15.1-28.9v-95.4l-76.8-33.2l-76.8,33.2v95.4
	C341.4,431.7,347,442.4,356.4,449.1z"/>
<path d="M401.1,441.4c-1.8,0-3.6-0.6-5.1-1.7l-34.1-25.6c-3.8-2.8-4.5-8.2-1.7-11.9c2.8-3.8,8.2-4.5,11.9-1.7l27.5,20.6l63.1-78.9
	c1.9-2.4,4.9-3.6,8-3.1c3,0.5,5.6,2.5,6.7,5.3c1.1,2.8,0.6,6.1-1.3,8.4l-68.3,85.3C406.1,440.2,403.7,441.4,401.1,441.4z"/>
<path d="M366.9,512H25.6C11.5,512,0,500.5,0,486.4V25.6C0,11.5,11.5,0,25.6,0h247.5c4.7,0,8.5,3.8,8.5,8.5s-3.8,8.5-8.5,8.5H25.6
	c-4.7,0-8.5,3.8-8.5,8.5v460.8c0,4.7,3.8,8.5,8.5,8.5h341.3c4.7,0,8.5-3.8,8.5-8.5v-7.3c0-4.7,3.8-8.5,8.5-8.5s8.5,3.8,8.5,8.5v7.3
	C392.5,500.5,381.1,512,366.9,512z"/>
<path d="M384,305.7c-4.7,0-8.5-3.8-8.5-8.5V119.5c0-4.7,3.8-8.5,8.5-8.5s8.5,3.8,8.5,8.5v177.7C392.5,301.8,388.7,305.7,384,305.7z"
	/>
<path d="M384,128H281.6c-9.4,0-17.1-7.6-17.1-17.1V8.5c0-3.5,2.1-6.6,5.3-7.9s6.9-0.6,9.3,1.8L390,113.4c2.4,2.4,3.2,6.1,1.8,9.3
	C390.6,125.9,387.5,128,384,128z M281.6,29.1v81.8h81.8L281.6,29.1z"/>
<path d="M290.1,392.5H102.4c-9.4,0-17.1-7.6-17.1-17.1V230.4c0-4.7,3.8-8.5,8.5-8.5c4.7,0,8.5,3.8,8.5,8.5v145.1h187.7V230.4
	c0-4.7,3.8-8.5,8.5-8.5s8.5,3.8,8.5,8.5v145.1C307.2,384.9,299.6,392.5,290.1,392.5z"/>
<path d="M332.8,264.5c-1.8,0-3.6-0.6-5.1-1.7l-131.4-98.6L64.9,262.8c-2.6,1.9-6,2.3-8.9,0.8c-2.9-1.4-4.7-4.4-4.7-7.6v-42.7
	c0-2.7,1.3-5.2,3.4-6.8l136.5-102.4c3-2.3,7.2-2.3,10.2,0l136.5,102.4c2.1,1.6,3.4,4.1,3.4,6.8V256
	C341.3,260.7,337.5,264.5,332.8,264.5z M196.3,145.1c1.8,0,3.6,0.6,5.1,1.7l122.9,92.2v-21.3l-128-96l-128,96v21.3l122.9-92.2
	C192.6,145.7,194.4,145.1,196.3,145.1z"/>
<path d="M238.9,392.5h-85.3c-4.7,0-8.5-3.8-8.5-8.5V273.1c0-9.4,7.6-17.1,17.1-17.1h68.3c9.4,0,17.1,7.6,17.1,17.1V384
	C247.5,388.7,243.6,392.5,238.9,392.5z M162.1,375.5h68.3V273.1h-68.3V375.5z"/>
<path d="M238.9,332.8h-17.1c-4.7,0-8.5-3.8-8.5-8.5c0-4.7,3.8-8.5,8.5-8.5h17.1c4.7,0,8.5,3.8,8.5,8.5
	C247.5,329,243.6,332.8,238.9,332.8z"/>
<path d="M204.8,59.7H51.2c-4.7,0-8.5-3.8-8.5-8.5s3.8-8.5,8.5-8.5h153.6c4.7,0,8.5,3.8,8.5,8.5S209.5,59.7,204.8,59.7z"/>
<path d="M162.1,93.9H51.2c-4.7,0-8.5-3.8-8.5-8.5s3.8-8.5,8.5-8.5h110.9c4.7,0,8.5,3.8,8.5,8.5S166.8,93.9,162.1,93.9z"/>
<path d="M110.9,128H51.2c-4.7,0-8.5-3.8-8.5-8.5c0-4.7,3.8-8.5,8.5-8.5h59.7c4.7,0,8.5,3.8,8.5,8.5C119.5,124.2,115.6,128,110.9,128
	z"/>
<path d="M204.8,426.7H51.2c-4.7,0-8.5-3.8-8.5-8.5c0-4.7,3.8-8.5,8.5-8.5h153.6c4.7,0,8.5,3.8,8.5,8.5
	C213.3,422.8,209.5,426.7,204.8,426.7z"/>
<path d="M298.7,426.7h-59.7c-4.7,0-8.5-3.8-8.5-8.5c0-4.7,3.8-8.5,8.5-8.5h59.7c4.7,0,8.5,3.8,8.5,8.5
	C307.2,422.8,303.4,426.7,298.7,426.7z"/>
<path d="M136.5,460.8H51.2c-4.7,0-8.5-3.8-8.5-8.5s3.8-8.5,8.5-8.5h85.3c4.7,0,8.5,3.8,8.5,8.5S141.2,460.8,136.5,460.8z"/>
<path d="M307.2,460.8H170.7c-4.7,0-8.5-3.8-8.5-8.5s3.8-8.5,8.5-8.5h136.5c4.7,0,8.5,3.8,8.5,8.5S311.9,460.8,307.2,460.8z"/>
</svg>
