<?xml version="1.0" encoding="utf-8"?>
<!-- Generator: Adobe Illustrator 23.1.0, SVG Export Plug-In . SVG Version: 6.00 Build 0)  -->
<svg version="1.1" id="Слой_1" xmlns="http://www.w3.org/2000/svg" xmlns:xlink="http://www.w3.org/1999/xlink" x="0px" y="0px"
	 viewBox="0 0 512 512" style="enable-background:new 0 0 512 512;" xml:space="preserve">
<style type="text/css">
	.st0{fill:#B1E4F9;}
	.st1{fill:#4370FF;}
	.st2{fill:none;}
</style>
<path class="st0" d="M168,360h176c17.7,0,32,14.3,32,32v104l0,0H136l0,0V392C136,374.3,150.3,360,168,360z"/>
<path class="st1" d="M408,80H104c-13.3,0-24,10.7-24,24v119.6c0,14.4,9.7,27,23.6,30.8l32.4,8.9V232c0-4.4,3.6-8,8-8h24
	c4.4,0,8,3.6,8,8v42.2l67.4,18.4c8.3,2.3,17,2.3,25.3,0l67.4-18.4V232c0-4.4,3.6-8,8-8h24c4.4,0,8,3.6,8,8v31.3l32.4-8.9
	c13.9-3.8,23.6-16.4,23.6-30.8V104C432,90.7,421.3,80,408,80L408,80z M256,209.9L222.1,176l33.9-33.9l33.9,33.9L256,209.9z"/>
<path class="st1" d="M32,344h64v40H32V344z"/>
<path class="st1" d="M416,344h64v40h-64V344z"/>
<g>
	<path class="st2" d="M288,448c0,13.3-10.7,24-24,24h-16c-13.3,0-24-10.7-24-24v-9.8c-27.3-2.9-54.2-9.2-80-18.7V488h224v-68.5
		c-25.8,9.5-52.7,15.8-80,18.7V448z"/>
	<path class="st2" d="M128,252.8V232c0-8.8,7.2-16,16-16h24c8.8,0,16,7.2,16,16v36.1l61.5,16.7c6.9,1.9,14.2,1.9,21,0l61.5-16.7V232
		c0-8.8,7.2-16,16-16h24c8.8,0,16,7.2,16,16v20.8l22.3-6.1c10.4-2.9,17.7-12.3,17.7-23.2V104c0-8.8-7.2-16-16-16H104
		c-8.8,0-16,7.2-16,16v119.6c0,10.8,7.3,20.3,17.7,23.2L128,252.8z M232,256h-16v-16h16V256z M264,256h-16v-16h16V256z M296,256h-16
		v-16h16V256z M216.4,170.3l33.9-33.9c3.2-3,8.1-3,11.3,0l33.9,33.9c3.1,3.1,3.1,8.2,0,11.3l-33.9,33.9c-3.1,3.1-8.2,3.1-11.3,0
		l-33.9-33.9C213.3,178.5,213.3,173.5,216.4,170.3L216.4,170.3z"/>
	<path class="st2" d="M168,232h-24v56h24C168,285.4,168,228.4,168,232z"/>
	<path class="st2" d="M102.2,72h79.5l-10.5-41.9c-0.9-3.6-4.1-6.1-7.8-6.1h-63c-4.4,0-8,3.6-8,8c0,0.7,0.1,1.3,0.2,1.9L102.2,72z"/>
	<path class="st2" d="M368,232h-24v56h24C368,286.6,368,228.3,368,232z"/>
	<path class="st2" d="M409.8,72l9.5-38.1c1.1-4.3-1.5-8.6-5.8-9.7c-0.6-0.2-1.3-0.2-1.9-0.2h-63c-3.7,0-6.9,2.5-7.8,6.1L330.2,72
		H409.8z"/>
	<path class="st2" d="M233.3,176l22.6-22.6l22.6,22.6L256,198.6L233.3,176z"/>
	<path class="st2" d="M40,352h48v24H40V352z"/>
	<path class="st2" d="M264,456c4.4,0,8-3.6,8-8v-8.5c-5.3,0.3-10.7,0.4-16,0.4s-10.7-0.2-16-0.4v8.5c0,4.4,3.6,8,8,8H264z"/>
	<path class="st2" d="M424,352h48v24h-48V352z"/>
	<path class="st2" d="M344,368H168c-13.3,0-24,10.7-24,24v10.5c72,28.4,152,28.4,224,0V392C368,378.7,357.3,368,344,368z"/>
	<path class="st2" d="M424,472c0,5.6-1.6,11.2-4.4,16H440c13.3,0,24-10.7,24-24l0,0v-72h-40V472z"/>
</g>
<path d="M250.3,215.6c3.1,3.1,8.2,3.1,11.3,0l33.9-33.9c3.1-3.1,3.1-8.2,0-11.3l-33.9-33.9c-3.2-3-8.1-3-11.3,0l-33.9,33.9
	c-3.1,3.1-3.1,8.2,0,11.3L250.3,215.6z M256,153.4l22.6,22.6L256,198.6L233.4,176L256,153.4z"/>
<path d="M480,336h-72v136c0,8.8-7.2,16-16,16h-8v-96c0-22.1-17.9-40-40-40H168c-22.1,0-40,17.9-40,40v96h-8c-8.8,0-16-7.2-16-16
	V262.8l24,6.5V288c0,8.8,7.2,16,16,16h24c8.8,0,16-7.2,16-16v-3.3l57.3,15.6c9.7,2.6,19.8,2.6,29.5,0l57.3-15.6v3.3
	c0,8.8,7.2,16,16,16h24c8.8,0,16-7.2,16-16v-18.6l24-6.5V320h16v-64.6c10-7.5,15.9-19.3,16-31.8V104c0-11-5.7-21.2-15-27l9.8-39.2
	c3.2-12.9-4.6-25.9-17.5-29.1c-1.9-0.5-3.8-0.7-5.8-0.7h-63c-11,0-20.6,7.5-23.3,18.2L313.8,72H296V56c0-22.1-17.9-40-40-40
	s-40,17.9-40,40h16c0-13.3,10.7-24,24-24c13.3,0,24,10.7,24,24v16h-81.8l-11.4-45.8C184.1,15.5,174.5,8,163.5,8h-63
	c-13.3,0-24,10.7-24,24c0,2,0.2,3.9,0.7,5.8L87,77c-9.3,5.8-15,16-15,27v119.6c0.1,12.5,6,24.3,16,31.8V336H32c-4.4,0-8,3.6-8,8v40
	c0,4.4,3.6,8,8,8h56v80c0,5.6,1.6,11.2,4.4,16H72c-13.3,0-24-10.7-24-24l0,0v-56H32v56c0,22.1,17.9,40,40,40h368
	c22.1,0,40-17.9,40-40v-72c4.4,0,8-3.6,8-8v-40C488,339.6,484.4,336,480,336z M88,376H40v-24h48V376z M144,288v-56h24
	c0,0.8,0,56.8,0,56H144z M344,288v-56h24c0,0.8,0,56.8,0,56H344z M340.7,30.1c0.9-3.6,4.1-6.1,7.8-6.1h63c4.4,0,8,3.6,8,8
	c0,0.7-0.1,1.3-0.2,1.9L409.8,72h-79.5L340.7,30.1z M100.5,24h63c3.7,0,6.9,2.5,7.8,6.1L181.8,72h-79.5l-9.5-38.1
	c-1.1-4.3,1.5-8.6,5.8-9.7C99.2,24.1,99.8,24,100.5,24z M88,223.6V104c0-8.8,7.2-16,16-16h304c8.8,0,16,7.2,16,16v119.6
	c0,10.8-7.3,20.3-17.7,23.2l-22.3,6.1V232c0-8.8-7.2-16-16-16h-24c-8.8,0-16,7.2-16,16v36.1l-61.5,16.7c-6.9,1.9-14.2,1.9-21,0
	L184,268.1V232c0-8.8-7.2-16-16-16h-24c-8.8,0-16,7.2-16,16v20.8l-22.3-6.1C95.3,243.8,88,234.4,88,223.6L88,223.6z M368,488H144
	v-68.5c25.8,9.5,52.7,15.8,80,18.7v9.8c0,13.3,10.7,24,24,24h16c13.3,0,24-10.7,24-24v-9.8c27.3-2.9,54.2-9.2,80-18.7V488z M240,448
	v-8.5c5.3,0.3,10.7,0.4,16,0.4s10.7-0.2,16-0.4v8.5c0,4.4-3.6,8-8,8h-16C243.6,456,240,452.4,240,448z M368,402.5
	c-72,28.4-152,28.4-224,0V392c0-13.3,10.7-24,24-24h176c13.3,0,24,10.7,24,24V402.5z M464,464c0,13.3-10.7,24-24,24l0,0h-20.4
	c2.9-4.8,4.4-10.4,4.4-16v-80h40V464z M472,376h-48v-24h48V376z"/>
<path d="M32,112h16v104H32V112z"/>
<path d="M32,80h16v16H32V80z"/>
<path d="M464,112h16v104h-16V112z"/>
<path d="M464,80h16v16h-16V80z"/>
<path d="M216,240h16v16h-16V240z"/>
<path d="M248,240h16v16h-16V240z"/>
<path d="M280,240h16v16h-16V240z"/>
<path d="M435.6,271l11.3-11.3l11.3,11.3L447,282.4L435.6,271z"/>
<path d="M473.3,304.9l11.3-11.3l11.3,11.3l-11.3,11.3L473.3,304.9z"/>
<path d="M435.6,305l11.3-11.3l11.3,11.3L447,316.3L435.6,305z"/>
<path d="M473.3,271.1l11.3-11.3l11.3,11.3l-11.3,11.3L473.3,271.1z"/>
<path d="M15.9,305l11.3-11.3L38.6,305l-11.3,11.3L15.9,305z"/>
<path d="M16,271l11.3-11.3L38.6,271l-11.3,11.3L16,271z"/>
<path d="M53.6,304.9L65,293.6l11.3,11.3L65,316.2L53.6,304.9z"/>
<path d="M53.6,271l11.3-11.3L76.2,271l-11.3,11.3L53.6,271z"/>
</svg>
