<?xml version="1.0" encoding="utf-8"?>
<!-- Generator: Adobe Illustrator 23.1.0, SVG Export Plug-In . SVG Version: 6.00 Build 0)  -->
<svg version="1.1" id="Layer_5" xmlns="http://www.w3.org/2000/svg" xmlns:xlink="http://www.w3.org/1999/xlink" x="0px" y="0px"
	 viewBox="0 0 512 512" style="enable-background:new 0 0 512 512;" xml:space="preserve">
<style type="text/css">
	.st0{fill:#AAB2BD;}
	.st1{fill:#B1E4F9;}
	.st2{fill:#CCD1D9;}
	.st3{fill:#F9F6F6;}
	.st4{fill:#4A81F6;}
	.st5{fill:#E6E9ED;}
	.st6{fill:#FFC729;}
	.st7{fill:#FCD770;}
</style>
<g>
	<path class="st0" d="M464,208h32v96h-32V208z"/>
</g>
<g>
	<path class="st1" d="M496,400v64c0,17.7-14.3,32-32,32H96c-17.7,0-32-14.3-32-32V272h20.4c5.6,9.5,15.8,16,27.6,16
		c20.2,0,36-18.6,31.1-39.7c-2.6-11.4-11.8-20.6-23.1-23.4c-15.1-3.7-28.8,3.4-35.6,15H64V48c0-17.7,14.3-32,32-32h368
		c17.7,0,32,14.3,32,32v64h-32V56c0-4.4-3.6-8-8-8H104c-4.4,0-8,3.6-8,8v104v32h64c8.8,0,16,7.2,16,16v96c0,8.8-7.2,16-16,16H96v32
		v104c0,4.4,3.6,8,8,8h352c4.4,0,8-3.6,8-8v-56H496z"/>
</g>
<g>
	<path class="st2" d="M464,400v56c0,4.4-3.6,8-8,8H104c-4.4,0-8-3.6-8-8V352h256c8.8,0,16-7.2,16-16V176c0-8.8-7.2-16-16-16H96V56
		c0-4.4,3.6-8,8-8h352c4.4,0,8,3.6,8,8v56h-16v32h-32v32h32v32h16v96h-16v32h-32v32h32v32H464z"/>
</g>
<g>
	<path class="st3" d="M496,112v96h-48v-32v-64h16H496z"/>
</g>
<g>
	<path class="st3" d="M496,304v96h-48v-32v-64h16H496z"/>
</g>
<g>
	<path class="st4" d="M448,352v16h-32v-32h32V352z"/>
</g>
<g>
	<path class="st4" d="M448,160v16h-32v-32h32V160z"/>
</g>
<g>
	<path class="st4" d="M143.1,248.3c4.9,21-11,39.7-31.1,39.7c-11.8,0-22-6.5-27.6-16H64H40c-6.6,0-12.6-2.7-17-7s-7-10.3-7-17
		c0-4.4,3.6-8,8-8h40h20.4c6.8-11.6,20.5-18.7,35.6-15C131.4,227.8,140.5,237,143.1,248.3z"/>
</g>
<g>
	<path class="st5" d="M368,176v160c0,8.8-7.2,16-16,16H96v-32h64c8.8,0,16-7.2,16-16v-96c0-8.8-7.2-16-16-16H96v-32h256
		C360.8,160,368,167.2,368,176z"/>
</g>
<g>
	<circle class="st6" cx="272" cy="256" r="64"/>
</g>
<g>
	<path class="st7" d="M303.9,254.9v1.1c0.1,8.8-3.5,16.8-9.4,22.6c-5.5,5.5-13,9-21.4,9.4c-0.4,0-0.8,0-1.2,0
		c-8.8,0-16.8-3.6-22.6-9.4c-5.4-5.5-9-13-9.3-21.4c0-0.4,0-0.7,0-1.1c-0.1-8.8,3.5-16.8,9.4-22.6c5.5-5.5,13-9,21.4-9.4h1.2
		c8.8,0,16.8,3.6,22.6,9.4C300.1,239,303.6,246.5,303.9,254.9z"/>
</g>
<g>
	<path d="M271.9,328c0.8,0,1.7,0,2.6,0c39.7-1.4,70.8-34.8,69.4-74.4c-1.4-39.7-34.6-70.5-74.4-69.4c-39.7,1.4-70.8,34.8-69.4,74.4
		C201.4,297.3,233.4,328,271.9,328z M232.9,264c1,5,3,9.7,5.8,14l-11.5,11.5c-5.5-7.3-9.2-16-10.6-25.5L232.9,264L232.9,264z
		 M311.1,248c-1-5-3-9.7-5.8-14l11.5-11.5c5.5,7.3,9.2,16,10.6,25.5L311.1,248L311.1,248z M254.4,239.6c4.4-4.7,10.3-7.4,16.7-7.6
		c0.3,0,0.6,0,0.9,0c6.1,0,11.9,2.3,16.3,6.4c4.7,4.4,7.4,10.3,7.6,16.7c0.2,6.4-2.1,12.5-6.4,17.2c-4.4,4.7-10.3,7.4-16.7,7.6
		c-6.2,0.2-12.5-2.1-17.2-6.4c-4.7-4.4-7.4-10.3-7.6-16.7C247.8,250.4,250,244.3,254.4,239.6L254.4,239.6z M249.9,289.3
		c4.3,2.8,9,4.8,14,5.9v16.2c-9.5-1.4-18.2-5.1-25.5-10.6L249.9,289.3z M279.9,295.1c5-1,9.7-3,14-5.8l11.5,11.5
		c-7.3,5.5-16,9.2-25.5,10.6V295.1z M294,222.7c-4.3-2.8-9-4.7-14-5.8v-16.3c9.4,1.4,18.1,5.1,25.4,10.6L294,222.7z M264,216.9
		c-5,1-9.7,3-14,5.8l-11.5-11.5c7.3-5.5,16-9.2,25.5-10.6V216.9z M316.7,289.5L305.2,278c2.8-4.3,4.8-9,5.8-14h16.3
		C325.9,273.5,322.2,282.2,316.7,289.5L316.7,289.5z M227.2,222.5l11.5,11.5c-2.8,4.3-4.8,9-5.8,14h-16.3
		C218,238.5,221.7,229.8,227.2,222.5L227.2,222.5z"/>
	<circle cx="272" cy="256" r="8"/>
	<path d="M464,8H96C73.9,8,56,25.9,56,48v184H24c-8.8,0-16,7.2-16,16c0,17.6,14.4,32,32,32h16v184c0,22.1,17.9,40,40,40h368
		c22.1,0,40-17.9,40-40V48C504,25.9,486.1,8,464,8z M24,248h65l2.3-4c5.5-9.5,16-13.9,26.8-11.3c8.3,2,15.2,9,17.2,17.4
		c1.8,7.5,0.2,14.9-4.5,20.8c-4.6,5.8-11.4,9.1-18.8,9.1c-8.5,0-16.3-4.5-20.6-12l-2.3-4H40C31.2,264,24,256.8,24,248z M464,488H96
		c-13.2,0-24-10.8-24-24V280h8.2c7.5,10,19.3,16,31.8,16c12.3,0,23.7-5.5,31.3-15.1c7.6-9.6,10.4-22.1,7.6-34.3
		c-3.3-14.3-14.7-25.8-29-29.3c-16-3.9-32.2,2-41.8,14.8H72V48c0-13.2,10.8-24,24-24h368c13.2,0,24,10.8,24,24v56h-16V56
		c0-8.8-7.2-16-16-16H104c-8.8,0-16,7.2-16,16v144h72c4.4,0,8,3.6,8,8v96c0,4.4-3.6,8-8,8H88v144c0,8.8,7.2,16,16,16h352
		c8.8,0,16-7.2,16-16v-48h16v56C488,477.2,477.2,488,464,488z M160,184h-56v-16h248c4.4,0,8,3.6,8,8v160c0,4.4-3.6,8-8,8H104v-16h56
		c13.2,0,24-10.8,24-24v-96C184,194.8,173.2,184,160,184z M104,360h248c13.2,0,24-10.8,24-24V176c0-13.2-10.8-24-24-24H104V56h352
		v48h-16v32h-32v48h32v32h16v80h-16v32h-32v48h32v32h16v48H104V360z M440,168h-16v-16h16V168z M440,360h-16v-16h16V360z M456,392
		v-32h32v32H456z M456,344v-32h32v32H456z M472,296v-80h16v80H472z M456,200v-32h32v32H456z M456,152v-32h32v32H456z"/>
	<circle cx="336" cy="192" r="8"/>
	<circle cx="336" cy="320" r="8"/>
	<circle cx="208" cy="192" r="8"/>
	<circle cx="208" cy="320" r="8"/>
	<path d="M152,72h16v16h-16V72z"/>
	<path d="M184,72h16v16h-16V72z"/>
	<path d="M216,72h16v16h-16V72z"/>
	<path d="M120,72h16v16h-16V72z"/>
	<path d="M424,424h16v16h-16V424z"/>
	<path d="M360,424h16v16h-16V424z"/>
	<path d="M392,424h16v16h-16V424z"/>
	<path d="M328,424h16v16h-16V424z"/>
</g>
</svg>
