<?xml version="1.0" encoding="utf-8"?>
<!-- Generator: Adobe Illustrator 23.1.0, SVG Export Plug-In . SVG Version: 6.00 Build 0)  -->
<svg version="1.1" id="_x33_0" xmlns="http://www.w3.org/2000/svg" xmlns:xlink="http://www.w3.org/1999/xlink" x="0px" y="0px"
	 viewBox="0 0 512 512" style="enable-background:new 0 0 512 512;" xml:space="preserve">
<style type="text/css">
	.st0{fill:#AAB2BD;}
	.st1{fill:#E6E9ED;}
	.st2{fill:#B1E4F9;}
	.st3{fill:#F9F6F6;}
	.st4{fill:#EFE7E4;}
	.st5{fill:#B27946;}
	.st6{fill:#4070F6;}
	.st7{fill:#F0D0B4;}
	.st8{fill:#4A81F6;}
</style>
<g>
	<path class="st0" d="M326.3,480H64c-17.7,0-32-14.3-32-32V139.7c4.7,2.7,10.2,4.3,16,4.3h32v232c0,4.4,3.6,8,8,8h40h80h64
		C272,424.7,293.8,460.4,326.3,480z"/>
</g>
<g>
	<path class="st0" d="M480,139.7v186.6c-11.3-18.8-28-34.1-48-43.5V144h32C469.8,144,475.3,142.4,480,139.7L480,139.7z"/>
</g>
<g>
	<path class="st1" d="M384,112c0,17.7,14.3,32,32,32h16v138.8c-14.6-7-30.9-10.8-48-10.8c-47,0-87.3,29-103.8,70.1h-0.1L280,248
		c0-19.8-8.1-37.9-21.1-50.9c-13-13-31-21.1-50.9-21.1c-39.8,0-72,32.2-72,72v105.4c-5.2,7.9-8,17.3-8,26.9v3.7H88c-4.4,0-8-3.6-8-8
		V144h16c8.8,0,16.8-3.6,22.6-9.4c5.8-5.8,9.4-13.8,9.4-22.6c0,17.7,14.3,32,32,32h64c17.7,0,32-14.3,32-32c0,17.7,14.3,32,32,32h64
		C369.7,144,384,129.7,384,112L384,112z"/>
</g>
<g>
	<path class="st2" d="M136,16l-8,96H16l13.8-82.6C31,21.7,37.8,16,45.5,16H136z"/>
</g>
<g>
	<path class="st2" d="M376,16l8,96H256V16H376z"/>
</g>
<g>
	<path class="st3" d="M256,16v96H128l8-96H256z"/>
</g>
<g>
	<path class="st3" d="M482.2,29.4L496,112H384l-8-96h90.5C474.2,16,481,21.7,482.2,29.4L482.2,29.4z"/>
</g>
<g>
	<path class="st4" d="M384,112h112c0,8.8-3.6,16.8-9.4,22.6c-2,1.9-4.2,3.7-6.6,5c-4.7,2.7-10.2,4.3-16,4.3h-32h-16
		C398.3,144,384,129.7,384,112z"/>
</g>
<g>
	<path class="st4" d="M128,112h128c0,17.7-14.3,32-32,32h-64C142.3,144,128,129.7,128,112z"/>
</g>
<g>
	<path class="st2" d="M256,112h128c0,17.7-14.3,32-32,32h-64C270.3,144,256,129.7,256,112z"/>
</g>
<g>
	<path class="st2" d="M16,112h112c0,8.8-3.6,16.8-9.4,22.6c-5.8,5.8-13.8,9.4-22.6,9.4H80H48c-5.8,0-11.3-1.6-16-4.3
		C22.4,134.2,16,123.8,16,112z"/>
</g>
<g>
	<path class="st5" d="M280.1,342.1L280.1,342.1c-1,2.5-1.9,5-2.7,7.7c-1.2-1.4-2.4-2.8-3.8-4.2c-6.2-6.2-14.2-10.7-22.8-12.9
		l-4.7-1.2H246c-8.6-2.2-15.4-8.9-17.5-17.5l-1.7-6.7c3.5-1.8,6.7-4.2,9.5-7C243.5,293,248,283,248,272v-24l-2.6-0.9
		c-14.1-4.6-26.9-12.6-37.4-23.1c-10.6,10.6-23.4,18.5-37.4,23.1L168,248v24c0,15.3,8.6,28.6,21.2,35.3l-1.7,6.7
		c-2.2,8.6-8.9,15.4-17.5,17.5h-0.1l-4.7,1.2c-8.6,2.2-16.6,6.6-22.8,12.9c-2.4,2.4-4.6,5-6.4,7.8V248c0-39.8,32.2-72,72-72
		c19.8,0,37.9,8.1,50.9,21.1c13,13,21.1,31,21.1,50.9L280.1,342.1z"/>
</g>
<g>
	<path class="st6" d="M273.6,345.6c1.4,1.4,2.6,2.7,3.8,4.2c-3.5,10.8-5.4,22.3-5.4,34.2h-64l38.1-52.5l4.7,1.2
		C259.4,334.9,267.4,339.4,273.6,345.6L273.6,345.6z"/>
</g>
<g>
	<path class="st6" d="M169.9,331.5L208,384h-80v-3.7c0-9.6,2.8-19,8-26.9c1.8-2.8,4-5.4,6.4-7.8c6.2-6.2,14.2-10.7,22.8-12.9
		L169.9,331.5z"/>
</g>
<g>
	<path class="st7" d="M246.1,331.5L208,384l-38.1-52.5h0.1c8.6-2.2,15.4-8.9,17.5-17.5l1.7-6.7c5.6,3,12,4.7,18.8,4.7
		s13.2-1.7,18.8-4.7l1.7,6.7C230.6,322.6,237.4,329.4,246.1,331.5L246.1,331.5z"/>
</g>
<g>
	<path class="st7" d="M248,248v24c0,11-4.5,21-11.7,28.3c-2.8,2.8-6,5.1-9.5,7c-5.6,3-12,4.7-18.8,4.7s-13.2-1.7-18.8-4.7
		c-12.6-6.7-21.2-20-21.2-35.3v-24l2.6-0.9c14.1-4.6,26.9-12.6,37.4-23.1c10.6,10.6,23.4,18.5,37.4,23.1L248,248z"/>
</g>
<g>
	<path class="st8" d="M326.3,480c-32.6-19.6-54.3-55.3-54.3-96c0-11.9,1.8-23.4,5.4-34.2c0.8-2.6,1.8-5.2,2.8-7.7
		C296.7,301,337,272,384,272c17.1,0,33.4,3.8,48,10.8c20,9.4,36.7,24.7,48,43.5c10.2,16.9,16,36.6,16,57.7c0,61.8-50.2,112-112,112
		C363,496,343.2,490.2,326.3,480L326.3,480z"/>
</g>
<g>
	<path d="M392,312.8V296h-16v16h-32v40c0,22.1,17.9,40,40,40c13.2,0,24,10.8,24,24v24h-24c-13.2,0-24-10.8-24-24v-24h-16v24
		c0,19.3,13.8,35.5,32,39.2V472h16v-16h32v-40c0-22.1-17.9-40-40-40c-13.2,0-24-10.8-24-24v-24h24c13.2,0,24,10.8,24,24v24h16v-24
		C424,332.7,410.2,316.5,392,312.8L392,312.8z"/>
	<path d="M488,160v-16v-0.2c9.7-7.3,16-18.8,16-31.8l-13.9-83.9C488.2,16.4,478.2,8,466.4,8H45.6c-11.8,0-21.7,8.4-23.7,20.1
		L8.1,110.7L8,112c0,13,6.3,24.5,16,31.8V448c0,22.1,17.9,40,40,40h260.4c17.6,10.1,37.9,16,59.6,16c66.2,0,120-53.8,120-120
		c0-21.7-5.9-42-16-59.6V160z M440,277.9V248h24c2.8,0,5.5-0.6,8-1.5v56.2C462.8,292.8,452,284.3,440,277.9L440,277.9z M223.7,376
		l25.7-35.4c7,1.8,13.5,5.5,18.6,10.7c0.2,0.2,0.4,0.4,0.5,0.6c-2.2,7.8-3.5,15.8-4.1,24.1H223.7z M208,234.9
		c9.4,8.1,20.3,14.5,32,18.8V272c0,17.6-14.4,32-32,32s-32-14.4-32-32v-18.3C187.7,249.4,198.6,243,208,234.9z M194.6,318.1
		c4.3,1.2,8.8,1.9,13.4,1.9s9.2-0.7,13.4-1.9c2.2,6.9,6.6,12.7,12.5,16.6L208,370.4l-25.9-35.7C187.9,330.7,192.4,324.9,194.6,318.1
		z M247.9,323.7c-5.7-1.4-10.2-5.9-11.6-11.6l-0.3-1.2c12.1-8.7,20-22.9,20-38.9v-29.8l-8-2.7c-11.9-4-22.8-10.6-32-19.1V200h-16
		v20.4c-9.2,8.5-20.1,15.2-32,19.1l-8,2.7V272c0,16,7.9,30.2,20,38.9l-0.3,1.2c-1.4,5.7-5.9,10.2-11.6,11.6l-4.8,1.2
		c-7,1.7-13.5,4.8-19.3,9V248c0-35.3,28.7-64,64-64s64,28.7,64,64l0.1,86c-5.8-4.2-12.4-7.3-19.3-9L247.9,323.7z M148,351.3
		c5.1-5.1,11.6-8.8,18.6-10.7l25.6,35.4h-55.9C137.4,366.7,141.3,358,148,351.3z M288.1,312.2L288,248c0-44.1-35.9-80-80-80
		s-80,35.9-80,80v103.3c-4.5,7.5-7.1,15.9-7.8,24.7H88V152h8c13.2,0,24.8-6.5,32.1-16.2c7.3,9.8,18.8,16.2,31.9,16.2h64
		c13.1,0,24.7-6.4,32-16.2c7.3,9.8,18.9,16.2,32,16.2h64c13.1,0,24.7-6.4,32-16.2c7.3,9.8,18.9,16.2,32,16.2h8v16h-40
		c-13.2,0-24,10.8-24,24s10.8,24,24,24h40v16h-24c-13.2,0-24,10.8-24,24v8.4C340.1,266.8,308.5,285,288.1,312.2L288.1,312.2z
		 M25.5,120h93c-3.3,9.3-12.1,16-22.5,16H48C37.6,136,28.8,129.3,25.5,120z M464,200h-24v-16h24c2.8,0,5.5-0.6,8-1.5v19
		C469.5,200.6,466.8,200,464,200z M472,224c0,4.4-3.6,8-8,8h-24v-16h24C468.4,216,472,219.6,472,224z M424,200h-40c-4.4,0-8-3.6-8-8
		s3.6-8,8-8h40V200z M464,168h-24v-16h24c2.7,0,5.4-0.3,8-0.8v8.8C472,164.4,468.4,168,464,168z M464,136h-48
		c-10.3,0-19-6.6-22.4-16h93C483.2,129.3,474.4,136,464,136z M137.5,120h109c-3.3,9.3-12.1,16-22.5,16h-64
		C149.6,136,140.8,129.3,137.5,120z M265.5,120h109c-3.3,9.3-12.1,16-22.5,16h-64C277.6,136,268.8,129.3,265.5,120L265.5,120z
		 M392,256c0-4.4,3.6-8,8-8h24v23c-10.1-3.6-20.8-5.9-32-6.6V256z M466.4,24c3.9,0,7.2,2.8,7.9,6.7l12.2,73.3h-95.2l-6.7-80H466.4z
		 M375.3,104H264V24h104.6L375.3,104z M248,24v80H136.7l6.7-80H248z M37.7,30.7c0.6-3.9,4-6.7,7.9-6.7h81.8l-6.6,80H25.4L37.7,30.7z
		 M64,472c-13.2,0-24-10.8-24-24V151.2c2.6,0.5,5.3,0.8,8,0.8h24v224c0,8.8,7.2,16,16,16h176.4c2.1,31.6,16.4,59.8,38.3,80H64z
		 M384,488c-57.3,0-104-46.7-104-104s46.7-104,104-104s104,46.7,104,104S441.3,488,384,488z"/>
</g>
</svg>
