<?xml version="1.0" encoding="utf-8"?>
<!-- Generator: Adobe Illustrator 23.1.0, SVG Export Plug-In . SVG Version: 6.00 Build 0)  -->
<svg version="1.1" id="Layer_35" xmlns="http://www.w3.org/2000/svg" xmlns:xlink="http://www.w3.org/1999/xlink" x="0px" y="0px"
	 viewBox="0 0 512 512" style="enable-background:new 0 0 512 512;" xml:space="preserve">
<style type="text/css">
	.st0{fill:#AAB2BD;}
	.st1{fill:#838F9B;}
	.st2{fill:#CCD1D9;}
	.st3{fill:#E6E9ED;}
	.st4{fill:#B1E4F9;}
	.st5{fill:#4A81F6;}
	.st6{fill:#F0D0B4;}
</style>
<path class="st0" d="M368,272v16c0,8.8-7.2,16-16,16H248c-6.9-9.1-15-17.2-24-24v-24h112h16C360.8,256,368,263.2,368,272z"/>
<path class="st0" d="M176,258.2v0.2c-7.8-1.6-15.8-2.4-24-2.4s-16.2,0.8-24,2.4V160H40c-6.6,0-12.6-2.7-17-7s-7-10.3-7-17
	c0-13.3,10.7-24,24-24h112c13.3,0,24,10.7,24,24v72V258.2z"/>
<path class="st1" d="M347.7,448c2.7,4.7,4.3,10.2,4.3,16s-1.6,11.3-4.3,16c-5.5,9.6-15.8,16-27.7,16c-17.7,0-32-14.3-32-32
	c0-15,10.3-27.6,24.2-31c2.5-0.6,5.1-1,7.8-1c9.5,0,18.1,4.2,24,10.8C345.4,444.4,346.6,446.2,347.7,448z"/>
<path class="st2" d="M352,464c0-5.8-1.6-11.3-4.3-16h69.2H472h16c4.4,0,8,3.6,8,8v16c0,4.4-3.6,8-8,8H347.7
	C350.4,475.3,352,469.8,352,464z"/>
<path class="st2" d="M312,432l7.8-48h8.2c12.1,0,22.6-6.7,28.1-16.6L344,442.8c-5.9-6.6-14.5-10.8-24-10.8c-2.6,0-5.3,0.3-7.8,1
	L312,432z"/>
<path class="st0" d="M319.8,384h-48.1h-0.1c0.2-2.6,0.3-5.3,0.3-8c0-14.1-2.4-27.5-6.9-40h0.1h89.2c2.2,0,4.1,0.9,5.6,2.3V352
	c0,5.5-1.4,10.7-3.9,15.3v0.1c-5.4,9.9-16,16.6-28.1,16.6H319.8z"/>
<path class="st3" d="M169,359c4.3,4.3,7,10.3,7,17s-2.7,12.6-7,17s-10.3,7-17,7s-12.6-2.7-17-7s-7-10.3-7-17s2.7-12.6,7-17
	s10.3-7,17-7S164.6,354.7,169,359L169,359z"/>
<path class="st1" d="M272,376c0,2.7-0.1,5.4-0.3,8c-4.1,62.6-56.2,112-119.7,112c-66.2,0-120-53.8-120-120c0-58,41.2-106.5,96-117.6
	c7.8-1.6,15.8-2.4,24-2.4s16.2,0.8,24,2.4v32.9c-7.6-2.2-15.7-3.3-24-3.3c-24.3,0-46.3,9.8-62.2,25.8S64,351.7,64,376
	s9.8,46.3,25.8,62.2S127.7,464,152,464s46.3-9.8,62.2-25.8S240,400.3,240,376c0-23.8-9.5-45.5-24.9-61.4c0.6-0.6,1.3-1.1,1.8-1.7
	c4.3-4.3,7-10.3,7-17v-16c9,6.8,17.1,14.9,24,24c7.2,9.6,13,20.4,17.1,32C269.6,348.5,272,361.9,272,376L272,376z"/>
<path class="st4" d="M489,407c4.3,4.3,7,10.3,7,17c0,13.3-10.7,24-24,24h-55.1c-10.1,0-19.1-6.4-22.6-15.9l-32.4-90.8
	c-0.4-1.1-1.1-2.2-1.9-3c-1.5-1.4-3.4-2.3-5.6-2.3h-89.2h-0.1c-4.1-11.6-9.9-22.4-17.1-32h104c8.8,0,16-7.2,16-16h9.4
	c13.5,0,25.6,8.5,30.2,21.2L440,400h32C478.6,400,484.6,402.7,489,407L489,407z"/>
<path class="st5" d="M224,280v16c0,6.6-2.7,12.6-7,17c-0.6,0.6-1.2,1.1-1.8,1.7c-1.4,1.2-3,2.2-4.8,3c-3.1,1.4-6.6,2.3-10.3,2.3
	c-13.3,0-24-10.7-24-24v-4.7v-32.9v-0.2V208c0-22.1,9-42.1,23.4-56.6S233.9,128,256,128c36.6,0,67.4,27.2,71.9,63.5L336,256H224
	L224,280z"/>
<circle class="st6" cx="264" cy="72" r="56"/>
<path d="M497.5,443.2c4-5.4,6.5-12,6.5-19.2c0-17.6-14.4-32-32-32h-26.4l-30.5-85.5c-5.7-15.9-20.8-26.5-37.7-26.5H376v-8
	c0-13.2-10.8-24-24-24h-8.9l-7.2-57.5c-3.4-27.1-20.1-49.6-43-61.5c20.8-10.6,35.1-32.1,35.1-57c0-35.3-28.7-64-64-64
	s-64,28.7-64,64c0,21.9,11,41.2,27.8,52.7c-17.9,6.1-33.1,17.7-43.8,32.8V136c0-17.6-14.4-32-32-32H40c-17.6,0-32,14.4-32,32
	s14.4,32,32,32h80v84.2C64.9,266.5,24,316.5,24,376c0,70.6,57.4,128,128,128c65.2,0,119-49,126.9-112h31.5l-5.7,35.1
	c-14.5,6-24.7,20.3-24.7,36.9c0,22.1,17.9,40,40,40c13,0,24.5-6.3,31.8-16H488c8.8,0,16-7.2,16-16v-16
	C504,450.7,501.4,446.1,497.5,443.2z M400,311.9l34.3,96.1H472c8.8,0,16,7.2,16,16s-7.2,16-16,16h-55.1c-6.7,0-12.8-4.3-15.1-10.6
	l-32.4-90.8c-2.3-6.4-8.3-10.6-15.1-10.6h-83.8c-2.2-5.5-4.9-10.8-7.8-16H352c10.4,0,19.2-6.7,22.5-16h2.9
	C387.6,296,396.6,302.4,400,311.9L400,311.9z M363.7,370.3l23,64.5c0.7,1.8,1.5,3.6,2.5,5.2h-36.7L363.7,370.3z M360,272v16
	c0,4.4-3.6,8-8,8H251.9c-5.8-7.2-12.5-13.8-19.9-19.7V264h120C356.4,264,360,267.6,360,272L360,272z M168.2,297.8
	c0.8,13.4,9.8,24.6,22.2,28.5l-22.2,22.2c-2.5-1.5-5.2-2.6-8.2-3.4v-48.6C162.8,296.8,165.5,297.3,168.2,297.8L168.2,297.8z
	 M152,392c-8.8,0-16-7.2-16-16s7.2-16,16-16s16,7.2,16,16S160.8,392,152,392z M144,345.1c-2.9,0.8-5.6,1.9-8.2,3.4l-34.4-34.4
	c11.9-9.7,26.5-16.1,42.6-17.7L144,345.1z M90.1,325.4l34.4,34.4c-1.5,2.5-2.6,5.2-3.4,8.2H72.4C74,351.9,80.4,337.3,90.1,325.4z
	 M121.1,384c0.8,2.9,1.9,5.6,3.4,8.2l-34.4,34.4C80.4,414.7,74,400.1,72.4,384H121.1z M135.8,403.5c2.5,1.5,5.2,2.6,8.2,3.4v48.7
	c-16.1-1.6-30.7-8-42.6-17.7L135.8,403.5z M160,406.9c2.9-0.8,5.6-1.9,8.2-3.4l34.4,34.4c-11.9,9.7-26.5,16.1-42.6,17.7L160,406.9z
	 M213.9,426.6l-34.4-34.4c1.5-2.5,2.6-5.2,3.4-8.2h48.7C230,400.1,223.6,414.7,213.9,426.6L213.9,426.6z M182.9,368
	c-0.8-2.9-1.9-5.6-3.4-8.2l34.5-34.5c10,12.2,16.1,26.9,17.7,42.6H182.9z M216,72c0-26.5,21.5-48,48-48s48,21.5,48,48
	s-21.5,48-48,48S216,98.5,216,72L216,72z M256,136c32.5,0,60,24.3,64,56.5l6.9,55.5H232v-41.4c0-12.5,4.8-24.2,13.7-33l-11.3-11.3
	c-11.8,11.8-18.3,27.6-18.3,44.3V296c0,8.8-7.2,16-16,16s-16-7.2-16-16v-37.7V208C184,168.3,216.3,136,256,136z M40,152
	c-8.8,0-16-7.2-16-16s7.2-16,16-16h112c8.8,0,16,7.2,16,16v72v41.1c-5.3-0.7-10.6-1.1-16-1.1c-5.4,0-10.7,0.4-16,1.1V152H40z
	 M152,488c-61.8,0-112-50.2-112-112s50.2-112,112-112c5.4,0,10.7,0.5,16,1.3v16.1c-5.3-0.9-10.6-1.4-16-1.4c-52.9,0-96,43.1-96,96
	s43.1,96,96,96s96-43.1,96-96c0-22.6-7.9-44.1-22.2-61.3c3.5-4.9,5.7-10.7,6-17.1c20.5,20.8,32.2,48.5,32.2,78.4
	C264,437.8,213.8,488,152,488L152,488z M275.9,344H352v8c0,13.2-10.8,24-24,24h-48C280,365,278.5,354.3,275.9,344z M328,392
	c6,0,11.6-1.4,16.6-3.7l-6.5,40.3c-5.1-2.6-10.7-4.2-16.8-4.4l5.2-32.1L328,392z M320,488c-13.2,0-24-10.8-24-24s10.8-24,24-24
	s24,10.8,24,24S333.2,488,320,488z M488,472H359.2c0.5-2.6,0.8-5.3,0.8-8s-0.3-5.4-0.8-8h57.7H472h16V472z"/>
</svg>
