<?xml version="1.0" encoding="utf-8"?>
<!-- Generator: Adobe Illustrator 23.1.0, SVG Export Plug-In . SVG Version: 6.00 Build 0)  -->
<svg version="1.1" id="Capa_1" xmlns="http://www.w3.org/2000/svg" xmlns:xlink="http://www.w3.org/1999/xlink" x="0px" y="0px"
	 viewBox="0 0 512 512" style="enable-background:new 0 0 512 512;" xml:space="preserve">
<style type="text/css">
	.st0{fill:#B1E4F9;}
	.st1{fill:#898890;}
	.st2{fill:#4A81F6;}
	.st3{fill:#E0E0E2;}
	.st4{fill:#4070F6;}
	.st5{fill:#FFFFFF;}
</style>
<path class="st0" d="M489.4,432L231.3,173.9c19.5-43,11.5-95.4-23.9-130.8C173.9,9.5,125.1,0.6,83.5,16.3l60.7,60.7l-68.1,68.1
	L15.5,84.5c-15.8,42.2-6.3,91.9,27.9,125.1c35.3,34.3,87,41.8,129.5,22.6L431,490.3c16.1,16.1,42.2,16.1,58.3,0
	S505.5,448.1,489.4,432z M453.4,470.2c-8.9,0-16.1-7.2-16.1-16.1s7.2-16.1,16.1-16.1s16.1,7.2,16.1,16.1S462.3,470.2,453.4,470.2z"
	/>
<path class="st1" d="M257.9,200.4l-10.7,11.5l-5.8-5.8c-16.8-16.8-44.2-16.8-61,0c-7.6,7.6-12,17.6-12.6,28.2
	c1.7-0.7,3.5-1.4,5.2-2.2l118.2,118.2c8-1.6,15.6-5.5,21.7-11.7c16.8-16.8,16.8-44.2,0-61l-4.7-4.7l10.7-11.5L257.9,200.4z"/>
<g>
	<path class="st2" d="M25,486.3L25,486.3c-22.6-22.6-22.6-59.2,0-81.7l165.4-157.6l81.7,81.7L106.8,486.3
		C84.2,508.8,47.6,508.8,25,486.3z"/>
	<path class="st2" d="M267.1,323.5L195.5,252c-8.5-8.5-8.5-22.2,0-30.6l0,0c8.5-8.5,22.2-8.5,30.6,0l71.5,71.5
		c8.5,8.5,8.5,22.2,0,30.6l0,0C289.2,332,275.5,332,267.1,323.5z"/>
</g>
<polygon class="st3" points="501.7,42.3 471,11.7 383.6,66.3 359.1,123.5 247.6,242.8 278.3,273.4 389.8,154.2 444.9,127.6 "/>
<rect x="16.4" y="365.3" transform="matrix(0.7071 -0.7071 0.7071 0.7071 -229.5843 192.4345)" width="202.3" height="16.1"/>
<rect x="36.8" y="385.7" transform="matrix(0.7071 -0.7071 0.7071 0.7071 -238.0431 212.8745)" width="202.3" height="16.1"/>
<path class="st4" d="M272.2,328.6l-81.7-81.7l-17.9,17.1l65.7,64.8L106.8,454.1c-22.6,22.6-59.2,22.6-81.7,0l0,0
	c-7.1-7.1-12-15.7-14.6-24.8c-5.7,19.6-0.8,41.5,14.6,57l0,0c22.6,22.6,59.2,22.6,81.7,0L272.2,328.6z"/>
<path class="st5" d="M433.4,420.5l-11.2-11.1l11.3-11.4l11.2,11.1L433.4,420.5z M410.8,398.1l-63.2-62.7l11.3-11.4l63.2,62.7
	L410.8,398.1z"/>
<path class="st5" d="M221.3,159.3l-16.9-2.7c1.9-12,3.2-21.7,3.2-30.4c0-12.6-2.8-23.2-9.8-37.9C190.4,73,179.7,61.1,165,51.9
	l9.1-14.5c17.5,11,30.3,25.2,39.1,43.4c8.2,17,11.5,30.1,11.5,45.4C224.7,136,223.4,146.6,221.3,159.3z M151.8,44.9
	c-4.4-2-9.1-3.9-14.5-5.8l5.7-16.2c5.9,2.1,11.1,4.2,16,6.4L151.8,44.9z"/>
<path class="st5" d="M410.3,91.4l-9.6-14.2L438,51.9l9.6,14.2L410.3,91.4z M460.9,57.2l-9.6-14.2l13.4-9l9.6,14.2L460.9,57.2z"/>
<path d="M303.4,329.2c11.6-11.6,11.6-30.4,0-42l-13.9-13.9l105.1-112.4l55.8-26.9L512,41.3L472.2,1.5l-94.9,59.4l-25,58.2
	L247.4,231.2l-15.6-15.6c-11.6-11.6-30.4-11.6-42,0c-7.6,7.6-10.2,18.4-7.8,28.1L19.5,398.7l-0.1,0.1c-12.4,12.4-19.3,29-19.3,46.6
	s6.8,34.1,19.3,46.6c12.8,12.8,29.7,19.3,46.6,19.3c16.8,0,33.7-6.4,46.5-19.2L275.1,337c2.4,0.6,4.9,0.9,7.3,0.9
	C290,337.9,297.6,335,303.4,329.2z M366,128L390,71.8l79.8-49.9l21.5,21.5l-51.8,78l-54.5,26.3L278.1,261.9l-19.3-19.3L366,128z
	 M201.2,227c2.7-2.7,6.1-4,9.6-4s7,1.3,9.6,4l16,16l0,0l42,42l0,0l13.5,13.5c5.3,5.3,5.3,14,0,19.3c-5.3,5.3-14,5.3-19.3,0
	l-71.5-71.5C195.9,241,195.9,232.3,201.2,227z M101.2,480.4l-0.1,0.1c-19.4,19.4-51,19.4-70.4,0l0,0c-9.4-9.4-14.6-21.9-14.6-35.2
	c0-13.3,5.1-25.7,14.5-35.1l159.6-152.2l70.4,70.4L101.2,480.4z"/>
<rect x="0.4" y="314.6" transform="matrix(0.7071 -0.7071 0.7071 0.7071 -198.3765 166.2776)" width="202.3" height="16.1"/>
<rect x="36.8" y="385.7" transform="matrix(0.7071 -0.7071 0.7071 0.7071 -238.0466 212.8692)" width="202.3" height="16.1"/>
<rect x="119.9" y="143.6" transform="matrix(0.7071 -0.7071 0.7071 0.7071 -69.7885 134.9032)" width="16.1" height="16.1"/>
<rect x="165.8" y="99.1" transform="matrix(0.7071 -0.7071 0.7071 0.7071 -25.2114 153.3681)" width="13.4" height="16.1"/>
<rect x="142.7" y="120.9" transform="matrix(0.7071 -0.7071 0.7071 0.7071 -47.0327 144.3365)" width="16.1" height="16.1"/>
<rect x="97.1" y="166.4" transform="matrix(0.7071 -0.7071 0.7071 0.7071 -92.5474 125.4781)" width="16.1" height="16.1"/>
<path d="M104.2,248.9c6.9,1.1,13.8,1.7,20.7,1.7c17.7,0,35.1-3.7,51.4-11.1l-6.6-14.7c-41,18.5-88.4,10.3-120.6-21.1
	C21.1,176.7,10.1,137,19.2,99.6l56.9,56.9l79.4-79.4l-57-57c36.7-9.1,76,1.6,103.2,28.7c31.8,31.8,40.8,80.8,22.2,121.8l-2.3,5.1
	l32,32l11.4-11.4L240.8,172c8.6-21.5,11-44.8,7-67.8c-4.4-25.4-16.4-48.5-34.7-66.8C178.5,2.7,126.5-8.5,80.6,8.8L69,13.2l63.9,63.9
	l-56.7,56.7L12.3,69.9L8,81.7c-17.4,46.7-5.7,99.2,29.8,133.7C56.1,233.1,79.1,244.7,104.2,248.9z"/>
<path d="M324.9,256.1l-11.4,11.4l170.1,170.1c6.3,6.3,9.7,14.6,9.7,23.5s-3.5,17.2-9.7,23.5s-14.6,9.7-23.5,9.7s-17.2-3.5-23.5-9.7
	L303.5,351.4l-11.4,11.4L425.4,496c9.3,9.3,21.7,14.4,34.9,14.4s25.5-5.1,34.9-14.4c9.3-9.3,14.4-21.7,14.4-34.9
	s-5.1-25.5-14.4-34.9L324.9,256.1z"/>
<path d="M477.5,454.1c0-13.3-10.8-24.1-24.1-24.1s-24.1,10.8-24.1,24.1s10.8,24.1,24.1,24.1S477.5,467.4,477.5,454.1z M445.3,454.1
	c0-4.4,3.6-8,8-8s8,3.6,8,8s-3.6,8-8,8S445.3,458.5,445.3,454.1z"/>
</svg>
