<?xml version="1.0" encoding="utf-8"?>
<!-- Generator: Adobe Illustrator 23.1.0, SVG Export Plug-In . SVG Version: 6.00 Build 0)  -->
<svg version="1.1" id="Слой_1" xmlns="http://www.w3.org/2000/svg" xmlns:xlink="http://www.w3.org/1999/xlink" x="0px" y="0px"
	 viewBox="0 0 512 512" style="enable-background:new 0 0 512 512;" xml:space="preserve">
<style type="text/css">
	.st0{fill:#4A81F6;}
	.st1{fill:#B5BCC9;}
	.st2{fill:#FFFFFF;}
	.st3{fill:#FFC15A;}
	.st4{fill:#91DEF5;}
</style>
<path class="st0" d="M383.4,202.6v106.4l-140.2,72.3L103,309.1V202.6H383.4z"/>
<path class="st1" d="M476.4,150.3L243.2,270.6L10,150.3L243.2,30L476.4,150.3z"/>
<path class="st2" d="M502,324.9h-51.2v-75.2c0-14.1,11.5-25.6,25.6-25.6c14.1,0,25.6,11.5,25.6,25.6V324.9z"/>
<path class="st3" d="M502,324.9h-51.2v-75.2c0-14.1,11.5-25.6,25.6-25.6c14.1,0,25.6,11.5,25.6,25.6V324.9z"/>
<path class="st4" d="M425,356.3l-34.9,34.9l53.5,53.5L406.2,482l-53.5-53.5l-34.9,34.9l-19.6-73.2l-19.6-73.2L425,356.3z"/>
<path d="M253.2,150.3c0-2.6-1.1-5.2-2.9-7.1c-1.9-1.9-4.4-2.9-7.1-2.9c-2.6,0-5.2,1.1-7.1,2.9s-2.9,4.4-2.9,7.1
	c0,2.6,1.1,5.2,2.9,7.1c1.9,1.9,4.4,2.9,7.1,2.9c2.6,0,5.2-1.1,7.1-2.9C252.1,155.5,253.2,152.9,253.2,150.3z"/>
<path d="M486.4,215.5v-65.2c0-3.7-2.1-7.2-5.4-8.9L247.8,21.1c-2.9-1.5-6.3-1.5-9.2,0L5.4,141.4c-3.3,1.7-5.4,5.1-5.4,8.9
	s2.1,7.2,5.4,8.9L93,204.4v104.7c0,3.7,2.1,7.2,5.4,8.9l140.2,72.3c1.4,0.7,3,1.1,4.6,1.1c1.6,0,3.1-0.4,4.6-1.1l35.3-18.2l25.2,94
	c0.9,3.5,3.6,6.1,7.1,7.1c3.5,0.9,7.1-0.1,9.7-2.6l27.8-27.8l46.4,46.4c1.9,1.9,4.4,2.9,7.1,2.9s5.2-1.1,7.1-2.9l37.4-37.4
	c3.9-3.9,3.9-10.2,0-14.1l-46.4-46.4l27.8-27.8c2.5-2.5,3.5-6.2,2.6-9.7c-0.9-3.5-3.6-6.1-7.1-7.1l-62.7-16.8L388,318
	c3.3-1.7,5.4-5.1,5.4-8.9V204.4l73-37.7v48.8c-14.8,4.3-25.6,18-25.6,34.2v75.2c0,5.5,4.5,10,10,10H502c5.5,0,10-4.5,10-10v-75.2
	C512,233.6,501.2,219.9,486.4,215.5z M243.2,41.3l192,99.1h-147c-5.5,0-10,4.5-10,10c0,5.5,4.5,10,10,10h147l-192,99.1L31.8,150.3
	L243.2,41.3z M383,384.1c-1.9,1.9-2.9,4.4-2.9,7.1s1.1,5.2,2.9,7.1l46.4,46.4l-23.2,23.2l-46.4-46.4c-1.9-1.9-4.4-2.9-7.1-2.9
	c-2.7,0-5.2,1.1-7.1,2.9l-22.6,22.6l-30.2-112.9l112.9,30.2L383,384.1z M373.4,303l-37.2,19.2l-54.9-14.7c-3.5-0.9-7.1,0.1-9.7,2.6
	c-2.5,2.5-3.5,6.2-2.6,9.7l8.7,32.6l-34.6,17.8L113,303v-88.3l125.6,64.8c1.4,0.7,3,1.1,4.6,1.1c1.6,0,3.1-0.4,4.6-1.1l125.6-64.8
	V303z M492,314.9h-31.2v-65.2c0-8.6,7-15.6,15.6-15.6c8.6,0,15.6,7,15.6,15.6V314.9z"/>
</svg>
