<?xml version="1.0" encoding="utf-8"?>
<!-- Generator: Adobe Illustrator 23.1.0, SVG Export Plug-In . SVG Version: 6.00 Build 0)  -->
<svg version="1.1" id="Слой_1" xmlns="http://www.w3.org/2000/svg" xmlns:xlink="http://www.w3.org/1999/xlink" x="0px" y="0px"
	 viewBox="0 0 511 511" style="enable-background:new 0 0 511 511;" xml:space="preserve">
<style type="text/css">
	.st0{fill:#8CBAFA;}
	.st1{fill:#5692D8;}
	.st2{fill:#B1E4F9;}
	.st3{fill:#4A81F6;}
	.st4{fill:#E9E9EA;}
	.st5{fill:#665E66;}
	.st6{fill:#C5C4CC;}
	.st7{fill:#756E78;}
	.st8{fill:#F0F0F2;}
</style>
<path class="st0" d="M487.1,503.5H22.5c-2.9,0-4.8-2.9-3.7-5.5c38.7-92.1,129.8-156.8,236-156.8c106.2,0,197.3,64.7,236,156.8
	C491.9,500.6,489.9,503.5,487.1,503.5z"/>
<path class="st1" d="M490.8,498C452,405.8,361,341.1,254.8,341.1c-5.2,0-10.4,0.2-15.5,0.5c99.5,5.9,183.7,68.7,220.5,156.4
	c1.1,2.6-0.8,5.5-3.7,5.5h30.9C489.9,503.5,491.9,500.6,490.8,498z"/>
<path class="st2" d="M397.1,149.9C397.1,71.6,334,8.1,255.9,7.5c-77.5-0.6-141.7,61.6-143.4,139c-1.4,62.2,37.1,115.6,91.6,136.4
	c4.4,1.7,8,5.2,9.7,9.6l29.3,72.3c4.3,10.5,19.1,10.5,23.4,0l29.3-72.3c1.8-4.4,5.3-7.9,9.8-9.7
	C359.1,262.5,397.1,210.6,397.1,149.9z"/>
<path class="st3" d="M255.9,7.5c-4.2,0-8.4,0.1-12.5,0.5c73.2,5.9,130.8,67.2,130.8,141.9c0,60.7-38,112.6-91.6,133
	c-4.5,1.7-8,5.2-9.8,9.7l-29.3,72.3c-0.1,0.2-0.1,0.3-0.2,0.5c4.5,10,19,9.9,23.2-0.5l29.3-72.3c1.8-4.4,5.3-7.9,9.8-9.7
	c53.6-20.4,91.6-72.3,91.6-133C397.1,71.6,334,8.1,255.9,7.5z"/>
<path class="st4" d="M186.2,100v124.9c0,3.7,3,6.7,6.6,6.7h123.9c3.7,0,6.7-3,6.7-6.7V100H186.2z"/>
<path class="st5" d="M280.7,100v20.9c0,14.3,11.6,25.9,25.9,25.9s25.9-11.6,25.9-25.9V100H280.7z"/>
<path class="st5" d="M177,100v20.9c0,14.3,11.6,25.9,25.9,25.9c14.3,0,25.9-11.6,25.9-25.9V100H177z"/>
<path class="st6" d="M228.8,100v20.9c0,14.3,11.6,25.9,25.9,25.9s25.9-11.6,25.9-25.9V100H228.8z"/>
<path class="st7" d="M197.1,63.4L177,100h155.6l-20.2-36.6c-1.6-3-4.7-4.8-8.1-4.8h-99.1C201.9,58.6,198.8,60.4,197.1,63.4z"/>
<path class="st8" d="M280.7,100h-51.9l7.6-41.4h36.7L280.7,100z"/>
<path class="st0" d="M231.8,171.3v60.3h45.9v-60.3c0-1-0.8-1.8-1.8-1.8h-42.3C232.6,169.5,231.8,170.3,231.8,171.3z"/>
<path class="st2" d="M433.8,221.8c-32.5-0.3-59.4,25.8-60.2,58.3c-0.6,26.1,15.5,48.5,38.4,57.2c1.9,0.7,3.3,2.2,4.1,4l12.3,30.3
	c1.8,4.4,8,4.4,9.8,0l12.3-30.3c0.8-1.9,2.2-3.3,4.1-4.1c22.5-8.6,38.4-30.3,38.4-55.8C493,248.7,466.5,222.1,433.8,221.8z
	 M433.3,298.9c-9.6,0-17.3-7.8-17.3-17.3c0-9.6,7.8-17.3,17.3-17.3c9.6,0,17.3,7.8,17.3,17.3C450.6,291.1,442.9,298.9,433.3,298.9z"
	/>
<path class="st2" d="M80.1,325.9c-32.5-0.2-59.4,25.8-60.2,58.3c-0.6,26.1,15.5,48.5,38.4,57.2c1.9,0.7,3.3,2.2,4.1,4l12.3,30.3
	c1.8,4.4,8,4.4,9.8,0l12.3-30.3c0.8-1.9,2.2-3.3,4.1-4.1c22.5-8.6,38.4-30.3,38.4-55.8C139.4,352.8,112.9,326.2,80.1,325.9z
	 M79.6,403c-9.6,0-17.3-7.8-17.3-17.3s7.8-17.3,17.3-17.3c9.6,0,17.3,7.8,17.3,17.3S89.2,403,79.6,403z"/>
<path d="M410.5,384.6c-36.5-26.8-79.3-43.7-124.1-49.1l16.3-40.2c1-2.5,3-4.5,5.5-5.5c28.1-10.7,52-29.4,69.3-54.1
	c17.7-25.3,27.1-55,27.1-85.9c0-39.8-15.5-77.3-43.5-105.6C333.1,16,295.7,0.3,255.9,0c-36.8-0.3-72.4,13-100.1,37.5
	c-3.1,2.7-3.4,7.5-0.7,10.6c2.7,3.1,7.5,3.4,10.6,0.7c25-22,57-34.1,90.1-33.8c35.8,0.3,69.4,14.4,94.7,39.9
	c25.3,25.4,39.2,59.2,39.2,95c0,27.9-8.4,54.6-24.4,77.3c-15.6,22.2-37.2,39.1-62.4,48.7c-6.4,2.4-11.5,7.5-14.1,13.8L267.6,342
	c0,0.1-0.1,0.1-0.1,0.2c0,0,0,0,0,0.1l-8,19.7c-1.2,2.9-3.7,3.2-4.7,3.2c-1,0-3.6-0.3-4.7-3.2l-9.2-22.7c0-0.1-0.1-0.2-0.1-0.3
	l-20-49.3c-2.6-6.4-7.7-11.4-14-13.8c-53.2-20.3-88.1-72.2-86.8-129.2c0.6-27.9,9.8-54.5,26.5-76.9c2.5-3.3,1.8-8-1.5-10.5
	c-3.3-2.5-8-1.8-10.5,1.5c-18.5,25-28.7,54.5-29.4,85.5c-1.5,63.3,37.3,121,96.4,143.6c2.5,0.9,4.5,2.9,5.5,5.5l16.3,40.2
	c-20.9,2.5-41.4,7.5-61,14.9c-3.9,1.5-5.8,5.8-4.4,9.6c1.1,3,4,4.9,7,4.9c0.9,0,1.8-0.2,2.6-0.5c13.4-5,27.1-8.9,41.1-11.5
	c-18.2,16-34.2,41.3-46.7,73.7h-29.1c8.9-11.6,14.1-25.9,14.1-41c0-36.8-29.9-66.9-66.7-67.2c-0.2,0-0.3,0-0.5,0
	c-36.3,0-66.4,29.3-67.2,65.6c-0.7,28.3,16.7,54.2,43.1,64.3l12.2,30.2c2,4.8,6.6,8,11.8,8s9.9-3.1,11.8-8l12.2-30.2
	c4.6-1.8,9-4.1,13-6.7h39.8c-5.5,16.6-10.1,34.8-13.8,54.4H27.8c4.3-9.7,9.4-19.3,14.9-28.4c2.2-3.5,1-8.1-2.5-10.3s-8.1-1-10.3,2.5
	C23,471.1,17,483,11.9,495.1c-1.5,3.6-1.1,7.6,1,10.8c2.1,3.2,5.7,5.1,9.6,5.1h464.6c3.9,0,7.4-1.9,9.6-5.1c2.1-3.2,2.5-7.3,1-10.8
	C479.2,451.1,449.1,413,410.5,384.6z M98.3,434.4c-3.8,1.4-6.9,4.4-8.4,8.2l-10.2,25.3l-10.2-25.3c-1.5-3.8-4.6-6.8-8.4-8.2
	c-20.6-7.9-34.1-28-33.6-50c0.6-28.2,24-51,52.2-51h0.4c28.6,0.2,51.8,23.6,51.8,52.2C131.9,407.1,118.4,426.8,98.3,434.4z
	 M231.1,355.1l5.1,12.5c3.1,7.6,10.4,12.5,18.6,12.5s15.5-4.9,18.6-12.5l5.1-12.5c11.9,6.6,23.5,18.3,33.8,34.1
	c1.4,2.2,3.8,3.4,6.3,3.4c1.4,0,2.8-0.4,4.1-1.2c3.5-2.3,4.4-6.9,2.2-10.4c-7.4-11.4-15.4-20.8-23.7-28.1
	c36.3,6.8,70.6,21.7,100.6,43.8c12.2,9,23.6,19,33.9,29.9h-87.9c-2.5-6.4-5.1-12.6-7.8-18.5c-1.8-3.7-6.2-5.4-10-3.6
	c-3.7,1.8-5.4,6.2-3.6,10c1.8,3.9,3.6,7.9,5.3,12.1H178C192.3,391.7,210.7,366.4,231.1,355.1z M157.9,496
	c3.8-19.7,8.7-37.9,14.4-54.4h164.8c5.8,16.7,10.7,35,14.5,54.4H157.9z M366.8,496c-3.6-19.2-8.3-37.6-13.9-54.4h95.6
	c13.3,16.6,24.5,34.9,33.2,54.4H366.8z"/>
<path d="M192.8,239h123.9c7.8,0,14.1-6.3,14.1-14.1v-81c5.7-6,9.2-14.1,9.2-23V100c0,0,0-0.1,0-0.1c0,0,0-0.1,0-0.1
	c0-0.1,0-0.1,0-0.2c0,0,0,0,0,0c-0.1-1.2-0.4-2.4-1-3.4L319,59.8c-2.9-5.3-8.6-8.7-14.7-8.7h-31c-0.1,0-0.1,0-0.2,0h-36.7
	c-0.1,0-0.1,0-0.2,0h-31c-6.1,0-11.7,3.3-14.7,8.7l-20.1,36.4c-0.6,1.1-1,2.3-1,3.6v0.1c0,0,0,0.1,0,0.1v20.9c0,8.9,3.5,17,9.2,23
	v81C178.7,232.7,185,239,192.8,239z M266.9,66.1l4.8,26.4h-33.9l4.8-26.4H266.9z M325.1,120.9c0,10.2-8.3,18.5-18.5,18.5
	s-18.5-8.3-18.5-18.5v-13.4h36.9V120.9z M236.3,107.5h36.9v13.4c0,10.2-8.3,18.5-18.5,18.5c-10.2,0-18.5-8.3-18.5-18.5L236.3,107.5
	L236.3,107.5z M221.3,107.5v13.4c0,10.2-8.3,18.5-18.5,18.5c-10.2,0-18.5-8.3-18.5-18.5v-13.4H221.3z M270.2,224.1h-30.9v-47.1h30.9
	V224.1z M285.2,224.1v-52.8c0-5.1-4.2-9.3-9.3-9.3h-42.3c-5.1,0-9.3,4.2-9.3,9.3v52.8h-30.7v-71c2.9,0.8,6,1.3,9.2,1.3
	c10.5,0,19.8-4.8,25.9-12.4c6.1,7.5,15.5,12.4,25.9,12.4c10.5,0,19.8-4.8,25.9-12.4c6.1,7.5,15.5,12.4,25.9,12.4
	c3.2,0,6.3-0.5,9.2-1.3v71H285.2z M305.9,67l14.1,25.5h-33l-4.8-26.4h22.2C305,66.1,305.6,66.4,305.9,67z M203.7,67
	c0.3-0.6,0.9-0.9,1.6-0.9h22.2l-4.8,26.4h-33L203.7,67z"/>
<path d="M433.3,306.4c13.7,0,24.8-11.1,24.8-24.8c0-13.7-11.1-24.8-24.8-24.8c-13.7,0-24.8,11.1-24.8,24.8
	C408.5,295.2,419.6,306.4,433.3,306.4z M433.3,271.7c5.4,0,9.8,4.4,9.8,9.8c0,5.4-4.4,9.8-9.8,9.8c-5.4,0-9.8-4.4-9.8-9.8
	C423.5,276.1,427.9,271.7,433.3,271.7z"/>
<path d="M393.4,236.5c2.3,3.4,7,4.3,10.4,1.9c8.8-6.1,19.2-9.2,29.9-9.2c28.6,0.2,51.8,23.6,51.8,52.2c0,21.5-13.5,41.1-33.6,48.8
	c-3.8,1.4-6.9,4.4-8.4,8.2l-10.2,25.3l-10.2-25.3c-1.5-3.8-4.6-6.8-8.4-8.2c-20.6-7.9-34.1-28-33.6-50.1c0.2-7.6,2-14.9,5.3-21.7
	c1.8-3.7,0.3-8.2-3.4-10c-3.7-1.8-8.2-0.3-10,3.4c-4.3,8.8-6.6,18.2-6.9,28c-0.7,28.3,16.7,54.2,43.1,64.3l12.2,30.2
	c2,4.8,6.6,8,11.8,8c5.2,0,9.9-3.1,11.8-8l12.2-30.2c25.8-9.9,43.1-35.1,43.1-62.7c0-36.8-29.9-66.9-66.7-67.2
	c-13.8-0.1-27.1,4-38.5,11.8C392,228.5,391.1,233.1,393.4,236.5z"/>
<path d="M79.6,360.8c-13.7,0-24.8,11.1-24.8,24.8c0,13.7,11.1,24.8,24.8,24.8c13.7,0,24.8-11.1,24.8-24.8
	C104.4,372,93.3,360.8,79.6,360.8z M79.6,395.5c-5.4,0-9.8-4.4-9.8-9.8c0-5.4,4.4-9.8,9.8-9.8c5.4,0,9.8,4.4,9.8,9.8
	C89.5,391.1,85.1,395.5,79.6,395.5z"/>
</svg>
