<svg id="Layer_3" enable-background="new 0 0 64 64" height="512" viewBox="0 0 64 64" width="512" xmlns="http://www.w3.org/2000/svg"><path d="m14 3h35v29h-35z" fill="#f2f8ff"/><path d="m49 22h-25.153c-.489 0-.906-.353-.986-.836l-.721-4.329c-.081-.482-.498-.835-.987-.835h-7.153v16h35z" fill="#303030" opacity=".12"/><path d="m52 27 3 34 3-34z" fill="#004fa8"/><path d="m9 61-3.89-38.9c-.059-.589.403-1.1.995-1.1h13.048c.489 0 .906.353.986.836l.721 4.329c.081.482.498.835.987.835h30.153l3 34z" fill="#57a5ff"/><path d="m14 41h32l-1-6h-32z" fill="#f2f8ff"/><path d="m6 31 3 30h46l-11.289-1.158c-16.999-1.743-31.576-12.892-37.711-28.842z" fill="#303030" opacity=".12"/><path d="m16.153 23c.489 0 .906.353.986.836l.721 4.329c.081.482.498.835.987.835h30.153l2.824 32h3.176l-3-34h-30.153c-.489 0-.906-.353-.986-.836l-.721-4.329c-.081-.482-.498-.835-.987-.835h-13.048c-.592 0-1.054.511-.995 1.099l.09.901z" fill="#f2f8ff"/><path d="m55.737 61.676c.149-.163.218-.373.238-.59l.021.002 3-34c.024-.279-.069-.557-.259-.764-.189-.206-.457-.324-.737-.324h-6-2v-23c0-.553-.447-1-1-1h-35c-.553 0-1 .447-1 1v15h2v-14h33v22h-20v2h23.084l2.824 32h-38.908v2h40c.28 0 .548-.118.737-.324zm-2.645-33.676h3.816l-1.908 21.624z"/><path d="m4.621 20.659c-.378.418-.563.98-.506 1.54l3.89 38.9c.051.511.481.901.995.901h4v-2h-3.095l-3.8-38h13.048l.721 4.33c.163.968.992 1.67 1.973 1.67h3.153v-2h-3.153l-.721-4.33c-.163-.968-.992-1.67-1.973-1.67h-13.048c-.564 0-1.105.24-1.484.659z"/><path d="m46.763 41.646c.19-.225.272-.521.224-.811l-1-6c-.081-.481-.498-.835-.987-.835h-32c-.294 0-.573.129-.763.354s-.272.521-.224.811l1 6c.081.481.498.835.987.835h32c.294 0 .573-.129.763-.354zm-31.916-1.646-.666-4h29.973l.666 4z"/><path d="m18 7h27v2h-27z"/><path d="m18 12h27v2h-27z"/><path d="m26 17h19v2h-19z"/></svg>