<?xml version="1.0" encoding="utf-8"?>
<!-- Generator: Adobe Illustrator 23.1.0, SVG Export Plug-In . SVG Version: 6.00 Build 0)  -->
<svg version="1.1" id="Слой_1" xmlns="http://www.w3.org/2000/svg" xmlns:xlink="http://www.w3.org/1999/xlink" x="0px" y="0px"
	 viewBox="0 0 512 512" style="enable-background:new 0 0 512 512;" xml:space="preserve">
<style type="text/css">
	.st0{fill:#EFE7E4;}
	.st1{fill:#EBE5DD;}
	.st2{fill:#C2DFF6;}
	.st3{fill:#B39A7C;}
	.st4{fill:#787680;}
	.st5{fill:#57565C;}
	.st6{fill:#C0AB91;}
	.st7{fill:#4A81F6;}
	.st8{fill:#4070F6;}
</style>
<path class="st0" d="M464,248v248h-40l-24-88H176l-8,88h-40l-16-208v-88h304C442.5,200,464,221.5,464,248z"/>
<path class="st1" d="M288,24h192c4.4,0,8,3.6,8,8v304c0,4.4-3.6,8-8,8H288c-4.4,0-8-3.6-8-8V32C280,27.6,283.6,24,288,24z"/>
<path class="st2" d="M304,48h160v240H304V48z"/>
<path class="st3" d="M224,408l-8,80h-24l-16-80H224z"/>
<path class="st4" d="M232,408h-56l-8,80h-40l-11.5-143.8l3.5-0.2h48C203.3,344,232,372.7,232,408z"/>
<path class="st3" d="M72,128l2.4,48H56c-17.7,0-32-14.3-32-32v-16H72z"/>
<path class="st3" d="M240,128v16c0,17.7-14.3,32-32,32h-26.4l2.4-48H240z"/>
<path class="st5" d="M280,200v104c-35.3,0-64-28.7-64-64v-40H280z"/>
<path class="st3" d="M400,408l-8,80h-24l-16-80H400z"/>
<path class="st6" d="M177.2,264l6.8-136H72l6.8,136H177.2z"/>
<path class="st1" d="M96,240h64c13.3,0,24,10.7,24,24l0,0c0,13.3-10.7,24-24,24H96c-13.3,0-24-10.7-24-24l0,0
	C72,250.7,82.7,240,96,240z"/>
<circle class="st7" cx="384" cy="144" r="56"/>
<path class="st8" d="M434.6,120c3.6,7.5,5.5,15.7,5.4,24h-56V88C405.6,88,425.3,100.4,434.6,120z"/>
<path d="M104,184L104,184c4.4,0,8,3.6,8,8v8c0,4.4-3.6,8-8,8l0,0c-4.4,0-8-3.6-8-8v-8C96,187.6,99.6,184,104,184z"/>
<path d="M152,184L152,184c4.4,0,8,3.6,8,8v8c0,4.4-3.6,8-8,8l0,0c-4.4,0-8-3.6-8-8v-8C144,187.6,147.6,184,152,184z"/>
<path d="M480,16H288c-8.8,0-16,7.2-16,16v160h-83.2l0.4-8H208c22.1,0,40-17.9,40-40v-16c0-4.4-3.6-8-8-8H24c-4.4,0-8,3.6-8,8v16
	c0,22.1,17.9,40,40,40h10.8l3,61.7c-10.2,14.4-6.7,34.3,7.7,44.5C82.9,294,89.4,296,96,296h8.6L120,488.6c0.3,4.2,3.8,7.4,8,7.4h40
	c4.1,0,7.5-3.1,8-7.2l2.6-26.8l5.5,27.6c0.8,3.7,4,6.4,7.8,6.4h24c4.1,0,7.5-3.1,8-7.2l7.3-72.8h114.2l14.7,73.6
	c0.8,3.7,4,6.4,7.8,6.4h24c4.1,0,7.5-3.1,8-7.2l3.9-39.8l12.4,41.4c1,3.4,4.2,5.7,7.7,5.7h40c4.4,0,8-3.6,8-8V352h8
	c8.8,0,16-7.2,16-16V32C496,23.2,488.8,16,480,16z M191.6,136H232v8c-0.1,13.2-10.8,23.9-24,24h-18L191.6,136z M56,168
	c-13.2,0-24-10.8-24-24v-8h32.4l1.6,32H56z M224,208h48v87.4c-27.5-4-48-27.5-48-55.4V208z M175.6,136l-4.9,98
	c-3.4-1.3-7.1-2-10.7-2H96c-3.7,0-7.3,0.7-10.7,1.9L80.4,136H175.6z M96,280c-8.8,0-16-7.2-16-16c0.1-8.8,7.2-15.9,16-16h64
	c8.8,0,16,7.2,16,16c-0.1,8.8-7.2,15.9-16,16H96z M208.7,480h-10.2l-12.8-64h29.4L208.7,480z M176,400c-4.1,0-7.5,3.1-8,7.2
	l-7.3,72.8h-25.4l-10.2-128H168c27.8,0,51.4,20.5,55.4,48H176z M384.7,480h-10.2l-12.8-64h29.4L384.7,480z M456,480h-26.1
	l-22.2-74.3c-1-3.4-4.2-5.7-7.7-5.7H239.5c-4.1-36.4-34.9-63.9-71.5-64h-44.2l-3.2-40H160c17.7,0,32-14.3,32-31.9c0,0,0-0.1,0-0.1
	c0-6.6-2-13-5.8-18.3L188,208h20v32c0.1,36.6,27.6,67.4,64,71.5V336c0,8.8,7.2,16,16,16h168L456,480z M480,336H288V32h192V336z"/>
<path d="M464,40H304c-4.4,0-8,3.6-8,8v240c0,4.4,3.6,8,8,8h160c4.4,0,8-3.6,8-8V48C472,43.6,468.4,40,464,40z M456,280H312V56h144
	V280z"/>
<path d="M104,256h16v16h-16V256z"/>
<path d="M136,256h16v16h-16V256z"/>
<path d="M384,208c35.3,0,64-28.7,64-64s-28.7-64-64-64s-64,28.7-64,64C320,179.3,348.7,208,384,208z M431.3,136H392V96.7
	C412.1,100.2,427.8,115.9,431.3,136z M376,96.7V144c0,4.4,3.6,8,8,8h47.3c-4.4,26.1-29.1,43.8-55.3,39.4
	c-26.1-4.4-43.8-29.1-39.4-55.3C340,115.9,355.8,100.1,376,96.7z"/>
<path d="M328,224h32v16h-32V224z"/>
<path d="M328,256h80v16h-80V256z"/>
<path d="M376,224h16v16h-16V224z"/>
</svg>
