<?xml version="1.0" encoding="utf-8"?>
<!-- Generator: Adobe Illustrator 23.1.0, SVG Export Plug-In . SVG Version: 6.00 Build 0)  -->
<svg version="1.1" id="Слой_1" xmlns="http://www.w3.org/2000/svg" xmlns:xlink="http://www.w3.org/1999/xlink" x="0px" y="0px"
	 viewBox="0 0 480 480" style="enable-background:new 0 0 480 480;" xml:space="preserve">
<style type="text/css">
	.st0{fill:#BDDBFF;}
	.st1{fill:#2488FF;}
	.st2{fill:#4A81F6;}
	.st3{fill:#FFDAAA;}
	.st4{fill:#B1E4F9;}
	.st5{fill:#FFC477;}
	.st6{fill:#231F20;}
</style>
<path class="st0" d="M8,72h464v352H8V72z"/>
<path class="st1" d="M8,8h464v64H8V8z"/>
<path class="st2" d="M176,104l-96,96h96V104z"/>
<path class="st3" d="M400,104v368H80V200h96v-96H400z"/>
<path class="st4" d="M128,280h224v80H128V280z"/>
<path class="st5" d="M80,240v232h208C173,472,80,368.2,80,240z"/>
<g>
	<path class="st6" d="M0,0v432h72v48h336v-48h72V0H0z M392,464H88V208h96v-96h208V464z M99.3,192l68.7-68.7V192H99.3z M464,416h-56
		V96H172.7L72,196.7V416H16V80h448V416z M16,64V16h448v48H16z"/>
	<path class="st6" d="M32,32h16v16H32V32z"/>
	<path class="st6" d="M64,32h16v16H64V32z"/>
	<path class="st6" d="M96,32h16v16H96V32z"/>
	<path class="st6" d="M120,416h16v16h-16V416z"/>
	<path class="st6" d="M152,416h208v16H152V416z"/>
	<path class="st6" d="M120,384h16v16h-16V384z"/>
	<path class="st6" d="M152,384h208v16H152V384z"/>
	<path class="st6" d="M216,192h16v16h-16V192z"/>
	<path class="st6" d="M248,192h112v16H248V192z"/>
	<path class="st6" d="M216,160h16v16h-16V160z"/>
	<path class="st6" d="M248,160h112v16H248V160z"/>
	<path class="st6" d="M120,368h240v-96H120V368z M136,288h208v64H136V288z"/>
	<path class="st6" d="M120,240h16v16h-16V240z"/>
	<path class="st6" d="M152,240h208v16H152V240z"/>
</g>
</svg>
