<svg height="512" viewBox="0 0 64 64" width="512" xmlns="http://www.w3.org/2000/svg"><rect fill="#5aaae7" height="24" rx="2" width="54" x="5" y="23"/><path d="m51 42v5h-38v-5a1 1 0 0 1 1-1h36a1 1 0 0 1 1 1z" fill="#898890"/><g fill="#ff9811"><path d="m51 27h4v4h-4z"/><path d="m43 27h4v4h-4z"/><path d="m35 27h4v4h-4z"/></g><circle cx="19" cy="29" fill="#00ccb3" r="2"/><circle cx="11" cy="29" fill="#ff5023" r="2"/><path d="m11 11h6v12h-6z" fill="#3d9ae2"/><path d="m47 11h6v12h-6z" fill="#3d9ae2"/><path d="m47.63 47-.63-2h-30l-.62 2-4.38 14h40z" fill="#e6e7e8"/><path d="m47 11v12h-30v-12-8h30z" fill="#e6e7e8"/><path d="m47 11h2v12h-2z" fill="#1e81ce"/><path d="m15 11h2v12h-2z" fill="#1e81ce"/><path d="m57 22h-3v-11a1 1 0 0 0 -1-1h-5v-7a1 1 0 0 0 -1-1h-30a1 1 0 0 0 -1 1v7h-5a1 1 0 0 0 -1 1v11h-3a3 3 0 0 0 -3 3v20a3 3 0 0 0 3 3h8.015l-3.97 12.7a1 1 0 0 0 .955 1.3h40a1 1 0 0 0 .954-1.3l-3.969-12.7h8.015a3 3 0 0 0 3-3v-20a3 3 0 0 0 -3-3zm-5-10v10h-4v-10zm-6-8v18h-28v-18zm-34 8h4v10h-4zm1.36 48 4.375-14h28.53l4.375 14zm34.594-15.3a1 1 0 0 0 -.954-.7h-30a1 1 0 0 0 -.955.7l-.405 1.3h-1.64v-4h36v4h-1.64zm10.046.3a1 1 0 0 1 -1 1h-5v-4a2 2 0 0 0 -2-2h-36a2 2 0 0 0 -2 2v4h-5a1 1 0 0 1 -1-1v-20a1 1 0 0 1 1-1h50a1 1 0 0 1 1 1z"/><path d="m55 26h-4a1 1 0 0 0 -1 1v4a1 1 0 0 0 1 1h4a1 1 0 0 0 1-1v-4a1 1 0 0 0 -1-1zm-1 4h-2v-2h2z"/><path d="m47 26h-4a1 1 0 0 0 -1 1v4a1 1 0 0 0 1 1h4a1 1 0 0 0 1-1v-4a1 1 0 0 0 -1-1zm-1 4h-2v-2h2z"/><path d="m39 26h-4a1 1 0 0 0 -1 1v4a1 1 0 0 0 1 1h4a1 1 0 0 0 1-1v-4a1 1 0 0 0 -1-1zm-1 4h-2v-2h2z"/><path d="m11 26a3 3 0 1 0 3 3 3 3 0 0 0 -3-3zm0 4a1 1 0 1 1 1-1 1 1 0 0 1 -1 1z"/><path d="m19 26a3 3 0 1 0 3 3 3 3 0 0 0 -3-3zm0 4a1 1 0 1 1 1-1 1 1 0 0 1 -1 1z"/><path d="m18 54h4v2h-4z"/><path d="m24 54h22v2h-22z"/><path d="m21 50h22v2h-22z"/></svg>