<?xml version="1.0" encoding="utf-8"?>
<!-- Generator: Adobe Illustrator 23.1.0, SVG Export Plug-In . SVG Version: 6.00 Build 0)  -->
<svg version="1.1" id="Слой_1" xmlns="http://www.w3.org/2000/svg" xmlns:xlink="http://www.w3.org/1999/xlink" x="0px" y="0px"
	 viewBox="0 0 512 512" style="enable-background:new 0 0 512 512;" xml:space="preserve">
<style type="text/css">
	.st0{fill:#F2F6FC;}
	.st1{fill:#65B1FC;}
	.st2{fill:#4A98F7;}
	.st3{fill:#FAA68E;}
	.st4{fill:#FFDECF;}
	.st5{fill:#FFCDBE;}
	.st6{fill:#EFE7E4;}
	.st7{fill:#9C9C9C;}
	.st8{fill:#FF936B;}
	.st9{fill:#FF7045;}
</style>
<path class="st0" d="M104,8h304c17.7,0,32,14.3,32,32v432c0,17.7-14.3,32-32,32H104c-17.7,0-32-14.3-32-32V40C72,22.3,86.3,8,104,8z
	"/>
<path class="st1" d="M72,416v56H24H8v-56h16H72z"/>
<path class="st2" d="M72,440v32H24H8v-32h16H72z"/>
<path class="st1" d="M504,416v56h-16h-48v-56h48H504z"/>
<path class="st2" d="M504,440v32h-16h-48v-32h48H504z"/>
<path class="st1" d="M104,504H24v-32h48C72,489.7,86.3,504,104,504z"/>
<path class="st1" d="M488,472v32h-80c17.7,0,32-14.3,32-32H488z"/>
<path class="st3" d="M72,152v66.3c-20.9,6.1-36.2,23.5-46.6,40.3L48,168L72,152z"/>
<path class="st3" d="M486.6,258.6c-10.4-16.8-25.8-34.2-46.6-40.3V152l24,16L486.6,258.6z"/>
<path class="st4" d="M72,331.8V416H24v-24c-8.7,0.2-15.8-6.7-16-15.3c0-0.2,0-0.4,0-0.7v-80c4.3-13.1,10.1-25.6,17.4-37.4
	c10.4-16.8,25.8-34.2,46.6-40.3c5.2-1.6,10.6-2.3,16-2.3h56c13.3,0,24,10.7,24,24s-10.7,24-24,24h-32C112,264,112,316.6,72,331.8z"
	/>
<path class="st5" d="M48,331.8V416h24v-84.2c40-15.2,40-67.8,40-67.8H88C88,264,88,316.6,48,331.8z"/>
<path class="st5" d="M144,216h-24c13.3,0,24,10.7,24,24s-10.7,24-24,24h24c13.3,0,24-10.7,24-24S157.3,216,144,216z"/>
<path class="st4" d="M488,392v24h-48v-84.2c-40-15.2-40-67.8-40-67.8h-32c-13.3,0-24-10.7-24-24s10.7-24,24-24h56
	c5.4,0,10.8,0.8,16,2.3c20.9,6.1,36.2,23.5,46.6,40.3c7.2,11.7,13.1,24.3,17.4,37.4v80c0.2,8.7-6.7,15.8-15.3,16
	C488.4,392,488.2,392,488,392z"/>
<path class="st5" d="M368,240c0-13.3,10.7-24,24-24h-24c-13.3,0-24,10.7-24,24s10.7,24,24,24h24C378.7,264,368,253.3,368,240z"/>
<path class="st5" d="M424,264h-24c0,0,0,52.6,40,67.8V416h24v-84.2C424,316.6,424,264,424,264z"/>
<path class="st6" d="M352,168c0,0-16,56-96,96c-80-40-96-96-96-96v-64c26.5,0,48-21.5,48-48h96c0,26.5,21.5,48,48,48V168z"/>
<path class="st6" d="M304,56h-24c0,26.5,21.5,48,48,48v64c0,0-14.5,50.2-84,89.5c3.9,2.2,7.8,4.4,12,6.5c80-40,96-96,96-96v-64
	C325.5,104,304,82.5,304,56z"/>
<path class="st1" d="M224,144h64v48h-64V144z"/>
<path class="st0" d="M288,144h-16v-16c0-8.8-7.2-16-16-16c-8.8,0-16,7.2-16,16v16h-16v-16c0-17.7,14.3-32,32-32s32,14.3,32,32V144z"
	/>
<path class="st2" d="M248,144h16v24h-16V144z"/>
<g>
	<path class="st7" d="M160,320h16v16h-16V320z"/>
	<path class="st7" d="M192,320h160v16H192V320z"/>
	<path class="st7" d="M144,352h224v16H144V352z"/>
</g>
<path class="st1" d="M128,392h112v48H128V392z"/>
<path class="st8" d="M272,392h112v48H272V392z"/>
<path class="st2" d="M128,416h112v24H128V416z"/>
<path class="st9" d="M272,416h112v24H272V416z"/>
<path d="M512,376v-80c0-0.8-0.1-1.6-0.3-2.3c-4.3-13.5-10.3-26.4-17.6-38.5l-22.3-89.2c-0.5-1.9-1.7-3.6-3.3-4.7L448,147.7V40
	c0-22.1-17.9-40-40-40H104C81.9,0,64,17.9,64,40v107.7l-20.4,13.6c-1.7,1.1-2.8,2.8-3.3,4.7L18,255.2c-7.3,12.1-13.3,25-17.6,38.5
	C0.1,294.4,0,295.2,0,296v80c-0.5,10.3,6.1,19.7,16,22.7v9.3H8c-4.4,0-8,3.6-8,8v56c0,4.4,3.6,8,8,8h8v24h16v-24h32.8
	c3.8,18.6,20.2,32,39.2,32h304c19,0,35.4-13.4,39.2-32H480v24h16v-24h8c4.4,0,8-3.6,8-8v-56c0-4.4-3.6-8-8-8h-8v-9.3
	C505.9,395.7,512.5,386.3,512,376z M496,376c0.4,4-2.5,7.6-6.6,8c-0.5,0-1,0-1.4,0c-4.4,0-8,3.6-8,8v16h-32v-65.6
	c5.3,1.1,10.6,1.6,16,1.6v-16c-55.1,0-56-61.4-56-64c0-4.4-3.6-8-8-8h-32c-8.8,0-16-7.2-16-16s7.2-16,16-16h56
	c46.1,0,69,64.2,72,73.2V376z M457,172.9l13.4,53.5c-6.6-5.8-14.2-10.5-22.3-13.8v-45.6L457,172.9z M55,172.9l9-6v45.6
	c-8.2,3.3-15.7,8-22.3,13.8L55,172.9z M16,297.2c3-9.1,25.9-73.2,72-73.2h56c8.8,0,16,7.2,16,16s-7.2,16-16,16h-32c-4.4,0-8,3.6-8,8
	l0,0c0,2.6-0.9,64-56,64v16c5.4,0,10.7-0.5,16-1.6V408H32v-16c-0.1-4.4-3.5-7.9-7.9-8c-4,0.4-7.7-2.5-8.1-6.5c-0.1-0.5-0.1-1,0-1.5
	L16,297.2z M16,424h48v40H16V424z M408,496H104c-13.3,0-24-10.7-24-24V337.1c27.3-13.4,37.6-43.4,39.6-65.1H144
	c17.7,0,32-14.3,32-32s-14.3-32-32-32H88c-2.7,0-5.3,0.2-8,0.5V40c0-13.3,10.7-24,24-24h304c13.3,0,24,10.7,24,24v168.5
	c-2.7-0.3-5.3-0.5-8-0.5h-56c-17.7,0-32,14.3-32,32s14.3,32,32,32h24.4c2,21.7,12.3,51.7,39.6,65.1V472C432,485.3,421.3,496,408,496
	z M496,464h-48v-40h48V464z"/>
<path d="M252.4,271.2c2.3,1.1,4.9,1.1,7.2,0c82.2-41.1,99.4-98.5,100.1-101c0.2-0.7,0.3-1.5,0.3-2.2v-64c0-4.4-3.6-8-8-8
	c-22.1,0-40-17.9-40-40c0-4.4-3.6-8-8-8h-96c-4.4,0-8,3.6-8,8c0,22.1-17.9,40-40,40c-4.4,0-8,3.6-8,8v64c0,0.7,0.1,1.5,0.3,2.2
	C153,172.6,170.2,230.1,252.4,271.2z M168,111.4c24.6-3.6,43.8-22.9,47.4-47.4h81.1c3.6,24.6,22.9,43.8,47.4,47.4v55.3
	c-2.5,7.1-20.6,53.3-88,88.3c-67-34.8-85.5-81.2-88-88.3V111.4z"/>
<path d="M224,200h64c4.4,0,8-3.6,8-8v-48c0-4.4-3.6-8-8-8v-8c0-17.7-14.3-32-32-32s-32,14.3-32,32v8c-4.4,0-8,3.6-8,8v48
	C216,196.4,219.6,200,224,200z M280,184h-48v-32h16v16h16v-16h16V184z M240,128c0-8.8,7.2-16,16-16c8.8,0,16,7.2,16,16v8h-32V128z"
	/>
<path d="M160,320h16v16h-16V320z"/>
<path d="M192,320h160v16H192V320z"/>
<path d="M144,352h224v16H144V352z"/>
<path d="M240,384H128c-4.4,0-8,3.6-8,8v48c0,4.4,3.6,8,8,8h112c4.4,0,8-3.6,8-8v-48C248,387.6,244.4,384,240,384z M232,432h-96v-32
	h96V432z"/>
<path d="M384,384H272c-4.4,0-8,3.6-8,8v48c0,4.4,3.6,8,8,8h112c4.4,0,8-3.6,8-8v-48C392,387.6,388.4,384,384,384z M376,432h-96v-32
	h96V432z"/>
</svg>
