<?xml version="1.0" encoding="utf-8"?>
<!-- Generator: Adobe Illustrator 23.1.0, SVG Export Plug-In . SVG Version: 6.00 Build 0)  -->
<svg version="1.1" id="Слой_1" xmlns="http://www.w3.org/2000/svg" xmlns:xlink="http://www.w3.org/1999/xlink" x="0px" y="0px"
	 viewBox="0 0 496 496" style="enable-background:new 0 0 496 496;" xml:space="preserve">
<style type="text/css">
	.st0{fill:#B1E4F9;}
	.st1{fill:#F5F7FA;}
	.st2{fill:#4070F6;}
	.st3{fill:#4A81F6;}
	.st4{fill:#F9D48A;}
</style>
<path class="st0" d="M488,248c0,132.5-107.5,240-240,240S8,380.5,8,248S115.5,8,248,8S488,115.5,488,248z"/>
<path class="st1" d="M304,376c0,8.6-1.9,16.7-5.4,24c-2.7,5.8-6.5,11.1-11,15.6C277.4,425.8,263.5,432,248,432
	c-22.4,0-41.6-13-50.6-32c-3.5-7.3-5.4-15.4-5.4-24v-6.6l56,30.6l32-17.4l24-13.1V376z"/>
<path class="st2" d="M360,400v40H248v-8c15.5,0,29.4-6.2,39.6-16.4c4.5-4.5,8.2-9.8,11-15.6H360z"/>
<path class="st2" d="M248,440H136v-40h61.4c9,19,28.2,32,50.6,32V440z"/>
<g>
	<path class="st0" d="M360,440v20.2C326.6,478,288.5,488,248,488v-48H360z"/>
	<path class="st0" d="M248,440v48c-40.5,0-78.6-10-112-27.8V440H248z"/>
	<path class="st0" d="M360,362v38h-61.4c3.5-7.3,5.4-15.4,5.4-24v-6.6l27-14.7L360,362z"/>
	<path class="st0" d="M197.4,400H136v-38l29-7.3l27,14.7v6.6C192,384.6,193.9,392.7,197.4,400z"/>
</g>
<path class="st1" d="M360,440v-78l19.7,4.9c21.4,5.4,36.3,24.6,36.3,46.6v5.8c-16.5,16.2-35.3,30.1-56,41V440z"/>
<path class="st1" d="M136,460.2c-20.7-10.9-39.5-24.7-56-41v-5.8c0-22,15-41.2,36.3-46.6L136,362V460.2z"/>
<path class="st3" d="M329.7,263.9L328,240H168l-1.7,23.9L160,352l5,2.7l27,14.7l56,30.6l32-17.4l24-13.1l27-14.7l5-2.7L329.7,263.9z
	"/>
<path class="st4" d="M271.9,24.6c0-0.1,0-0.2,0-0.3h0.1c49.3,4.1,88,45.4,88,95.7h-96L271.9,24.6z"/>
<path class="st4" d="M224.1,24.6L232,120h-96c0-50.3,38.7-91.6,88-95.7h0.1V24.6z"/>
<path class="st2" d="M272,23.4c0,0.3,0,0.6-0.1,1v0.3L264,120h-32l-7.9-95.4c0-0.1,0-0.2,0-0.3c-0.1-0.3-0.1-0.6-0.1-1
	c0-7.4,5.3-13.6,12.2-15h0.1C240.2,8.1,244.1,8,248,8s7.8,0.1,11.7,0.3h0.1c3,0.6,5.7,2.1,7.8,4.2C270.2,15.3,272,19.1,272,23.4z"/>
<path class="st1" d="M376,128v16c0,4.4-3.6,8-8,8H128c-4.4,0-8-3.6-8-8v-16c0-4.4,3.6-8,8-8h240C372.4,120,376,123.6,376,128z"/>
<path class="st4" d="M168,152h160c0,17.7-14.3,32-32,32h-96C182.3,184,168,169.7,168,152z"/>
<path class="st4" d="M360,152v80c0-17.7-14.3-32-32-32v-48H360z"/>
<path class="st4" d="M168,152v48c-17.7,0-32,14.3-32,32v-80H168z"/>
<path class="st1" d="M328,200c17.7,0,32,14.3,32,32c0,17.1-13.4,31-30.3,31.9L328,240V200z"/>
<path class="st1" d="M200,184h96c17.7,0,32-14.3,32-32v88H168v-88C168,169.7,182.3,184,200,184z"/>
<path class="st1" d="M168,200v40l-1.7,23.9C149.4,263,136,249.1,136,232C136,214.3,150.3,200,168,200z"/>
<path d="M216,208c0,4.4-3.6,8-8,8s-8-3.6-8-8s3.6-8,8-8S216,203.6,216,208z"/>
<path d="M296,208c0,4.4-3.6,8-8,8s-8-3.6-8-8s3.6-8,8-8S296,203.6,296,208z"/>
<path d="M240,272h16v16h-16V272z"/>
<path d="M240,304h16v16h-16V304z"/>
<path d="M240,336h16v16h-16V336z"/>
<path d="M259.5,0.3c-1-0.1-1.9-0.3-2.9-0.3h-17.3c-1,0-1.9,0.2-2.9,0.3C105.1,6.3,0,115.1,0,248c0,136.8,111.3,248,248,248
	s248-111.2,248-248C496,115.1,390.9,6.3,259.5,0.3z M480,248c0,58.5-21.8,111.9-57.6,152.8c-4.7-20.1-20.1-36.4-40.8-41.6l-37.7-9.4
	l-5.7-79.2c17.1-4.5,29.8-20,29.8-38.5v-72c8.8,0,16-7.2,16-16v-16c0-8.8-7.2-16-16-16h-0.4c-3.3-42.7-33-78.8-73-91.3
	C400.3,42.3,480,136,480,248z M163.9,363.3l20.1,10.9v1.8c0,5.5,0.8,10.9,2.1,16H144v-23.8L163.9,363.3z M248,16
	c3.3,0,6.6,0.1,9.9,0.2c3.5,0.6,6.1,3.6,6.1,7.7l-7.3,88h-17.3L232,23.4c0-3.6,2.7-6.5,6.1-7.1C241.4,16.1,244.7,16,248,16z M296,88
	v24h-23.3l6.6-78.7C318,40.2,348,72.7,351.6,112H312V88H296z M216.8,33.3l6.6,78.7H200V88h-16v24h-39.6
	C148,72.7,178,40.2,216.8,33.3z M368,128l0,16H128v-16H368z M352,368.2V392h-42.1c1.3-5.1,2.1-10.5,2.1-16v-1.8l20.1-10.9L352,368.2
	z M352,432h-73.1c10.2-5.6,18.6-14,24.4-24H352V432z M144,408h48.7c5.8,10,14.3,18.4,24.4,24H144V408z M288,369.1V248h32.6l7.1,99.4
	L288,369.1z M176,232v-48.2c6.7,5.1,15,8.2,24,8.2h96c9,0,17.3-3.1,24-8.2V232H176z M296,176h-96c-10.4,0-19.2-6.7-22.5-16h141
	C315.2,169.3,306.4,176,296,176z M175.4,248H272v129.8l-24,13.1l-79.7-43.5L175.4,248z M248,409.1l47.4-25.8
	c-3.5,23-23.4,40.7-47.4,40.7s-43.9-17.7-47.4-40.7L248,409.1z M336,239.7v-30.2c9.3,3.3,16,12.1,16,22.5c0,10-6.2,18.6-15,22.2
	L336,239.7z M352,200.2c-4.7-3.5-10.1-6.2-16-7.4V160h16V200.2z M160,160v32.8c-5.9,1.2-11.3,3.9-16,7.4V160H160z M160,209.5v30.2
	l-1,14.5c-8.8-3.6-15-12.2-15-22.2C144,221.6,150.7,212.8,160,209.5z M128,446.5c-14.5-8.8-27.8-19.1-40-30.7v-2.3
	c0-18.4,12.5-34.3,30.3-38.8l9.7-2.4V446.5z M144,448h96v31.8c-34.4-1.2-66.9-9.9-96-24.5V448z M256,448h96v7.3
	c-29.1,14.6-61.6,23.3-96,24.5V448z M368,372.2l9.7,2.4c17.8,4.5,30.3,20.4,30.3,38.8v2.3c-12.2,11.6-25.5,22-40,30.7V372.2z
	 M201.4,20.7c-40,12.5-69.7,48.6-73,91.3H128c-8.8,0-16,7.2-16,16v16c0,8.8,7.2,16,16,16v72c0,18.5,12.7,34,29.8,38.5l-5.7,79.2
	l-37.7,9.4c-20.7,5.2-36.1,21.5-40.8,41.6C37.8,359.9,16,306.5,16,248C16,136,95.7,42.3,201.4,20.7z"/>
</svg>
