<?xml version="1.0" encoding="iso-8859-1"?>
<!-- Generator: Adobe Illustrator 19.0.0, SVG Export Plug-In . SVG Version: 6.00 Build 0)  -->
<svg version="1.1" id="Layer_1" xmlns="http://www.w3.org/2000/svg" xmlns:xlink="http://www.w3.org/1999/xlink" x="0px" y="0px"
	 viewBox="0 0 512 512" style="enable-background:new 0 0 512 512;" xml:space="preserve">
<rect x="224.653" y="360.49" style="fill:#3D9AE2;" width="62.694" height="66.873"/>
<rect x="7.837" y="47.02" style="fill:#B3D8F4;" width="496.327" height="313.469"/>
<rect x="39.184" y="78.367" style="fill:#FFFFFF;" width="433.633" height="250.775"/>
<path style="fill:#3D9AE2;" d="M457.143,464.98h-52.245c-11.542,0-20.898-9.356-20.898-20.898V228.833h94.041v215.249
	C478.041,455.624,468.685,464.98,457.143,464.98z"/>
<g>
	<rect x="406.465" y="331.755" style="fill:#FFFFFF;" width="15.673" height="15.673"/>
	<rect x="443.037" y="331.755" style="fill:#FFFFFF;" width="15.673" height="15.673"/>
	<rect x="406.465" y="300.408" style="fill:#FFFFFF;" width="15.673" height="15.673"/>
	<rect x="443.037" y="300.408" style="fill:#FFFFFF;" width="15.673" height="15.673"/>
	<rect x="406.465" y="269.061" style="fill:#FFFFFF;" width="15.673" height="15.673"/>
	<rect x="443.037" y="269.061" style="fill:#FFFFFF;" width="15.673" height="15.673"/>
</g>
<path d="M512,39.184H0v329.143h216.816v51.2h-33.959V435.2h146.286v-15.673h-33.959v-51.2h80.98v75.755
	c0,15.845,12.891,28.735,28.735,28.735h52.245c15.844,0,28.735-12.89,28.735-28.735v-75.755H512V39.184z M279.51,419.527h-47.02
	v-51.2h47.02V419.527z M470.204,444.082c0,7.202-5.859,13.061-13.061,13.061h-52.245c-7.202,0-13.061-5.859-13.061-13.061V236.669
	h78.367V444.082z M496.327,352.653h-10.449V220.996H376.163v131.657H15.673V54.857h480.653V352.653z"/>
<polygon points="363.102,321.306 47.02,321.306 47.02,86.204 265.403,86.204 167.954,183.654 179.038,194.737 287.569,86.204 
	320.672,86.204 223.222,183.654 234.305,194.737 342.838,86.204 464.98,86.204 464.98,207.935 480.653,207.935 480.653,70.531 
	31.347,70.531 31.347,336.98 363.102,336.98 "/>
<g>
</g>
<g>
</g>
<g>
</g>
<g>
</g>
<g>
</g>
<g>
</g>
<g>
</g>
<g>
</g>
<g>
</g>
<g>
</g>
<g>
</g>
<g>
</g>
<g>
</g>
<g>
</g>
<g>
</g>
</svg>
