<?xml version="1.0" encoding="utf-8"?>
<!-- Generator: Adobe Illustrator 23.1.0, SVG Export Plug-In . SVG Version: 6.00 Build 0)  -->
<svg version="1.1" id="Слой_1" xmlns="http://www.w3.org/2000/svg" xmlns:xlink="http://www.w3.org/1999/xlink" x="0px" y="0px"
	 viewBox="0 0 512 512" style="enable-background:new 0 0 512 512;" xml:space="preserve">
<style type="text/css">
	.st0{fill:#69D3FF;}
	.st1{fill:#D69D76;}
	.st2{fill:#F2B083;}
	.st3{fill:#FFBB87;}
	.st4{fill:#FFC89D;}
	.st5{fill:#B1E4F9;}
	.st6{fill:#60B2AA;}
	.st7{fill:#FD9B3A;}
	.st8{fill:#A2E2DE;}
	.st9{fill:#FFB05E;}
	.st10{fill:#4A81F6;}
	.st11{fill:#252340;}
</style>
<path class="st0" d="M392,472v-32h112v64H392V472z"/>
<path class="st0" d="M120,472v32H8v-64h112V472z"/>
<path class="st1" d="M448,296v16l-8,8h-8c-8.8,0-16-7.2-16-16v-8H448z"/>
<path class="st2" d="M448,280v16h-32c-8.8,0-16-7.2-16-16v-16h32L448,280z"/>
<path class="st3" d="M432,264h-32c-8.8,0-16-7.2-16-16v-16h16L432,264z"/>
<path class="st1" d="M96,296v8c0,8.8-7.2,16-16,16h-8l-8-8v-16H96z"/>
<path class="st2" d="M112,264v16c0,8.8-7.2,16-16,16H64v-16l16-16H112z"/>
<path class="st3" d="M128,232v16c0,8.8-7.2,16-16,16H80l32-32H128z"/>
<path class="st4" d="M392,392l-8-8v-24l-40-40l24-24l48,48l32-32v-32l-48-48h-24c-8.8-0.1-15.9-7.2-16-16c0-8.8,7.2-16,16-16h40
	l72,72v168h-96V392z"/>
<path class="st4" d="M120,392v48H24V272l72-72h40c8.8,0,16,7.2,16,16c-0.1,8.8-7.2,15.9-16,16h-24l-48,48v32l32,32l48-48l24,24
	l-40,40v24L120,392z"/>
<path class="st5" d="M336,392h24v48H152v-48h24v-32h160V392z"/>
<path class="st5" d="M195.5,328L208,216h96l16,144H192L195.5,328z"/>
<path class="st6" d="M330.4,192l-2.4,24H184l-2.4-24H330.4z"/>
<path class="st7" d="M448,88l-16,24l8,32l-32-16l-32,16l8-32l-16-24h24l16-24l16,24H448z"/>
<path class="st8" d="M336,136l-5.6,56H181.6l-5.6-56h32v16c0.1,8.8,7.2,15.9,16,16c8.8,0,16-7.2,16-16v-16h32v16
	c0.1,8.8,7.2,15.9,16,16c8.8,0,16-7.2,16-16v-16H336z"/>
<path class="st9" d="M312,48l-32,24l16,40l-40-24l-40,24l16-40l-32-24h40l16-40l16,40H312z"/>
<path class="st7" d="M144,88l-16,24l8,32l-32-16l-32,16l8-32L64,88h24l16-24l16,24H144z"/>
<path class="st10" d="M152,416h208v24H152V416z"/>
<path class="st10" d="M176,376h160v16H176V376z"/>
<path class="st10" d="M320,360l-16-144h-27c3.5,18.3,3,37.2-1.5,55.4c-4.5,23.6-17.4,44.8-36.2,59.7c-13,8.4-27.4,14.3-42.6,17.6
	c-1.2,0.3-2.4,0.6-3.6,0.9L192,360H320z"/>
<path class="st11" d="M173.7,314.3l-24-24c-3.1-3.1-8.2-3.1-11.3,0L96,332.7l-6.6-6.6c8.9-3.8,14.6-12.5,14.6-22.1v-1.5
	c9.6-3.4,16-12.4,16-22.5v-9.5c9.6-3.4,16-12.4,16-22.5v-8c13.2-0.1,23.9-10.8,24-24c0-13.3-10.7-24-24-24H96
	c-2.1,0-4.2,0.8-5.7,2.3l-72,72c-1.5,1.5-2.3,3.5-2.3,5.7v160H8c-4.4,0-8,3.6-8,8v64c0,4.4,3.6,8,8,8h112c4.4,0,8-3.6,8-8V395.3
	l5.7-5.7c1.5-1.5,2.3-3.5,2.3-5.7v-20.7l37.7-37.7C176.8,322.5,176.8,317.5,173.7,314.3z M72,308.7V304h16c0,4.4-3.6,8-8,8h-4.7
	L72,308.7z M96,288H72v-4.7L83.3,272H104v8C104,284.4,100.4,288,96,288z M120,248c0,4.4-3.6,8-8,8H99.3l16-16h4.7V248z M16,496v-48
	h96v16H32v16h80v16H16z M122.4,354.3c-1.5,1.5-2.3,3.5-2.3,5.7v20.7l-29.7,29.7l11.3,11.3l10.3-10.3V432H32V275.3L99.3,208H136
	c4.4,0,8,3.6,8,8c0,2.2-0.9,4.2-2.4,5.7c-1.5,1.5-3.5,2.3-5.6,2.3h-24c-2.1,0-4.2,0.8-5.7,2.3l-48,48c-1.5,1.5-2.3,3.5-2.3,5.7v32
	c0,2.1,0.8,4.2,2.3,5.7L84.7,344l-18.3,18.3l11.3,11.3l66.3-66.3l12.7,12.7L122.4,354.3z"/>
<path class="st11" d="M504,432h-8V272c0-2.1-0.8-4.2-2.3-5.7l-72-72c-1.5-1.5-3.5-2.3-5.7-2.3h-40c-13.3,0-24,10.7-24,24
	c0.1,13.2,10.8,23.9,24,24v8c0,10.1,6.4,19.1,16,22.5v9.5c0,10.1,6.4,19.1,16,22.5v1.5c0,9.6,5.8,18.3,14.6,22.1l-6.6,6.6
	l-42.3-42.3c-3.1-3.1-8.2-3.1-11.3,0l-24,24c-3.1,3.1-3.1,8.2,0,11.3l37.7,37.7V384c0,2.1,0.8,4.2,2.3,5.7l5.7,5.7V504
	c0,4.4,3.6,8,8,8h112c4.4,0,8-3.6,8-8v-64C512,435.6,508.4,432,504,432z M396.7,240l16,16H400c-4.4,0-8-3.6-8-8v-8H396.7z M440,288
	h-24c-4.4,0-8-3.6-8-8v-8h20.7l11.3,11.3V288z M432,312c-4.4,0-8-3.6-8-8h16v4.7l-3.3,3.3H432z M410.3,421.7l11.3-11.3L392,380.7
	V360c0-2.1-0.8-4.2-2.3-5.7L355.3,320l12.7-12.7l66.3,66.3l11.3-11.3L427.3,344l26.3-26.3c1.5-1.5,2.3-3.5,2.3-5.7v-32
	c0-2.1-0.8-4.2-2.3-5.7l-48-48c-1.5-1.5-3.5-2.3-5.7-2.3h-24c-2.2,0-4.2-0.9-5.7-2.4c-1.5-1.5-2.3-3.5-2.3-5.6c0-4.4,3.6-8,8-8h36.7
	l67.3,67.3V432h-80v-20.7L410.3,421.7z M496,496h-96v-16h80v-16h-80v-16h96V496z"/>
<path class="st11" d="M360,384h-16v-24c0-4.4-3.6-8-8-8h-8.8l-14.3-128H328c4.1,0,7.6-3.1,8-7.2l8-80c0.2-2.3-0.5-4.5-2-6.2
	c-1.5-1.7-3.7-2.6-6-2.6h-32c-4.4,0-8,3.6-8,8v16c0,4.4-3.6,8-8,8c-2.2,0-4.2-0.9-5.7-2.4c-1.5-1.5-2.3-3.5-2.3-5.6v-16
	c0-4.4-3.6-8-8-8h-32c-4.4,0-8,3.6-8,8v16c0,4.4-3.6,8-8,8c-2.2,0-4.2-0.9-5.7-2.4c-1.5-1.5-2.3-3.5-2.3-5.6v-16c0-4.4-3.6-8-8-8
	h-32c-2.3,0-4.4,0.9-6,2.6c-1.5,1.7-2.3,3.9-2,6.2l8,80c0.4,4.1,3.9,7.2,8,7.2h15.1l-14.2,128H176c-4.4,0-8,3.6-8,8v24h-16
	c-4.4,0-8,3.6-8,8v48c0,4.4,3.6,8,8,8h208c4.4,0,8-3.6,8-8v-48C368,387.6,364.4,384,360,384z M202.7,336H288v-16h-83.5l10.7-96h81.6
	L311,352H200.9L202.7,336z M200,144v8c0.1,13.2,10.8,23.9,24,24c13.3,0,24-10.7,24-24v-8h16v8c0.1,13.2,10.8,23.9,24,24
	c13.3,0,24-10.7,24-24v-8h15.2l-4,40H188.8l-4-40H200z M190.4,200h131.2l-0.8,8H191.2L190.4,200z M352,432H160v-32h104v-16h-80v-16
	h144v16h-16v16h40V432z"/>
<path class="st11" d="M280,384h16v16h-16V384z"/>
<path class="st11" d="M222.3,74.7L208.6,109c-1.3,3.2-0.4,6.8,2.2,9.1c2.6,2.2,6.4,2.5,9.3,0.8L256,97.3l35.9,21.5
	c2.9,1.8,6.7,1.5,9.3-0.8c2.6-2.2,3.5-5.9,2.2-9.1l-13.7-34.3l27.1-20.3c2.8-2.1,3.9-5.7,2.8-8.9c-1.1-3.3-4.1-5.5-7.6-5.5h-34.6
	l-14-35c-1.2-3-4.2-5-7.4-5c-3.3,0-6.2,2-7.4,5l-14,35H200c-3.4,0-6.5,2.2-7.6,5.5c-1.1,3.3,0,6.9,2.8,8.9L222.3,74.7z M240,56
	c3.3,0,6.2-2,7.4-5l8.6-21.4l8.6,21.4c1.2,3,4.2,5,7.4,5h16l-12.8,9.6c-2.9,2.2-4,6-2.6,9.4l7.2,17.9l-19.6-11.8
	c-2.5-1.5-5.7-1.5-8.2,0l-19.6,11.8l7.2-17.9c1.3-3.4,0.2-7.2-2.7-9.4L224,56H240z"/>
<path class="st11" d="M71.4,113.5l-7.1,28.6c-0.8,3,0.3,6.3,2.7,8.2c2.4,2,5.8,2.3,8.6,0.9L104,137l28.4,14.3
	c1.1,0.5,2.3,0.8,3.6,0.8c2.5,0,4.8-1.1,6.3-3.1c1.5-1.9,2.1-4.5,1.5-6.9l-7.1-28.6l14-21.1c1.6-2.5,1.8-5.6,0.4-8.2
	c-1.4-2.6-4.1-4.2-7.1-4.2h-19.7l-13.6-20.4c-1.6-2.1-4-3.3-6.7-3.3c-2.6,0-5.1,1.2-6.7,3.3L83.7,80H64c-3,0-5.7,1.6-7.1,4.2
	c-1.4,2.6-1.2,5.8,0.4,8.2L71.4,113.5z M88,96c2.7,0,5.2-1.3,6.7-3.6l9.3-14l9.3,14c1.5,2.2,4,3.6,6.7,3.6h9l-7.7,11.6
	c-1.3,1.9-1.7,4.2-1.1,6.4l3.8,15.1l-16.4-8.2c-2.2-1.1-4.9-1.1-7.1,0L84,129.1l3.8-15.1c0.6-2.2,0.2-4.5-1.1-6.4L79,96H88z"/>
<path class="st11" d="M375.4,113.5l-7.1,28.6c-0.8,3,0.3,6.3,2.7,8.2c2.4,2,5.8,2.3,8.6,0.9L408,137l28.4,14.3
	c2.8,1.4,6.1,1,8.6-0.9c2.4-2,3.5-5.2,2.7-8.2l-7.1-28.6l14-21.1c1.7-2.5,1.8-5.6,0.4-8.2c-1.4-2.6-4.1-4.2-7.1-4.2h-19.7
	l-13.6-20.4c-1.6-2.1-4-3.3-6.7-3.3c-2.6,0-5.1,1.2-6.7,3.3L387.7,80H368c-3,0-5.7,1.6-7.1,4.2c-1.4,2.6-1.2,5.8,0.4,8.2
	L375.4,113.5z M392,96c2.7,0,5.2-1.3,6.7-3.6l9.3-14l9.3,14c1.5,2.2,4,3.6,6.7,3.6h9.1l-7.7,11.6c-1.3,1.9-1.7,4.2-1.1,6.4l3.8,15.1
	l-16.4-8.2c-2.2-1.1-4.9-1.1-7.1,0l-16.4,8.2l3.8-15.1c0.6-2.2,0.2-4.5-1.1-6.4L382.9,96H392z"/>
</svg>
