<?xml version="1.0" encoding="utf-8"?>
<!-- Generator: Adobe Illustrator 23.1.0, SVG Export Plug-In . SVG Version: 6.00 Build 0)  -->
<svg version="1.1" id="Layer_1" xmlns="http://www.w3.org/2000/svg" xmlns:xlink="http://www.w3.org/1999/xlink" x="0px" y="0px"
	 viewBox="0 0 512 512" style="enable-background:new 0 0 512 512;" xml:space="preserve">
<style type="text/css">
	.st0{fill-rule:evenodd;clip-rule:evenodd;fill:#838383;}
	.st1{fill-rule:evenodd;clip-rule:evenodd;fill:#B1E4F9;}
	.st2{fill-rule:evenodd;clip-rule:evenodd;fill:#ACACAC;}
	.st3{fill-rule:evenodd;clip-rule:evenodd;fill:#595959;}
	.st4{fill-rule:evenodd;clip-rule:evenodd;fill:#90D8F9;}
	.st5{fill-rule:evenodd;clip-rule:evenodd;fill:#ECECEC;}
	.st6{fill-rule:evenodd;clip-rule:evenodd;fill:#A6E7F0;}
	.st7{fill-rule:evenodd;clip-rule:evenodd;fill:#6BD9E7;}
	.st8{fill-rule:evenodd;clip-rule:evenodd;fill:#4A81F6;}
	.st9{fill-rule:evenodd;clip-rule:evenodd;fill:#4070F6;}
</style>
<path class="st0" d="M21,178c-7.4,0-13.5,6.1-13.5,13.4v88.1c0,7.4,6,13.5,13.5,13.5h24.2l18.5-51.3L45.6,178L21,178L21,178z"/>
<path class="st1" d="M302.5,120.1H78.1h-9c-12.8,0-23.3,10.5-23.3,23.3L45.6,178l-0.4,93.8V293v48.9L262,360.1L486.3,342
	c0-59.6,0-83.4,0-100c0-12.8-10.5-23.3-23.3-23.3H402c-15.3,0-18.4,1.1-25-13.3l-26.8-58.3c-5.3-11.6-14.4-27-41-27L302.5,120.1
	L302.5,120.1z"/>
<path class="st2" d="M86.4,341.9H45.2h-7.4c-10,0-18.2,8.2-18.2,18.2s8.2,18.2,18.2,18.2h45.1c-1-4.2-1.5-6.7-1.5-13.1
	C81.4,358.8,83.2,349,86.4,341.9L86.4,341.9z"/>
<path class="st2" d="M271.3,341.9H232h-60.1c3.2,7.1,5,16.9,5,23.3c0,6.4-0.5,8.9-1.5,13.1H333c-1-4.2-1.5-6.7-1.5-13.1
	c0-6.4,1.8-16.2,5-23.3H271.3z"/>
<path class="st2" d="M486.2,342l-64.3-0.1c3.2,7.1,5,16.9,5,23.3c0,6.4-0.5,8.9-1.5,13.1l60.9,0.1c10,0,18.2-8.2,18.2-18.2
	C504.4,350.2,496.3,342,486.2,342L486.2,342z"/>
<path class="st0" d="M129.1,307.9c-23.5,0-43.7,14-52.7,34c-3.2,7.1-5,15-5,23.3c0,4.5,0.5,8.9,1.5,13.1c6,25.3,28.8,44.2,56.2,44.2
	s50.2-18.9,56.2-44.2c1-4.2,1.5-8.6,1.5-13.1c0-8.3-1.8-16.2-5-23.3C172.9,321.9,152.6,307.9,129.1,307.9z"/>
<path class="st0" d="M326.5,341.9c-3.2,7.1-5,15-5,23.3c0,4.5,0.5,8.9,1.5,13.1c6,25.3,28.9,44.2,56.2,44.2
	c27.3,0,50.2-18.9,56.2-44.2c1-4.2,1.5-8.6,1.5-13.1c0-8.3-1.8-16.2-5-23.3c-9-20-29.2-34-52.7-34
	C355.7,307.9,335.5,321.9,326.5,341.9L326.5,341.9z"/>
<path class="st3" d="M181.8,341.9c-9-20-29.2-34-52.7-34c-4.1,0-8,0.4-11.9,1.2c19.2,3.3,35.2,16,42.9,33.1c3.2,7.1,5,15,5,23.3
	c0,4.5-0.5,8.9-1.5,13.1c-5.1,21.5-22.4,38.4-44.3,43c3.2,0.5,6.5,0.8,9.8,0.8c27.3,0,50.2-18.9,56.2-44.2c1-4.2,1.5-8.6,1.5-13.1
	c0-1.7-0.1-3.4-0.2-5.1C186,353.6,184.4,347.5,181.8,341.9z"/>
<path class="st3" d="M431.9,341.9c-9-20-29.2-34-52.7-34c-4.1,0-8,0.4-11.9,1.2c19.2,3.3,35.2,16,42.9,33.1c3.2,7.1,5,15,5,23.3
	c0,4.5-0.5,8.9-1.5,13.1c-5.1,21.5-22.4,38.4-44.3,43c3.2,0.5,6.5,0.8,9.8,0.8c27.3,0,50.2-18.9,56.2-44.2c0,0,0,0,0,0
	c1-4.2,1.5-8.6,1.5-13.1c0-1.7-0.1-3.4-0.2-5.1C436.1,353.7,434.4,347.5,431.9,341.9L431.9,341.9L431.9,341.9z"/>
<path class="st4" d="M462.9,218.7h-27.3c12.8,0,23.3,10.5,23.3,23.3v12h27.3c0-4.5,0-8.4,0-12C486.2,229.1,475.7,218.7,462.9,218.7
	L462.9,218.7z"/>
<path class="st4" d="M459,290.9v51.1l27.3,0.1c0-17.6,0-32.1,0-44.2L459,290.9z"/>
<path class="st3" d="M29.8,178v115h15.5v-21.2l0.3-93.8L29.8,178z"/>
<path class="st5" d="M129.1,342.6c-12.6,0-22.8,10.1-22.8,22.6c0,12.5,10.2,22.7,22.8,22.7s22.8-10.1,22.8-22.7
	C151.9,352.7,141.7,342.6,129.1,342.6z"/>
<path class="st5" d="M379.2,342.6c-12.6,0-22.8,10.1-22.8,22.6c0,12.5,10.2,22.7,22.8,22.7c12.6,0,22.8-10.1,22.8-22.7
	C402,352.7,391.8,342.6,379.2,342.6z"/>
<path class="st6" d="M486.2,254h-49.7c-3.4,0-8.1,3.2-5.1,9.1l8.9,17.5c1.7,3.4,2.8,6.3,6.1,7.1l39.8,10.1L486.2,254L486.2,254z"/>
<path class="st7" d="M486.2,254H459v36.9l27.3,7L486.2,254z"/>
<path class="st8" d="M298.6,164.6h-59.3c-7.5,0-13.7,6.9-13.7,15.1v31.6c0,8.3,6.1,15.1,13.7,15.1l80.5,0c12.8,0,19.4-8.4,13.4-22.1
	l-14.3-28.9C314.1,164.4,312,164.6,298.6,164.6L298.6,164.6z"/>
<path class="st8" d="M174.1,164.6H99.1c-7,0-12.8,5.8-12.8,12.8v36.2c0,7,5.8,12.8,12.8,12.8h74.9c7,0,12.8-5.7,12.8-12.8v-36.2
	C186.8,170.4,181.1,164.6,174.1,164.6z"/>
<path class="st9" d="M174.1,164.6h-29.3c7,0,12.8,5.8,12.8,12.8v36.2c0,7-5.8,12.8-12.8,12.8h29.3c7,0,12.8-5.7,12.8-12.8v-36.2
	C186.8,170.4,181.1,164.6,174.1,164.6z"/>
<path class="st9" d="M318.9,175.4c-4.8-11-6.9-10.8-20.3-10.8h-23.1c11.7,0,13.9,0.4,18.4,10.8l14.3,28.9c6,13.7-0.6,22.1-13.4,22.1
	l-55.9,0h0.4l80.5,0c12.8,0,19.4-8.4,13.4-22.1L318.9,175.4z"/>
<path d="M253.4,253.5h-25.1c-4.2,0-7.6,3.4-7.6,7.6c0,4.2,3.4,7.6,7.6,7.6h25.1c4.2,0,7.6-3.4,7.6-7.6
	C260.9,256.8,257.5,253.5,253.4,253.5L253.4,253.5z"/>
<path d="M493.8,335.6v-37.8V254v-12c0-17-13.9-30.9-30.9-30.9H402c-1.1,0-2.1,0-3,0c-4.7,0-8.4,0-9.9-0.7c-1.7-0.9-3.8-5.1-5.2-8.2
	l-26.8-58.3c-6.6-14.5-18-31.1-47.1-31.4v-7.7c0-12.6-10.2-22.8-22.8-22.8H93.4c-12.6,0-22.8,10.2-22.8,22.8v7.7h-1.4c0,0,0,0-0.1,0
	c-16.9,0-30.8,13.8-30.8,30.8l-0.1,27.2H21c-11.6,0-21,9.4-21,21v88.1c0,11.6,9.4,21,21,21h16.6v33.8C23.5,334.4,12,345.9,12,360.1
	c0,14.2,11.6,25.7,25.8,25.7h29.5c8.7,25.7,33.1,44.2,61.9,44.2s53.2-18.5,61.9-44.2h126.3c8.7,25.7,33.1,44.2,61.9,44.2
	c28.7,0,53.2-18.5,61.9-44.2l45.2,0.1c14.2,0,25.8-11.6,25.8-25.8C512,348.6,504.3,338.8,493.8,335.6L493.8,335.6z M478.7,288.1
	l-29.9-7.6c-0.3-0.5-0.8-1.5-1.2-2.2c-0.2-0.4-0.4-0.8-0.6-1.2l-8-15.6h39.6L478.7,288.1L478.7,288.1z M21,285.5
	c-3.3,0-5.9-2.6-5.9-5.9v-88.1c0-3.3,2.6-5.9,5.9-5.9h17l-0.4,86.2v13.6H21z M37.8,370.7c-5.9,0-10.6-4.8-10.6-10.6
	s4.8-10.6,10.6-10.6h28c-1.3,5-2,10.3-2,15.7c0,1.9,0.1,3.7,0.3,5.5H37.8z M129.1,414.9c-27.6,0-50.1-22.3-50.1-49.7
	s22.5-49.7,50.1-49.7s50.1,22.3,50.1,49.7S156.8,414.9,129.1,414.9z M194.1,370.7c0.2-1.8,0.3-3.6,0.3-5.5c0-5.4-0.7-10.7-2-15.7
	H232c4.2,0,7.6-3.4,7.6-7.6c0-4.2-3.4-7.6-7.6-7.6h-45.5c-11.1-20.2-32.6-34-57.4-34s-46.3,13.7-57.4,34h-19v-62.5l0.6-128.5
	c0-8.7,7.1-15.8,15.7-15.8h0h95.6c4.2,0,7.6-3.4,7.6-7.6c0-4.2-3.4-7.6-7.6-7.6h-79v-7.7c0-4.2,3.5-7.7,7.7-7.7h193.8
	c4.3,0,7.7,3.4,7.7,7.7v7.7h-96.2c-4.2,0-7.6,3.4-7.6,7.6c0,4.2,3.4,7.6,7.6,7.6h110.5c21.9,0,29.1,11.7,34.1,22.6l26.8,58.3
	c7.9,17.1,14.5,17.8,28.9,17.7c0.9,0,1.9,0,2.9,0h60.9c8.7,0,15.8,7.1,15.8,15.7v4.4h-42.2c-4.7,0-9.4,2.5-11.8,6.5
	c-2.4,4-2.5,8.9-0.1,13.6l8.9,17.5c0.2,0.3,0.4,0.7,0.5,1c1.7,3.3,4.2,8.4,10.5,10l34.1,8.7v30.7l-42.1-0.1
	c-11.1-20.2-32.6-34-57.4-34c-24.7,0-46.3,13.7-57.4,34h-50.5c-4.2,0-7.6,3.4-7.6,7.6s3.4,7.6,7.6,7.6h44.5c-1.3,5-2,10.3-2,15.7
	c0,1.9,0.1,3.7,0.3,5.5L194.1,370.7L194.1,370.7z M379.2,414.9c-27.6,0-50.1-22.3-50.1-49.7s22.5-49.7,50.1-49.7
	s50.1,22.3,50.1,49.7S406.8,414.9,379.2,414.9z M486.3,370.8l-42.1-0.1c0.2-1.8,0.3-3.7,0.3-5.5c0-5.4-0.7-10.7-2-15.7l43.7,0.1
	c5.9,0,10.7,4.8,10.7,10.6C496.9,366,492.1,370.8,486.3,370.8L486.3,370.8z"/>
<path d="M129.1,335c-16.7,0-30.4,13.5-30.4,30.2c0,16.7,13.6,30.2,30.4,30.2c16.7,0,30.4-13.6,30.4-30.2
	C159.5,348.5,145.9,335,129.1,335L129.1,335z M129.1,380.3c-8.4,0-15.3-6.8-15.3-15.1c0-8.3,6.8-15.1,15.3-15.1
	c8.4,0,15.3,6.8,15.3,15.1C144.4,373.5,137.5,380.3,129.1,380.3z"/>
<path d="M379.2,335c-16.7,0-30.4,13.5-30.4,30.2c0,16.7,13.6,30.2,30.4,30.2c16.7,0,30.4-13.6,30.4-30.2
	C409.6,348.5,395.9,335,379.2,335L379.2,335z M379.2,380.3c-8.4,0-15.3-6.8-15.3-15.1c0-8.3,6.8-15.1,15.3-15.1
	c8.4,0,15.3,6.8,15.3,15.1C394.4,373.5,387.6,380.3,379.2,380.3z"/>
<path d="M239.4,234l80.5,0c9,0,16.1-3.3,20-9.3c4-6.2,4.1-14.5,0.3-23.3c0-0.1-0.1-0.2-0.2-0.3l-14.2-28.7
	c-6.4-14.6-12.4-15.2-26.4-15.2c0,0-0.1,0-0.1,0h-59.9c-11.7,0-21.2,10.2-21.2,22.7v31.6C218.1,223.8,227.6,234,239.4,234L239.4,234
	z M233.2,179.7c0-4.1,2.8-7.6,6.1-7.6h59.9c4.3,0,8.4,0,9.5,0.6c0.3,0.1,1.2,1,3.3,5.8c0,0.1,0.1,0.2,0.2,0.3l14.2,28.7
	c1.7,3.9,2,7.2,0.9,8.8c-1,1.6-3.8,2.5-7.4,2.5l-80.5,0c-3.3,0-6.1-3.4-6.1-7.5L233.2,179.7z"/>
<path d="M174.1,157H99.1c-11.2,0-20.3,9.1-20.3,20.4v36.2c0,11.2,9.1,20.3,20.3,20.3h74.9c11.2,0,20.3-9.1,20.3-20.3v-36.2
	C194.4,166.2,185.3,157,174.1,157z M179.3,213.6c0,2.8-2.4,5.2-5.2,5.2H99.1c-2.8,0-5.2-2.4-5.2-5.2v-36.2c0-2.8,2.4-5.2,5.2-5.2
	h74.9c2.8,0,5.2,2.4,5.2,5.2V213.6z"/>
</svg>
