<?xml version="1.0" encoding="utf-8"?>
<!-- Generator: Adobe Illustrator 23.1.0, SVG Export Plug-In . SVG Version: 6.00 Build 0)  -->
<svg version="1.1" id="Слой_1" xmlns="http://www.w3.org/2000/svg" xmlns:xlink="http://www.w3.org/1999/xlink" x="0px" y="0px"
	 viewBox="0 0 512 512" style="enable-background:new 0 0 512 512;" xml:space="preserve">
<style type="text/css">
	.st0{fill:#F5F7FA;}
	.st1{fill:#E6E9ED;}
	.st2{fill:#4A81F6;}
	.st3{fill:#656D78;}
	.st4{fill:#B1E4F9;}
</style>
<path class="st0" d="M52,408v40l-40-40H52z"/>
<path class="st1" d="M124,304v144H52v-40H12V48h112V304z"/>
<path class="st2" d="M156,480h280v-24h8c13.3,0,24-10.7,24-24v48c0,13.3-10.7,24-24,24H148c-13.3,0-24-10.7-24-24
	c0-13.2,10.7-24,24-24h8V480z"/>
<path class="st0" d="M156,456h280v24H156V456z"/>
<path class="st2" d="M500,48v104l-32,32V48H500z"/>
<path class="st3" d="M204,200.2h48c0,13.3-10.8,24-24,24C214.7,224.2,204,213.4,204,200.2z"/>
<path class="st3" d="M347.9,200.2h48c0,13.3-10.7,24-24,24S347.9,213.4,347.9,200.2z"/>
<path class="st4" d="M444,8H148c-13.3,0-24,10.7-24,24v448c0-13.2,10.7-24,24-24h296c13.3,0,24-10.7,24-24V32
	C468,18.7,457.3,8,444,8z M228,224.2c-13.3,0-24-10.7-24-24h48C252,213.4,241.2,224.2,228,224.2z M371.9,224.2
	c-13.3,0-24-10.7-24-24h48C395.9,213.4,385.2,224.2,371.9,224.2z"/>
<path d="M148,512c-17.6,0-32-14.4-32-32s14.4-32,32-32c4.4,0,8,3.6,8,8s-3.6,8-8,8c-8.8,0-16,7.2-16,16s7.2,16,16,16
	c4.4,0,8,3.6,8,8S152.4,512,148,512z"/>
<path d="M444,464H148c-4.4,0-8-3.6-8-8s3.6-8,8-8h296c4.4,0,8,3.6,8,8S448.4,464,444,464z"/>
<path d="M444,512H148c-4.4,0-8-3.6-8-8s3.6-8,8-8h296c4.4,0,8,3.6,8,8S448.4,512,444,512z"/>
<path d="M444,464c-4.4,0-8-3.6-8-8s3.6-8,8-8c8.8,0,16-7.2,16-16c0-4.4,3.6-8,8-8c4.4,0,8,3.6,8,8C476,449.6,461.6,464,444,464z"/>
<path d="M468,40c-4.4,0-8-3.6-8-8c0-8.8-7.2-16-16-16c-4.4,0-8-3.6-8-8s3.6-8,8-8c17.6,0,32,14.4,32,32C476,36.4,472.4,40,468,40z"
	/>
<path d="M124,40c-4.4,0-8-3.6-8-8c0-17.6,14.4-32,32-32c4.4,0,8,3.6,8,8s-3.6,8-8,8c-8.8,0-16,7.2-16,16C132,36.4,128.4,40,124,40z"
	/>
<path d="M444,512c-4.4,0-8-3.6-8-8s3.6-8,8-8c8.8,0,16-7.2,16-16c0-4.4,3.6-8,8-8c4.4,0,8,3.6,8,8C476,497.6,461.6,512,444,512z"/>
<path d="M468,192c-2.1,0-4.1-0.8-5.7-2.3c-3.1-3.1-3.1-8.2,0-11.3l29.7-29.7V56h-24c-4.4,0-8-3.6-8-8s3.6-8,8-8h32c4.4,0,8,3.6,8,8
	v104c0,2.1-0.8,4.2-2.3,5.7l-32,32C472.1,191.2,470.1,192,468,192z"/>
<path d="M444,16H148c-4.4,0-8-3.6-8-8s3.6-8,8-8h296c4.4,0,8,3.6,8,8S448.4,16,444,16z"/>
<path d="M124,488c-4.4,0-8-3.6-8-8V32c0-4.4,3.6-8,8-8c4.4,0,8,3.6,8,8v448C132,484.4,128.4,488,124,488z"/>
<path d="M436,488H156c-4.4,0-8-3.6-8-8s3.6-8,8-8h280c4.4,0,8,3.6,8,8S440.4,488,436,488z"/>
<path d="M436,488c-4.4,0-8-3.6-8-8v-24c0-4.4,3.6-8,8-8c4.4,0,8,3.6,8,8v24C444,484.4,440.4,488,436,488z"/>
<path d="M156,488c-4.4,0-8-3.6-8-8v-24c0-4.4,3.6-8,8-8c4.4,0,8,3.6,8,8v24C164,484.4,160.4,488,156,488z"/>
<path d="M468,488c-4.4,0-8-3.6-8-8V32c0-4.4,3.6-8,8-8c4.4,0,8,3.6,8,8v448C476,484.4,472.4,488,468,488z"/>
<path d="M124,56H12c-4.4,0-8-3.6-8-8s3.6-8,8-8h112c4.4,0,8,3.6,8,8S128.4,56,124,56z"/>
<path d="M124,456H52c-4.4,0-8-3.6-8-8s3.6-8,8-8h72c4.4,0,8,3.6,8,8S128.4,456,124,456z"/>
<path d="M12,416c-4.4,0-8-3.6-8-8V48c0-4.4,3.6-8,8-8c4.4,0,8,3.6,8,8v360C20,412.4,16.4,416,12,416z"/>
<path d="M52,456c-2.1,0-4.1-0.8-5.7-2.3l-40-40c-3.1-3.1-3.1-8.2,0-11.3c3.1-3.1,8.2-3.1,11.3,0l40,40c3.1,3.1,3.1,8.2,0,11.3
	C56.1,455.2,54.1,456,52,456z"/>
<path d="M52,456c-4.4,0-8-3.6-8-8v-40c0-4.4,3.6-8,8-8c4.4,0,8,3.6,8,8v40C60,452.4,56.4,456,52,456z"/>
<path d="M52,416H12c-4.4,0-8-3.6-8-8s3.6-8,8-8h40c4.4,0,8,3.6,8,8S56.4,416,52,416z"/>
<path d="M124,168H68c-4.4,0-8-3.6-8-8s3.6-8,8-8h56c4.4,0,8,3.6,8,8S128.4,168,124,168z"/>
<path d="M124,216H68c-4.4,0-8-3.6-8-8s3.6-8,8-8h56c4.4,0,8,3.6,8,8S128.4,216,124,216z"/>
<path d="M124,264H68c-4.4,0-8-3.6-8-8s3.6-8,8-8h56c4.4,0,8,3.6,8,8S128.4,264,124,264z"/>
<path d="M124,312H68c-4.4,0-8-3.6-8-8s3.6-8,8-8h56c4.4,0,8,3.6,8,8S128.4,312,124,312z"/>
<path d="M371.9,136.1H228c-4.4,0-8-3.6-8-8c0-4.4,3.6-8,8-8h144c4.4,0,8,3.6,8,8C379.9,132.6,376.4,136.1,371.9,136.1z"/>
<path d="M300,296.2c-4.4,0-8-3.6-8-8v-184c0-4.4,3.6-8,8-8c4.4,0,8,3.6,8,8v184C308,292.6,304.4,296.2,300,296.2z"/>
<path d="M364,296.2H236c-4.4,0-8-3.6-8-8c0-4.4,3.6-8,8-8h128c4.4,0,8,3.6,8,8C372,292.6,368.4,296.2,364,296.2z"/>
<path d="M396,352.2H203.9c-4.4,0-8-3.6-8-8c0-4.4,3.6-8,8-8H396c4.4,0,8,3.6,8,8C404,348.6,400.4,352.2,396,352.2z"/>
<path d="M348,376.1h-96c-4.4,0-8-3.6-8-8c0-4.4,3.6-8,8-8h96c4.4,0,8,3.6,8,8C356,372.6,352.4,376.1,348,376.1z"/>
<path d="M228,232.2c-17.6,0-32-14.4-32-32c0-4.4,3.6-8,8-8c4.4,0,8,3.6,8,8c0,8.8,7.2,16,16,16s16-7.2,16-16c0-4.4,3.6-8,8-8
	c4.4,0,8,3.6,8,8C260,217.8,245.6,232.2,228,232.2z"/>
<path d="M252,208.2h-48c-4.4,0-8-3.6-8-8c0-4.4,3.6-8,8-8h48c4.4,0,8,3.6,8,8C260,204.6,256.4,208.2,252,208.2z"/>
<path d="M204,208.2c-0.8,0-1.7-0.1-2.5-0.4c-4.2-1.4-6.5-5.9-5.1-10.1l24-72c1.4-4.2,5.9-6.5,10.1-5.1c4.2,1.4,6.5,5.9,5.1,10.1
	l-24,72C210.4,206,207.3,208.2,204,208.2z"/>
<path d="M252,208.2c-3.4,0-6.5-2.1-7.6-5.5l-24-72c-1.4-4.2,0.9-8.7,5.1-10.1c4.2-1.4,8.7,0.9,10.1,5.1l24,72
	c1.4,4.2-0.9,8.7-5.1,10.1C253.6,208,252.8,208.2,252,208.2z"/>
<path d="M371.9,232.2c-17.6,0-32-14.4-32-32c0-4.4,3.6-8,8-8c4.4,0,8,3.6,8,8c0,8.8,7.2,16,16,16s16-7.2,16-16c0-4.4,3.6-8,8-8
	c4.4,0,8,3.6,8,8C403.9,217.8,389.6,232.2,371.9,232.2z"/>
<path d="M395.9,208.2h-48c-4.4,0-8-3.6-8-8c0-4.4,3.6-8,8-8h48c4.4,0,8,3.6,8,8C403.9,204.6,400.4,208.2,395.9,208.2z"/>
<path d="M347.9,208.2c-0.8,0-1.7-0.1-2.5-0.4c-4.2-1.4-6.5-5.9-5.1-10.1l24-72c1.4-4.2,5.9-6.5,10.1-5.1c4.2,1.4,6.5,5.9,5.1,10.1
	l-24,72C354.4,206,351.3,208.2,347.9,208.2z"/>
<path d="M395.9,208.2c-3.4,0-6.5-2.1-7.6-5.5l-24-72c-1.4-4.2,0.9-8.7,5.1-10.1c4.2-1.4,8.7,0.9,10.1,5.1l24,72
	c1.4,4.2-0.9,8.7-5.1,10.1C397.6,208,396.8,208.2,395.9,208.2z"/>
</svg>
