<?xml version="1.0" encoding="iso-8859-1"?>
<!-- Generator: Adobe Illustrator 19.0.0, SVG Export Plug-In . SVG Version: 6.00 Build 0)  -->
<svg version="1.1" id="Capa_1" xmlns="http://www.w3.org/2000/svg" xmlns:xlink="http://www.w3.org/1999/xlink" x="0px" y="0px"
	 viewBox="0 0 512 512" style="enable-background:new 0 0 512 512;" xml:space="preserve">
<g>
	<g transform="translate(1 1)">
		<path style="fill:#C52828;" d="M502.467,255c0.011,65.636-26.058,128.586-72.469,174.997
			c-46.411,46.411-109.362,72.48-174.997,72.469c-4.267,0-8.533-0.085-12.715-0.341h-0.171C110.629,495.274,7.531,386.664,7.531,255
			S110.629,14.726,242.115,7.875h0.171c4.181-0.256,8.448-0.341,12.715-0.341c65.636-0.011,128.586,26.058,174.997,72.469
			C476.409,126.414,502.478,189.364,502.467,255z"/>
		<path style="fill:#F44335;" d="M476.867,255c0.003,131.665-103.095,240.275-234.581,247.125h-0.171
			C110.629,495.274,7.531,386.664,7.531,255S110.629,14.726,242.115,7.875h0.171C373.771,14.725,476.869,123.336,476.867,255z"/>
		<path style="fill:#FFEB3A;" d="M306.873,199.186c-17.137-9.154-31.548-22.678-41.771-39.199
			c-10.579-20.699-13.529-44.463-8.332-67.12c-28.228,18.369-49.226,45.943-59.427,78.039
			c-10.007,32.003-11.831,66.003-5.306,98.893c-16.662-8.722-28.284-24.736-31.414-43.28c-28.331,38.139-30.27,89.78-4.878,129.936
			c26.883,39.173,75.101,57.763,121.323,46.774c45.776-12.719,79.005-52.297,83.609-99.583
			C363.15,261.616,342.527,221.578,306.873,199.186z"/>
		<path style="fill:#F44335;" d="M277.594,306.359c-8.278-4.422-15.24-10.955-20.178-18.935c-5.111-9.999-6.536-21.478-4.025-32.423
			c-13.636,8.873-23.779,22.193-28.707,37.698c-4.834,15.459-5.715,31.884-2.563,47.771c-8.048-4.213-13.663-11.949-15.175-20.907
			c-14.113,18.271-15.06,43.49-2.356,62.767c12.703,19.278,36.25,28.356,58.607,22.595c21.076-5.42,36.839-22.961,39.984-44.494
			C306.326,338.898,296.239,317.581,277.594,306.359L277.594,306.359z"/>
	</g>
	<g>
		<path d="M256,0C114.615,0,0,114.615,0,256s114.615,256,256,256s256-114.615,256-256C511.84,114.682,397.319,0.16,256,0z
			 M256,494.933C124.041,494.933,17.067,387.959,17.067,256S124.041,17.067,256,17.067S494.933,124.041,494.933,256
			C494.785,387.898,387.898,494.785,256,494.933z"/>
		<path d="M312.363,192.929c-15.838-8.4-29.197-20.806-38.746-35.979c-9.654-18.881-12.317-40.569-7.517-61.225
			c0.748-3.355-0.59-6.832-3.395-8.82c-2.805-1.988-6.529-2.098-9.447-0.28c-29.968,19.368-52.251,48.573-63.016,82.592
			c-8.433,26.42-11.334,54.293-8.521,81.883c-6.096-7.088-10.132-15.712-11.671-24.933c-0.537-3.361-3.021-6.081-6.319-6.921
			c-3.298-0.84-6.781,0.36-8.86,3.055c-30.519,41.04-32.606,96.638-5.25,139.85c21.509,31.297,56.206,50.974,94.106,53.37
			c2.614,0.333,5.247,0.502,7.882,0.505l0.101-0.006l0.166,0.01c9.552,0.018,19.067-1.171,28.321-3.538
			c49.284-13.664,85.059-56.274,89.987-107.179C372.848,260.11,350.69,217.042,312.363,192.929z M212.713,378.633
			c-7.371-11.621-9.246-25.899-5.125-39.029c3.192,3.915,7.152,7.134,11.637,9.458c2.891,1.484,6.375,1.196,8.984-0.742
			c2.609-1.938,3.89-5.19,3.304-8.387c-2.891-14.479-2.11-29.451,2.271-43.55c2.509-7.682,6.412-14.836,11.513-21.104
			c0.864,6.008,2.76,11.821,5.604,17.183c5.64,9.308,13.649,16.952,23.208,22.154c15.734,9.426,24.265,27.381,21.633,45.533
			c-2.632,18.152-15.912,32.945-33.675,37.513c-4.469,1.127-9.089,1.536-13.686,1.212l-0.351-0.011
			C233.788,397.857,220.785,390.409,212.713,378.633z M353.167,303.979c-3.098,32.078-20.588,61.017-47.548,78.674
			c4.162-7.44,6.708-15.675,7.472-24.166c1.393-23.479-10.106-45.854-30.008-58.387c-6.974-3.673-12.882-9.085-17.15-15.712
			c-4.125-8.2-5.261-17.582-3.212-26.529c0.748-3.355-0.59-6.832-3.395-8.82c-2.805-1.988-6.529-2.098-9.447-0.28
			c-15.351,9.899-26.771,24.84-32.296,42.25c-2.414,7.373-3.922,15.013-4.492,22.75c-3.729-2.83-9.043-2.121-11.9,1.587
			c-14.579,19.711-16.674,45.998-5.403,67.77c-12.75-7.639-23.65-18.006-31.918-30.357c-20.097-31.822-21.92-71.884-4.796-105.4
			c6.429,13.305,16.972,24.186,30.067,31.033c2.891,1.484,6.375,1.197,8.984-0.742c2.609-1.938,3.89-5.19,3.304-8.387
			c-4.93-25.717-4.752-52.152,0.524-77.8c0.565-1.133,0.867-2.38,0.884-3.646c0-0.074-0.04-0.134-0.042-0.208
			c1.062-4.419,2.241-8.78,3.646-13.017c7.694-23.908,21.641-45.324,40.396-62.029c-0.739,18.214,3.311,36.303,11.746,52.463
			c10.886,17.882,26.355,32.528,44.804,42.421C336.345,228.137,355.422,265.131,353.167,303.979z"/>
	</g>
</g>
<g>
</g>
<g>
</g>
<g>
</g>
<g>
</g>
<g>
</g>
<g>
</g>
<g>
</g>
<g>
</g>
<g>
</g>
<g>
</g>
<g>
</g>
<g>
</g>
<g>
</g>
<g>
</g>
<g>
</g>
</svg>
